<?xml version="1.0"?>
<!-- Generated by SVGo -->
<svg width="377.663mm" height="125.250mm"
     viewBox="0.000 0.000 377.663 125.250"
     xmlns="http://www.w3.org/2000/svg" 
     xmlns:xlink="http://www.w3.org/1999/xlink">
<polygon points="372.663,120.250 5.000,120.250 5.000,5.000 183.831,5.000 183.831,15.000 15.000,15.000 15.000,110.250 362.663,110.250 362.663,15.000 193.831,15.000 193.831,5.000 372.663,5.000" style="fill:none;stroke-width:0.050000mm;stroke:black"/>
<polygon points="367.199,113.824 366.781,114.037 366.449,114.369 366.236,114.787 366.163,115.250 366.236,115.714 366.449,116.132 366.781,116.464 367.199,116.677 367.663,116.750 368.127,116.677 368.545,116.464 368.877,116.132 369.090,115.714 369.163,115.250 369.090,114.787 368.877,114.369 368.545,114.037 368.127,113.824 367.663,113.750" style="fill:none;stroke-width:0.050000mm;stroke:black"/>
<polygon points="9.536,113.824 9.118,114.037 8.786,114.369 8.573,114.787 8.500,115.250 8.573,115.714 8.786,116.132 9.118,116.464 9.536,116.677 10.000,116.750 10.463,116.677 10.881,116.464 11.213,116.132 11.426,115.714 11.500,115.250 11.426,114.787 11.213,114.369 10.881,114.037 10.463,113.824 10.000,113.750" style="fill:none;stroke-width:0.050000mm;stroke:black"/>
<polygon points="367.199,8.573 366.781,8.786 366.449,9.118 366.236,9.536 366.163,10.000 366.236,10.463 366.449,10.881 366.781,11.213 367.199,11.426 367.663,11.500 368.127,11.426 368.545,11.213 368.877,10.881 369.090,10.463 369.163,10.000 369.090,9.536 368.877,9.118 368.545,8.786 368.127,8.573 367.663,8.500" style="fill:none;stroke-width:0.050000mm;stroke:black"/>
<polygon points="9.536,8.573 9.118,8.786 8.786,9.118 8.573,9.536 8.500,10.000 8.573,10.463 8.786,10.881 9.118,11.213 9.536,11.426 10.000,11.500 10.463,11.426 10.881,11.213 11.213,10.881 11.426,10.463 11.500,10.000 11.426,9.536 11.213,9.118 10.881,8.786 10.463,8.573 10.000,8.500" style="fill:none;stroke-width:0.050000mm;stroke:black"/>
</svg>
