<?xml version="1.0"?>
<!-- Generated by SVGo -->
<svg width="377.663mm" height="125.250mm"
     viewBox="0.000 0.000 377.663 125.250"
     xmlns="http://www.w3.org/2000/svg" 
     xmlns:xlink="http://www.w3.org/1999/xlink">
<polygon points="372.663,120.250 5.000,120.250 5.000,5.000 372.663,5.000" style="fill:none;stroke-width:0.050000mm;stroke:black"/>
<polygon points="367.199,113.824 366.781,114.037 366.449,114.369 366.236,114.787 366.163,115.250 366.236,115.714 366.449,116.132 366.781,116.464 367.199,116.677 367.663,116.750 368.127,116.677 368.545,116.464 368.877,116.132 369.090,115.714 369.163,115.250 369.090,114.787 368.877,114.369 368.545,114.037 368.127,113.824 367.663,113.750" style="fill:none;stroke-width:0.050000mm;stroke:black"/>
<polygon points="9.536,113.824 9.118,114.037 8.786,114.369 8.573,114.787 8.500,115.250 8.573,115.714 8.786,116.132 9.118,116.464 9.536,116.677 10.000,116.750 10.463,116.677 10.881,116.464 11.213,116.132 11.426,115.714 11.500,115.250 11.426,114.787 11.213,114.369 10.881,114.037 10.463,113.824 10.000,113.750" style="fill:none;stroke-width:0.050000mm;stroke:black"/>
<polygon points="138.968,93.725 138.968,94.725 138.168,94.725 138.168,97.824 138.968,97.824 138.968,98.425 99.343,98.425 99.343,95.195 97.618,95.195 97.618,94.274 94.318,94.274 94.318,95.195 92.593,95.195 92.593,98.425 91.768,98.425 91.768,101.225 92.593,101.225 92.593,107.494 94.318,107.494 94.318,108.475 97.618,108.475 97.618,107.494 99.343,107.494 99.343,103.024 138.968,103.024 138.968,103.625 138.168,103.625 138.168,106.725 138.968,106.725 138.968,107.725 152.968,107.725 152.968,106.725 153.768,106.725 153.768,103.625 152.968,103.625 152.968,103.024 192.593,103.024 192.593,107.494 194.318,107.494 194.318,108.475 197.618,108.475 197.618,107.494 199.343,107.494 199.343,101.225 200.168,101.225 200.168,98.425 199.343,98.425 199.343,95.195 197.618,95.195 197.618,94.274 194.318,94.274 194.318,95.195 192.593,95.195 192.593,98.425 152.968,98.425 152.968,97.824 153.768,97.824 153.768,94.725 152.968,94.725 152.968,93.725" style="fill:none;stroke-width:0.050000mm;stroke:black"/>
<polygon points="19.906,93.725 19.906,94.725 19.106,94.725 19.106,97.824 19.906,97.824 19.906,103.625 19.106,103.625 19.106,106.725 19.906,106.725 19.906,107.725 33.906,107.725 33.906,106.725 34.706,106.725 34.706,103.625 33.906,103.625 33.906,97.824 34.706,97.824 34.706,94.725 33.906,94.725 33.906,93.725" style="fill:none;stroke-width:0.050000mm;stroke:black"/>
<polygon points="43.718,93.725 43.718,94.725 42.918,94.725 42.918,97.824 43.718,97.824 43.718,103.625 42.918,103.625 42.918,106.725 43.718,106.725 43.718,107.725 57.718,107.725 57.718,106.725 58.518,106.725 58.518,103.625 57.718,103.625 57.718,97.824 58.518,97.824 58.518,94.725 57.718,94.725 57.718,93.725" style="fill:none;stroke-width:0.050000mm;stroke:black"/>
<polygon points="67.531,93.725 67.531,94.725 66.731,94.725 66.731,97.824 67.531,97.824 67.531,103.625 66.731,103.625 66.731,106.725 67.531,106.725 67.531,107.725 81.531,107.725 81.531,106.725 82.331,106.725 82.331,103.625 81.531,103.625 81.531,97.824 82.331,97.824 82.331,94.725 81.531,94.725 81.531,93.725" style="fill:none;stroke-width:0.050000mm;stroke:black"/>
<polygon points="210.406,93.725 210.406,94.725 209.606,94.725 209.606,97.824 210.406,97.824 210.406,103.625 209.606,103.625 209.606,106.725 210.406,106.725 210.406,107.725 224.406,107.725 224.406,106.725 225.206,106.725 225.206,103.625 224.406,103.625 224.406,97.824 225.206,97.824 225.206,94.725 224.406,94.725 224.406,93.725" style="fill:none;stroke-width:0.050000mm;stroke:black"/>
<polygon points="234.218,93.725 234.218,94.725 233.418,94.725 233.418,97.824 234.218,97.824 234.218,103.625 233.418,103.625 233.418,106.725 234.218,106.725 234.218,107.725 248.218,107.725 248.218,106.725 249.018,106.725 249.018,103.625 248.218,103.625 248.218,97.824 249.018,97.824 249.018,94.725 248.218,94.725 248.218,93.725" style="fill:none;stroke-width:0.050000mm;stroke:black"/>
<polygon points="258.031,93.725 258.031,94.725 257.231,94.725 257.231,97.824 258.031,97.824 258.031,103.625 257.231,103.625 257.231,106.725 258.031,106.725 258.031,107.725 272.031,107.725 272.031,106.725 272.831,106.725 272.831,103.625 272.031,103.625 272.031,97.824 272.831,97.824 272.831,94.725 272.031,94.725 272.031,93.725" style="fill:none;stroke-width:0.050000mm;stroke:black"/>
<polygon points="281.843,93.725 281.843,94.725 281.043,94.725 281.043,97.824 281.843,97.824 281.843,103.625 281.043,103.625 281.043,106.725 281.843,106.725 281.843,107.725 295.843,107.725 295.843,106.725 296.643,106.725 296.643,103.625 295.843,103.625 295.843,97.824 296.643,97.824 296.643,94.725 295.843,94.725 295.843,93.725" style="fill:none;stroke-width:0.050000mm;stroke:black"/>
<polygon points="308.037,93.725 308.037,94.725 307.237,94.725 307.237,97.824 308.037,97.824 308.037,103.625 307.237,103.625 307.237,106.725 308.037,106.725 308.037,107.725 322.037,107.725 322.037,106.725 322.837,106.725 322.837,103.625 322.037,103.625 322.037,97.824 322.837,97.824 322.837,94.725 322.037,94.725 322.037,93.725" style="fill:none;stroke-width:0.050000mm;stroke:black"/>
<polygon points="327.087,93.725 327.087,94.725 326.287,94.725 326.287,97.824 327.087,97.824 327.087,103.625 326.287,103.625 326.287,106.725 327.087,106.725 327.087,107.725 341.087,107.725 341.087,106.725 341.887,106.725 341.887,103.625 341.087,103.625 341.087,97.824 341.887,97.824 341.887,94.725 341.087,94.725 341.087,93.725" style="fill:none;stroke-width:0.050000mm;stroke:black"/>
<polygon points="346.137,93.725 346.137,94.725 345.337,94.725 345.337,97.824 346.137,97.824 346.137,103.625 345.337,103.625 345.337,106.725 346.137,106.725 346.137,107.725 360.137,107.725 360.137,106.725 360.937,106.725 360.937,103.625 360.137,103.625 360.137,97.824 360.937,97.824 360.937,94.725 360.137,94.725 360.137,93.725" style="fill:none;stroke-width:0.050000mm;stroke:black"/>
<polygon points="29.431,74.675 29.431,75.675 28.631,75.675 28.631,78.774 29.431,78.774 29.431,79.375 27.906,79.375 27.906,76.145 26.181,76.145 26.181,75.225 22.881,75.225 22.881,76.145 21.156,76.145 21.156,79.375 20.331,79.375 20.331,82.175 21.156,82.175 21.156,88.445 22.881,88.445 22.881,89.425 26.181,89.425 26.181,88.445 27.906,88.445 27.906,83.975 29.431,83.975 29.431,84.575 28.631,84.575 28.631,87.675 29.431,87.675 29.431,88.675 43.431,88.675 43.431,87.675 44.231,87.675 44.231,84.575 43.431,84.575 43.431,83.975 44.956,83.975 44.956,88.445 46.681,88.445 46.681,89.425 49.981,89.425 49.981,88.445 51.706,88.445 51.706,82.175 52.531,82.175 52.531,79.375 51.706,79.375 51.706,76.145 49.981,76.145 49.981,75.225 46.681,75.225 46.681,76.145 44.956,76.145 44.956,79.375 43.431,79.375 43.431,78.774 44.231,78.774 44.231,75.675 43.431,75.675 43.431,74.675" style="fill:none;stroke-width:0.050000mm;stroke:black"/>
<polygon points="267.556,74.675 267.556,75.675 266.756,75.675 266.756,78.774 267.556,78.774 267.556,79.375 266.031,79.375 266.031,76.145 264.306,76.145 264.306,75.225 261.005,75.225 261.005,76.145 259.281,76.145 259.281,79.375 258.456,79.375 258.456,82.175 259.281,82.175 259.281,88.445 261.005,88.445 261.005,89.425 264.306,89.425 264.306,88.445 266.031,88.445 266.031,83.975 267.556,83.975 267.556,84.575 266.756,84.575 266.756,87.675 267.556,87.675 267.556,88.675 281.556,88.675 281.556,87.675 282.356,87.675 282.356,84.575 281.556,84.575 281.556,83.975 283.081,83.975 283.081,88.445 284.806,88.445 284.806,89.425 288.106,89.425 288.106,88.445 289.831,88.445 289.831,82.175 290.656,82.175 290.656,79.375 289.831,79.375 289.831,76.145 288.106,76.145 288.106,75.225 284.806,75.225 284.806,76.145 283.081,76.145 283.081,79.375 281.556,79.375 281.556,78.774 282.356,78.774 282.356,75.675 281.556,75.675 281.556,74.675" style="fill:none;stroke-width:0.050000mm;stroke:black"/>
<polygon points="60.387,74.675 60.387,75.675 59.587,75.675 59.587,78.774 60.387,78.774 60.387,84.575 59.587,84.575 59.587,87.675 60.387,87.675 60.387,88.675 74.387,88.675 74.387,87.675 75.187,87.675 75.187,84.575 74.387,84.575 74.387,78.774 75.187,78.774 75.187,75.675 74.387,75.675 74.387,74.675" style="fill:none;stroke-width:0.050000mm;stroke:black"/>
<polygon points="79.437,74.675 79.437,75.675 78.637,75.675 78.637,78.774 79.437,78.774 79.437,84.575 78.637,84.575 78.637,87.675 79.437,87.675 79.437,88.675 93.437,88.675 93.437,87.675 94.237,87.675 94.237,84.575 93.437,84.575 93.437,78.774 94.237,78.774 94.237,75.675 93.437,75.675 93.437,74.675" style="fill:none;stroke-width:0.050000mm;stroke:black"/>
<polygon points="98.487,74.675 98.487,75.675 97.687,75.675 97.687,78.774 98.487,78.774 98.487,84.575 97.687,84.575 97.687,87.675 98.487,87.675 98.487,88.675 112.487,88.675 112.487,87.675 113.287,87.675 113.287,84.575 112.487,84.575 112.487,78.774 113.287,78.774 113.287,75.675 112.487,75.675 112.487,74.675" style="fill:none;stroke-width:0.050000mm;stroke:black"/>
<polygon points="117.537,74.675 117.537,75.675 116.737,75.675 116.737,78.774 117.537,78.774 117.537,84.575 116.737,84.575 116.737,87.675 117.537,87.675 117.537,88.675 131.537,88.675 131.537,87.675 132.337,87.675 132.337,84.575 131.537,84.575 131.537,78.774 132.337,78.774 132.337,75.675 131.537,75.675 131.537,74.675" style="fill:none;stroke-width:0.050000mm;stroke:black"/>
<polygon points="136.587,74.675 136.587,75.675 135.787,75.675 135.787,78.774 136.587,78.774 136.587,84.575 135.787,84.575 135.787,87.675 136.587,87.675 136.587,88.675 150.587,88.675 150.587,87.675 151.387,87.675 151.387,84.575 150.587,84.575 150.587,78.774 151.387,78.774 151.387,75.675 150.587,75.675 150.587,74.675" style="fill:none;stroke-width:0.050000mm;stroke:black"/>
<polygon points="155.637,74.675 155.637,75.675 154.837,75.675 154.837,78.774 155.637,78.774 155.637,84.575 154.837,84.575 154.837,87.675 155.637,87.675 155.637,88.675 169.637,88.675 169.637,87.675 170.437,87.675 170.437,84.575 169.637,84.575 169.637,78.774 170.437,78.774 170.437,75.675 169.637,75.675 169.637,74.675" style="fill:none;stroke-width:0.050000mm;stroke:black"/>
<polygon points="174.687,74.675 174.687,75.675 173.887,75.675 173.887,78.774 174.687,78.774 174.687,84.575 173.887,84.575 173.887,87.675 174.687,87.675 174.687,88.675 188.687,88.675 188.687,87.675 189.487,87.675 189.487,84.575 188.687,84.575 188.687,78.774 189.487,78.774 189.487,75.675 188.687,75.675 188.687,74.675" style="fill:none;stroke-width:0.050000mm;stroke:black"/>
<polygon points="193.737,74.675 193.737,75.675 192.937,75.675 192.937,78.774 193.737,78.774 193.737,84.575 192.937,84.575 192.937,87.675 193.737,87.675 193.737,88.675 207.737,88.675 207.737,87.675 208.537,87.675 208.537,84.575 207.737,84.575 207.737,78.774 208.537,78.774 208.537,75.675 207.737,75.675 207.737,74.675" style="fill:none;stroke-width:0.050000mm;stroke:black"/>
<polygon points="212.787,74.675 212.787,75.675 211.987,75.675 211.987,78.774 212.787,78.774 212.787,84.575 211.987,84.575 211.987,87.675 212.787,87.675 212.787,88.675 226.787,88.675 226.787,87.675 227.587,87.675 227.587,84.575 226.787,84.575 226.787,78.774 227.587,78.774 227.587,75.675 226.787,75.675 226.787,74.675" style="fill:none;stroke-width:0.050000mm;stroke:black"/>
<polygon points="231.837,74.675 231.837,75.675 231.037,75.675 231.037,78.774 231.837,78.774 231.837,84.575 231.037,84.575 231.037,87.675 231.837,87.675 231.837,88.675 245.837,88.675 245.837,87.675 246.637,87.675 246.637,84.575 245.837,84.575 245.837,78.774 246.637,78.774 246.637,75.675 245.837,75.675 245.837,74.675" style="fill:none;stroke-width:0.050000mm;stroke:black"/>
<polygon points="327.087,74.675 327.087,75.675 326.287,75.675 326.287,78.774 327.087,78.774 327.087,84.575 326.287,84.575 326.287,87.675 327.087,87.675 327.087,88.675 341.087,88.675 341.087,87.675 341.887,87.675 341.887,84.575 341.087,84.575 341.087,78.774 341.887,78.774 341.887,75.675 341.087,75.675 341.087,74.675" style="fill:none;stroke-width:0.050000mm;stroke:black"/>
<polygon points="272.318,55.625 272.318,56.625 271.518,56.625 271.518,59.725 272.318,59.725 272.318,60.325 270.793,60.325 270.793,57.095 269.068,57.095 269.068,56.175 265.768,56.175 265.768,57.095 264.043,57.095 264.043,60.325 263.218,60.325 263.218,63.125 264.043,63.125 264.043,69.395 265.768,69.395 265.768,70.375 269.068,70.375 269.068,69.395 270.793,69.395 270.793,64.925 272.318,64.925 272.318,65.525 271.518,65.525 271.518,68.625 272.318,68.625 272.318,69.625 286.318,69.625 286.318,68.625 287.118,68.625 287.118,65.525 286.318,65.525 286.318,64.925 287.843,64.925 287.843,69.395 289.568,69.395 289.568,70.375 292.868,70.375 292.868,69.395 294.593,69.395 294.593,63.125 295.418,63.125 295.418,60.325 294.593,60.325 294.593,57.095 292.868,57.095 292.868,56.175 289.568,56.175 289.568,57.095 287.843,57.095 287.843,60.325 286.318,60.325 286.318,59.725 287.118,59.725 287.118,56.625 286.318,56.625 286.318,55.625" style="fill:none;stroke-width:0.050000mm;stroke:black"/>
<polygon points="24.668,55.625 24.668,56.625 23.868,56.625 23.868,59.725 24.668,59.725 24.668,65.525 23.868,65.525 23.868,68.625 24.668,68.625 24.668,69.625 38.668,69.625 38.668,68.625 39.468,68.625 39.468,65.525 38.668,65.525 38.668,59.725 39.468,59.725 39.468,56.625 38.668,56.625 38.668,55.625" style="fill:none;stroke-width:0.050000mm;stroke:black"/>
<polygon points="50.862,55.625 50.862,56.625 50.062,56.625 50.062,59.725 50.862,59.725 50.862,65.525 50.062,65.525 50.062,68.625 50.862,68.625 50.862,69.625 64.861,69.625 64.861,68.625 65.662,68.625 65.662,65.525 64.861,65.525 64.861,59.725 65.662,59.725 65.662,56.625 64.861,56.625 64.861,55.625" style="fill:none;stroke-width:0.050000mm;stroke:black"/>
<polygon points="69.912,55.625 69.912,56.625 69.112,56.625 69.112,59.725 69.912,59.725 69.912,65.525 69.112,65.525 69.112,68.625 69.912,68.625 69.912,69.625 83.912,69.625 83.912,68.625 84.712,68.625 84.712,65.525 83.912,65.525 83.912,59.725 84.712,59.725 84.712,56.625 83.912,56.625 83.912,55.625" style="fill:none;stroke-width:0.050000mm;stroke:black"/>
<polygon points="88.962,55.625 88.962,56.625 88.162,56.625 88.162,59.725 88.962,59.725 88.962,65.525 88.162,65.525 88.162,68.625 88.962,68.625 88.962,69.625 102.962,69.625 102.962,68.625 103.762,68.625 103.762,65.525 102.962,65.525 102.962,59.725 103.762,59.725 103.762,56.625 102.962,56.625 102.962,55.625" style="fill:none;stroke-width:0.050000mm;stroke:black"/>
<polygon points="108.012,55.625 108.012,56.625 107.212,56.625 107.212,59.725 108.012,59.725 108.012,65.525 107.212,65.525 107.212,68.625 108.012,68.625 108.012,69.625 122.012,69.625 122.012,68.625 122.812,68.625 122.812,65.525 122.012,65.525 122.012,59.725 122.812,59.725 122.812,56.625 122.012,56.625 122.012,55.625" style="fill:none;stroke-width:0.050000mm;stroke:black"/>
<polygon points="127.062,55.625 127.062,56.625 126.262,56.625 126.262,59.725 127.062,59.725 127.062,65.525 126.262,65.525 126.262,68.625 127.062,68.625 127.062,69.625 141.062,69.625 141.062,68.625 141.862,68.625 141.862,65.525 141.062,65.525 141.062,59.725 141.862,59.725 141.862,56.625 141.062,56.625 141.062,55.625" style="fill:none;stroke-width:0.050000mm;stroke:black"/>
<polygon points="146.112,55.625 146.112,56.625 145.312,56.625 145.312,59.725 146.112,59.725 146.112,65.525 145.312,65.525 145.312,68.625 146.112,68.625 146.112,69.625 160.112,69.625 160.112,68.625 160.912,68.625 160.912,65.525 160.112,65.525 160.112,59.725 160.912,59.725 160.912,56.625 160.112,56.625 160.112,55.625" style="fill:none;stroke-width:0.050000mm;stroke:black"/>
<polygon points="165.162,55.625 165.162,56.625 164.362,56.625 164.362,59.725 165.162,59.725 165.162,65.525 164.362,65.525 164.362,68.625 165.162,68.625 165.162,69.625 179.162,69.625 179.162,68.625 179.962,68.625 179.962,65.525 179.162,65.525 179.162,59.725 179.962,59.725 179.962,56.625 179.162,56.625 179.162,55.625" style="fill:none;stroke-width:0.050000mm;stroke:black"/>
<polygon points="184.212,55.625 184.212,56.625 183.412,56.625 183.412,59.725 184.212,59.725 184.212,65.525 183.412,65.525 183.412,68.625 184.212,68.625 184.212,69.625 198.212,69.625 198.212,68.625 199.012,68.625 199.012,65.525 198.212,65.525 198.212,59.725 199.012,59.725 199.012,56.625 198.212,56.625 198.212,55.625" style="fill:none;stroke-width:0.050000mm;stroke:black"/>
<polygon points="203.262,55.625 203.262,56.625 202.462,56.625 202.462,59.725 203.262,59.725 203.262,65.525 202.462,65.525 202.462,68.625 203.262,68.625 203.262,69.625 217.262,69.625 217.262,68.625 218.062,68.625 218.062,65.525 217.262,65.525 217.262,59.725 218.062,59.725 218.062,56.625 217.262,56.625 217.262,55.625" style="fill:none;stroke-width:0.050000mm;stroke:black"/>
<polygon points="222.312,55.625 222.312,56.625 221.512,56.625 221.512,59.725 222.312,59.725 222.312,65.525 221.512,65.525 221.512,68.625 222.312,68.625 222.312,69.625 236.312,69.625 236.312,68.625 237.112,68.625 237.112,65.525 236.312,65.525 236.312,59.725 237.112,59.725 237.112,56.625 236.312,56.625 236.312,55.625" style="fill:none;stroke-width:0.050000mm;stroke:black"/>
<polygon points="241.362,55.625 241.362,56.625 240.562,56.625 240.562,59.725 241.362,59.725 241.362,65.525 240.562,65.525 240.562,68.625 241.362,68.625 241.362,69.625 255.362,69.625 255.362,68.625 256.161,68.625 256.161,65.525 255.362,65.525 255.362,59.725 256.161,59.725 256.161,56.625 255.362,56.625 255.362,55.625" style="fill:none;stroke-width:0.050000mm;stroke:black"/>
<polygon points="22.287,36.575 22.287,37.575 21.487,37.575 21.487,40.675 22.287,40.675 22.287,46.475 21.487,46.475 21.487,49.575 22.287,49.575 22.287,50.575 36.287,50.575 36.287,49.575 37.087,49.575 37.087,46.475 36.287,46.475 36.287,40.675 37.087,40.675 37.087,37.575 36.287,37.575 36.287,36.575" style="fill:none;stroke-width:0.050000mm;stroke:black"/>
<polygon points="46.100,36.575 46.100,37.575 45.300,37.575 45.300,40.675 46.100,40.675 46.100,46.475 45.300,46.475 45.300,49.575 46.100,49.575 46.100,50.575 60.100,50.575 60.100,49.575 60.900,49.575 60.900,46.475 60.100,46.475 60.100,40.675 60.900,40.675 60.900,37.575 60.100,37.575 60.100,36.575" style="fill:none;stroke-width:0.050000mm;stroke:black"/>
<polygon points="65.150,36.575 65.150,37.575 64.349,37.575 64.349,40.675 65.150,40.675 65.150,46.475 64.349,46.475 64.349,49.575 65.150,49.575 65.150,50.575 79.150,50.575 79.150,49.575 79.950,49.575 79.950,46.475 79.150,46.475 79.150,40.675 79.950,40.675 79.950,37.575 79.150,37.575 79.150,36.575" style="fill:none;stroke-width:0.050000mm;stroke:black"/>
<polygon points="84.200,36.575 84.200,37.575 83.400,37.575 83.400,40.675 84.200,40.675 84.200,46.475 83.400,46.475 83.400,49.575 84.200,49.575 84.200,50.575 98.200,50.575 98.200,49.575 99.000,49.575 99.000,46.475 98.200,46.475 98.200,40.675 99.000,40.675 99.000,37.575 98.200,37.575 98.200,36.575" style="fill:none;stroke-width:0.050000mm;stroke:black"/>
<polygon points="103.250,36.575 103.250,37.575 102.450,37.575 102.450,40.675 103.250,40.675 103.250,46.475 102.450,46.475 102.450,49.575 103.250,49.575 103.250,50.575 117.250,50.575 117.250,49.575 118.050,49.575 118.050,46.475 117.250,46.475 117.250,40.675 118.050,40.675 118.050,37.575 117.250,37.575 117.250,36.575" style="fill:none;stroke-width:0.050000mm;stroke:black"/>
<polygon points="122.300,36.575 122.300,37.575 121.500,37.575 121.500,40.675 122.300,40.675 122.300,46.475 121.500,46.475 121.500,49.575 122.300,49.575 122.300,50.575 136.300,50.575 136.300,49.575 137.100,49.575 137.100,46.475 136.300,46.475 136.300,40.675 137.100,40.675 137.100,37.575 136.300,37.575 136.300,36.575" style="fill:none;stroke-width:0.050000mm;stroke:black"/>
<polygon points="141.350,36.575 141.350,37.575 140.550,37.575 140.550,40.675 141.350,40.675 141.350,46.475 140.550,46.475 140.550,49.575 141.350,49.575 141.350,50.575 155.350,50.575 155.350,49.575 156.150,49.575 156.150,46.475 155.350,46.475 155.350,40.675 156.150,40.675 156.150,37.575 155.350,37.575 155.350,36.575" style="fill:none;stroke-width:0.050000mm;stroke:black"/>
<polygon points="160.400,36.575 160.400,37.575 159.600,37.575 159.600,40.675 160.400,40.675 160.400,46.475 159.600,46.475 159.600,49.575 160.400,49.575 160.400,50.575 174.400,50.575 174.400,49.575 175.200,49.575 175.200,46.475 174.400,46.475 174.400,40.675 175.200,40.675 175.200,37.575 174.400,37.575 174.400,36.575" style="fill:none;stroke-width:0.050000mm;stroke:black"/>
<polygon points="179.450,36.575 179.450,37.575 178.650,37.575 178.650,40.675 179.450,40.675 179.450,46.475 178.650,46.475 178.650,49.575 179.450,49.575 179.450,50.575 193.450,50.575 193.450,49.575 194.250,49.575 194.250,46.475 193.450,46.475 193.450,40.675 194.250,40.675 194.250,37.575 193.450,37.575 193.450,36.575" style="fill:none;stroke-width:0.050000mm;stroke:black"/>
<polygon points="198.500,36.575 198.500,37.575 197.700,37.575 197.700,40.675 198.500,40.675 198.500,46.475 197.700,46.475 197.700,49.575 198.500,49.575 198.500,50.575 212.500,50.575 212.500,49.575 213.300,49.575 213.300,46.475 212.500,46.475 212.500,40.675 213.300,40.675 213.300,37.575 212.500,37.575 212.500,36.575" style="fill:none;stroke-width:0.050000mm;stroke:black"/>
<polygon points="217.550,36.575 217.550,37.575 216.750,37.575 216.750,40.675 217.550,40.675 217.550,46.475 216.750,46.475 216.750,49.575 217.550,49.575 217.550,50.575 231.550,50.575 231.550,49.575 232.350,49.575 232.350,46.475 231.550,46.475 231.550,40.675 232.350,40.675 232.350,37.575 231.550,37.575 231.550,36.575" style="fill:none;stroke-width:0.050000mm;stroke:black"/>
<polygon points="236.600,36.575 236.600,37.575 235.800,37.575 235.800,40.675 236.600,40.675 236.600,46.475 235.800,46.475 235.800,49.575 236.600,49.575 236.600,50.575 250.600,50.575 250.600,49.575 251.400,49.575 251.400,46.475 250.600,46.475 250.600,40.675 251.400,40.675 251.400,37.575 250.600,37.575 250.600,36.575" style="fill:none;stroke-width:0.050000mm;stroke:black"/>
<polygon points="255.650,36.575 255.650,37.575 254.850,37.575 254.850,40.675 255.650,40.675 255.650,46.475 254.850,46.475 254.850,49.575 255.650,49.575 255.650,50.575 269.650,50.575 269.650,49.575 270.450,49.575 270.450,46.475 269.650,46.475 269.650,40.675 270.450,40.675 270.450,37.575 269.650,37.575 269.650,36.575" style="fill:none;stroke-width:0.050000mm;stroke:black"/>
<polygon points="279.462,36.575 279.462,37.575 278.662,37.575 278.662,40.675 279.462,40.675 279.462,46.475 278.662,46.475 278.662,49.575 279.462,49.575 279.462,50.575 293.462,50.575 293.462,49.575 294.262,49.575 294.262,46.475 293.462,46.475 293.462,40.675 294.262,40.675 294.262,37.575 293.462,37.575 293.462,36.575" style="fill:none;stroke-width:0.050000mm;stroke:black"/>
<polygon points="308.037,36.575 308.037,37.575 307.237,37.575 307.237,40.675 308.037,40.675 308.037,46.475 307.237,46.475 307.237,49.575 308.037,49.575 308.037,50.575 322.037,50.575 322.037,49.575 322.837,49.575 322.837,46.475 322.037,46.475 322.037,40.675 322.837,40.675 322.837,37.575 322.037,37.575 322.037,36.575" style="fill:none;stroke-width:0.050000mm;stroke:black"/>
<polygon points="327.087,36.575 327.087,37.575 326.287,37.575 326.287,40.675 327.087,40.675 327.087,46.475 326.287,46.475 326.287,49.575 327.087,49.575 327.087,50.575 341.087,50.575 341.087,49.575 341.887,49.575 341.887,46.475 341.087,46.475 341.087,40.675 341.887,40.675 341.887,37.575 341.087,37.575 341.087,36.575" style="fill:none;stroke-width:0.050000mm;stroke:black"/>
<polygon points="346.137,36.575 346.137,37.575 345.337,37.575 345.337,40.675 346.137,40.675 346.137,46.475 345.337,46.475 345.337,49.575 346.137,49.575 346.137,50.575 360.137,50.575 360.137,49.575 360.937,49.575 360.937,46.475 360.137,46.475 360.137,40.675 360.937,40.675 360.937,37.575 360.137,37.575 360.137,36.575" style="fill:none;stroke-width:0.050000mm;stroke:black"/>
<polygon points="274.700,17.525 274.700,18.525 273.900,18.525 273.900,21.625 274.700,21.625 274.700,22.224 273.175,22.224 273.175,18.994 271.450,18.994 271.450,18.075 268.150,18.075 268.150,18.994 266.425,18.994 266.425,22.224 265.600,22.224 265.600,25.025 266.425,25.025 266.425,31.294 268.150,31.294 268.150,32.275 271.450,32.275 271.450,31.294 273.175,31.294 273.175,26.825 274.700,26.825 274.700,27.424 273.900,27.424 273.900,30.525 274.700,30.525 274.700,31.525 288.700,31.525 288.700,30.525 289.500,30.525 289.500,27.424 288.700,27.424 288.700,26.825 290.225,26.825 290.225,31.294 291.950,31.294 291.950,32.275 295.250,32.275 295.250,31.294 296.975,31.294 296.975,25.025 297.800,25.025 297.800,22.224 296.975,22.224 296.975,18.994 295.250,18.994 295.250,18.075 291.950,18.075 291.950,18.994 290.225,18.994 290.225,22.224 288.700,22.224 288.700,21.625 289.500,21.625 289.500,18.525 288.700,18.525 288.700,17.525" style="fill:none;stroke-width:0.050000mm;stroke:black"/>
<polygon points="17.525,17.525 17.525,18.525 16.724,18.525 16.724,21.625 17.525,21.625 17.525,27.424 16.724,27.424 16.724,30.525 17.525,30.525 17.525,31.525 31.525,31.525 31.525,30.525 32.323,30.525 32.323,27.424 31.525,27.424 31.525,21.625 32.323,21.625 32.323,18.525 31.525,18.525 31.525,17.525" style="fill:none;stroke-width:0.050000mm;stroke:black"/>
<polygon points="36.575,17.525 36.575,18.525 35.775,18.525 35.775,21.625 36.575,21.625 36.575,27.424 35.775,27.424 35.775,30.525 36.575,30.525 36.575,31.525 50.575,31.525 50.575,30.525 51.375,30.525 51.375,27.424 50.575,27.424 50.575,21.625 51.375,21.625 51.375,18.525 50.575,18.525 50.575,17.525" style="fill:none;stroke-width:0.050000mm;stroke:black"/>
<polygon points="55.625,17.525 55.625,18.525 54.825,18.525 54.825,21.625 55.625,21.625 55.625,27.424 54.825,27.424 54.825,30.525 55.625,30.525 55.625,31.525 69.625,31.525 69.625,30.525 70.425,30.525 70.425,27.424 69.625,27.424 69.625,21.625 70.425,21.625 70.425,18.525 69.625,18.525 69.625,17.525" style="fill:none;stroke-width:0.050000mm;stroke:black"/>
<polygon points="74.675,17.525 74.675,18.525 73.875,18.525 73.875,21.625 74.675,21.625 74.675,27.424 73.875,27.424 73.875,30.525 74.675,30.525 74.675,31.525 88.675,31.525 88.675,30.525 89.475,30.525 89.475,27.424 88.675,27.424 88.675,21.625 89.475,21.625 89.475,18.525 88.675,18.525 88.675,17.525" style="fill:none;stroke-width:0.050000mm;stroke:black"/>
<polygon points="93.725,17.525 93.725,18.525 92.925,18.525 92.925,21.625 93.725,21.625 93.725,27.424 92.925,27.424 92.925,30.525 93.725,30.525 93.725,31.525 107.725,31.525 107.725,30.525 108.524,30.525 108.524,27.424 107.725,27.424 107.725,21.625 108.524,21.625 108.524,18.525 107.725,18.525 107.725,17.525" style="fill:none;stroke-width:0.050000mm;stroke:black"/>
<polygon points="112.774,17.525 112.774,18.525 111.975,18.525 111.975,21.625 112.774,21.625 112.774,27.424 111.975,27.424 111.975,30.525 112.774,30.525 112.774,31.525 126.774,31.525 126.774,30.525 127.574,30.525 127.574,27.424 126.774,27.424 126.774,21.625 127.574,21.625 127.574,18.525 126.774,18.525 126.774,17.525" style="fill:none;stroke-width:0.050000mm;stroke:black"/>
<polygon points="131.825,17.525 131.825,18.525 131.024,18.525 131.024,21.625 131.825,21.625 131.825,27.424 131.024,27.424 131.024,30.525 131.825,30.525 131.825,31.525 145.825,31.525 145.825,30.525 146.625,30.525 146.625,27.424 145.825,27.424 145.825,21.625 146.625,21.625 146.625,18.525 145.825,18.525 145.825,17.525" style="fill:none;stroke-width:0.050000mm;stroke:black"/>
<polygon points="150.875,17.525 150.875,18.525 150.075,18.525 150.075,21.625 150.875,21.625 150.875,27.424 150.075,27.424 150.075,30.525 150.875,30.525 150.875,31.525 164.875,31.525 164.875,30.525 165.675,30.525 165.675,27.424 164.875,27.424 164.875,21.625 165.675,21.625 165.675,18.525 164.875,18.525 164.875,17.525" style="fill:none;stroke-width:0.050000mm;stroke:black"/>
<polygon points="169.925,17.525 169.925,18.525 169.125,18.525 169.125,21.625 169.925,21.625 169.925,27.424 169.125,27.424 169.125,30.525 169.925,30.525 169.925,31.525 183.925,31.525 183.925,30.525 184.725,30.525 184.725,27.424 183.925,27.424 183.925,21.625 184.725,21.625 184.725,18.525 183.925,18.525 183.925,17.525" style="fill:none;stroke-width:0.050000mm;stroke:black"/>
<polygon points="188.975,17.525 188.975,18.525 188.175,18.525 188.175,21.625 188.975,21.625 188.975,27.424 188.175,27.424 188.175,30.525 188.975,30.525 188.975,31.525 202.975,31.525 202.975,30.525 203.775,30.525 203.775,27.424 202.975,27.424 202.975,21.625 203.775,21.625 203.775,18.525 202.975,18.525 202.975,17.525" style="fill:none;stroke-width:0.050000mm;stroke:black"/>
<polygon points="208.025,17.525 208.025,18.525 207.225,18.525 207.225,21.625 208.025,21.625 208.025,27.424 207.225,27.424 207.225,30.525 208.025,30.525 208.025,31.525 222.025,31.525 222.025,30.525 222.825,30.525 222.825,27.424 222.025,27.424 222.025,21.625 222.825,21.625 222.825,18.525 222.025,18.525 222.025,17.525" style="fill:none;stroke-width:0.050000mm;stroke:black"/>
<polygon points="227.075,17.525 227.075,18.525 226.275,18.525 226.275,21.625 227.075,21.625 227.075,27.424 226.275,27.424 226.275,30.525 227.075,30.525 227.075,31.525 241.075,31.525 241.075,30.525 241.875,30.525 241.875,27.424 241.075,27.424 241.075,21.625 241.875,21.625 241.875,18.525 241.075,18.525 241.075,17.525" style="fill:none;stroke-width:0.050000mm;stroke:black"/>
<polygon points="246.125,17.525 246.125,18.525 245.325,18.525 245.325,21.625 246.125,21.625 246.125,27.424 245.325,27.424 245.325,30.525 246.125,30.525 246.125,31.525 260.125,31.525 260.125,30.525 260.925,30.525 260.925,27.424 260.125,27.424 260.125,21.625 260.925,21.625 260.925,18.525 260.125,18.525 260.125,17.525" style="fill:none;stroke-width:0.050000mm;stroke:black"/>
<polygon points="308.037,17.525 308.037,18.525 307.237,18.525 307.237,21.625 308.037,21.625 308.037,27.424 307.237,27.424 307.237,30.525 308.037,30.525 308.037,31.525 322.037,31.525 322.037,30.525 322.837,30.525 322.837,27.424 322.037,27.424 322.037,21.625 322.837,21.625 322.837,18.525 322.037,18.525 322.037,17.525" style="fill:none;stroke-width:0.050000mm;stroke:black"/>
<polygon points="327.087,17.525 327.087,18.525 326.287,18.525 326.287,21.625 327.087,21.625 327.087,27.424 326.287,27.424 326.287,30.525 327.087,30.525 327.087,31.525 341.087,31.525 341.087,30.525 341.887,30.525 341.887,27.424 341.087,27.424 341.087,21.625 341.887,21.625 341.887,18.525 341.087,18.525 341.087,17.525" style="fill:none;stroke-width:0.050000mm;stroke:black"/>
<polygon points="346.137,17.525 346.137,18.525 345.337,18.525 345.337,21.625 346.137,21.625 346.137,27.424 345.337,27.424 345.337,30.525 346.137,30.525 346.137,31.525 360.137,31.525 360.137,30.525 360.937,30.525 360.937,27.424 360.137,27.424 360.137,21.625 360.937,21.625 360.937,18.525 360.137,18.525 360.137,17.525" style="fill:none;stroke-width:0.050000mm;stroke:black"/>
<polygon points="367.199,8.573 366.781,8.786 366.449,9.118 366.236,9.536 366.163,10.000 366.236,10.463 366.449,10.881 366.781,11.213 367.199,11.426 367.663,11.500 368.127,11.426 368.545,11.213 368.877,10.881 369.090,10.463 369.163,10.000 369.090,9.536 368.877,9.118 368.545,8.786 368.127,8.573 367.663,8.500" style="fill:none;stroke-width:0.050000mm;stroke:black"/>
<polygon points="9.536,8.573 9.118,8.786 8.786,9.118 8.573,9.536 8.500,10.000 8.573,10.463 8.786,10.881 9.118,11.213 9.536,11.426 10.000,11.500 10.463,11.426 10.881,11.213 11.213,10.881 11.426,10.463 11.500,10.000 11.426,9.536 11.213,9.118 10.881,8.786 10.463,8.573 10.000,8.500" style="fill:none;stroke-width:0.050000mm;stroke:black"/>
</svg>
