  0
SECTION
  2
HEADER
  9
$ACADVER
  1
AC1009
  9
$EXTMIN
 10
0.0
 20
0.0
 30
0.0
  9
$EXTMAX
 10
1000.0
 20
1000.0
 30
0.0
  9
$FILLMODE
 70
 0
  9
$SPLFRAME
 70
 1
  0
ENDSEC
  0
SECTION
  2
TABLES
  0
TABLE
  2
LAYER
 70
1
  0
LAYER
  2
0
 70
     0
 62
     7
  6
CONTINUOUS
  0
ENDTAB
  0
ENDSEC
  0
SECTION
  2
ENTITIES
  0
LINE
  8
0
 62
     0
 10
0.0937066
 20
115.343
 30
0.0
 11
367.757
 21
115.343
 31
0.0
  0
LINE
  8
0
 62
     0
 10
367.757
 20
115.343
 30
0.0
 11
367.757
 21
0.0937066
 31
0.0
  0
LINE
  8
0
 62
     0
 10
367.757
 20
0.0937066
 30
0.0
 11
0.0937066
 21
0.0937066
 31
0.0
  0
LINE
  8
0
 62
     0
 10
0.0937066
 20
0.0937066
 30
0.0
 11
0.0937066
 21
115.343
 31
0.0
  0
LINE
  8
0
 62
     0
 10
362.292
 20
6.51951
 30
0.0
 11
361.876
 21
6.3059
 31
0.0
  0
LINE
  8
0
 62
     0
 10
361.876
 20
6.3059
 30
0.0
 11
361.541
 21
5.9738
 31
0.0
  0
LINE
  8
0
 62
     0
 10
361.541
 20
5.9738
 30
0.0
 11
361.329
 21
5.55625
 31
0.0
  0
LINE
  8
0
 62
     0
 10
361.329
 20
5.55625
 30
0.0
 11
361.259
 21
5.09323
 31
0.0
  0
LINE
  8
0
 62
     0
 10
361.259
 20
5.09323
 30
0.0
 11
361.329
 21
4.62883
 31
0.0
  0
LINE
  8
0
 62
     0
 10
361.329
 20
4.62883
 30
0.0
 11
361.541
 21
4.21128
 31
0.0
  0
LINE
  8
0
 62
     0
 10
361.541
 20
4.21128
 30
0.0
 11
361.876
 21
3.87918
 31
0.0
  0
LINE
  8
0
 62
     0
 10
361.876
 20
3.87918
 30
0.0
 11
362.292
 21
3.66557
 31
0.0
  0
LINE
  8
0
 62
     0
 10
362.292
 20
3.66557
 30
0.0
 11
362.758
 21
3.59255
 31
0.0
  0
LINE
  8
0
 62
     0
 10
362.758
 20
3.59255
 30
0.0
 11
363.22
 21
3.66557
 31
0.0
  0
LINE
  8
0
 62
     0
 10
363.22
 20
3.66557
 30
0.0
 11
363.64
 21
3.87918
 31
0.0
  0
LINE
  8
0
 62
     0
 10
363.64
 20
3.87918
 30
0.0
 11
363.971
 21
4.21128
 31
0.0
  0
LINE
  8
0
 62
     0
 10
363.971
 20
4.21128
 30
0.0
 11
364.183
 21
4.62883
 31
0.0
  0
LINE
  8
0
 62
     0
 10
364.183
 20
4.62883
 30
0.0
 11
364.257
 21
5.09323
 31
0.0
  0
LINE
  8
0
 62
     0
 10
364.257
 20
5.09323
 30
0.0
 11
364.183
 21
5.55625
 31
0.0
  0
LINE
  8
0
 62
     0
 10
364.183
 20
5.55625
 30
0.0
 11
363.971
 21
5.9738
 31
0.0
  0
LINE
  8
0
 62
     0
 10
363.971
 20
5.9738
 30
0.0
 11
363.64
 21
6.3059
 31
0.0
  0
LINE
  8
0
 62
     0
 10
363.64
 20
6.3059
 30
0.0
 11
363.22
 21
6.51951
 31
0.0
  0
LINE
  8
0
 62
     0
 10
363.22
 20
6.51951
 30
0.0
 11
362.758
 21
6.59253
 31
0.0
  0
LINE
  8
0
 62
     0
 10
362.758
 20
6.59253
 30
0.0
 11
362.292
 21
6.51951
 31
0.0
  0
LINE
  8
0
 62
     0
 10
4.63021
 20
6.51951
 30
0.0
 11
4.21128
 21
6.3059
 31
0.0
  0
LINE
  8
0
 62
     0
 10
4.21128
 20
6.3059
 30
0.0
 11
3.87918
 21
5.9738
 31
0.0
  0
LINE
  8
0
 62
     0
 10
3.87918
 20
5.9738
 30
0.0
 11
3.66695
 21
5.55625
 31
0.0
  0
LINE
  8
0
 62
     0
 10
3.66695
 20
5.55625
 30
0.0
 11
3.59392
 21
5.09323
 31
0.0
  0
LINE
  8
0
 62
     0
 10
3.59392
 20
5.09323
 30
0.0
 11
3.66695
 21
4.62883
 31
0.0
  0
LINE
  8
0
 62
     0
 10
3.66695
 20
4.62883
 30
0.0
 11
3.87918
 21
4.21128
 31
0.0
  0
LINE
  8
0
 62
     0
 10
3.87918
 20
4.21128
 30
0.0
 11
4.21128
 21
3.87918
 31
0.0
  0
LINE
  8
0
 62
     0
 10
4.21128
 20
3.87918
 30
0.0
 11
4.63021
 21
3.66557
 31
0.0
  0
LINE
  8
0
 62
     0
 10
4.63021
 20
3.66557
 30
0.0
 11
5.09323
 21
3.59255
 31
0.0
  0
LINE
  8
0
 62
     0
 10
5.09323
 20
3.59255
 30
0.0
 11
5.55625
 21
3.66557
 31
0.0
  0
LINE
  8
0
 62
     0
 10
5.55625
 20
3.66557
 30
0.0
 11
5.97517
 21
3.87918
 31
0.0
  0
LINE
  8
0
 62
     0
 10
5.97517
 20
3.87918
 30
0.0
 11
6.30728
 21
4.21128
 31
0.0
  0
LINE
  8
0
 62
     0
 10
6.30728
 20
4.21128
 30
0.0
 11
6.51951
 21
4.62883
 31
0.0
  0
LINE
  8
0
 62
     0
 10
6.51951
 20
4.62883
 30
0.0
 11
6.59391
 21
5.09323
 31
0.0
  0
LINE
  8
0
 62
     0
 10
6.59391
 20
5.09323
 30
0.0
 11
6.51951
 21
5.55625
 31
0.0
  0
LINE
  8
0
 62
     0
 10
6.51951
 20
5.55625
 30
0.0
 11
6.30728
 21
5.9738
 31
0.0
  0
LINE
  8
0
 62
     0
 10
6.30728
 20
5.9738
 30
0.0
 11
5.97517
 21
6.3059
 31
0.0
  0
LINE
  8
0
 62
     0
 10
5.97517
 20
6.3059
 30
0.0
 11
5.55625
 21
6.51951
 31
0.0
  0
LINE
  8
0
 62
     0
 10
5.55625
 20
6.51951
 30
0.0
 11
5.09323
 21
6.59253
 31
0.0
  0
LINE
  8
0
 62
     0
 10
5.09323
 20
6.59253
 30
0.0
 11
4.63021
 21
6.51951
 31
0.0
  0
LINE
  8
0
 62
     0
 10
362.292
 20
111.77
 30
0.0
 11
361.876
 21
111.558
 31
0.0
  0
LINE
  8
0
 62
     0
 10
361.876
 20
111.558
 30
0.0
 11
361.541
 21
111.226
 31
0.0
  0
LINE
  8
0
 62
     0
 10
361.541
 20
111.226
 30
0.0
 11
361.329
 21
110.807
 31
0.0
  0
LINE
  8
0
 62
     0
 10
361.329
 20
110.807
 30
0.0
 11
361.259
 21
110.344
 31
0.0
  0
LINE
  8
0
 62
     0
 10
361.259
 20
110.344
 30
0.0
 11
361.329
 21
109.881
 31
0.0
  0
LINE
  8
0
 62
     0
 10
361.329
 20
109.881
 30
0.0
 11
361.541
 21
109.462
 31
0.0
  0
LINE
  8
0
 62
     0
 10
361.541
 20
109.462
 30
0.0
 11
361.876
 21
109.13
 31
0.0
  0
LINE
  8
0
 62
     0
 10
361.876
 20
109.13
 30
0.0
 11
362.292
 21
108.919
 31
0.0
  0
LINE
  8
0
 62
     0
 10
362.292
 20
108.919
 30
0.0
 11
362.758
 21
108.844
 31
0.0
  0
LINE
  8
0
 62
     0
 10
362.758
 20
108.844
 30
0.0
 11
363.22
 21
108.919
 31
0.0
  0
LINE
  8
0
 62
     0
 10
363.22
 20
108.919
 30
0.0
 11
363.64
 21
109.13
 31
0.0
  0
LINE
  8
0
 62
     0
 10
363.64
 20
109.13
 30
0.0
 11
363.971
 21
109.462
 31
0.0
  0
LINE
  8
0
 62
     0
 10
363.971
 20
109.462
 30
0.0
 11
364.183
 21
109.881
 31
0.0
  0
LINE
  8
0
 62
     0
 10
364.183
 20
109.881
 30
0.0
 11
364.257
 21
110.344
 31
0.0
  0
LINE
  8
0
 62
     0
 10
364.257
 20
110.344
 30
0.0
 11
364.183
 21
110.807
 31
0.0
  0
LINE
  8
0
 62
     0
 10
364.183
 20
110.807
 30
0.0
 11
363.971
 21
111.226
 31
0.0
  0
LINE
  8
0
 62
     0
 10
363.971
 20
111.226
 30
0.0
 11
363.64
 21
111.558
 31
0.0
  0
LINE
  8
0
 62
     0
 10
363.64
 20
111.558
 30
0.0
 11
363.22
 21
111.77
 31
0.0
  0
LINE
  8
0
 62
     0
 10
363.22
 20
111.77
 30
0.0
 11
362.758
 21
111.843
 31
0.0
  0
LINE
  8
0
 62
     0
 10
362.758
 20
111.843
 30
0.0
 11
362.292
 21
111.77
 31
0.0
  0
LINE
  8
0
 62
     0
 10
4.63021
 20
111.77
 30
0.0
 11
4.21128
 21
111.558
 31
0.0
  0
LINE
  8
0
 62
     0
 10
4.21128
 20
111.558
 30
0.0
 11
3.87918
 21
111.226
 31
0.0
  0
LINE
  8
0
 62
     0
 10
3.87918
 20
111.226
 30
0.0
 11
3.66695
 21
110.807
 31
0.0
  0
LINE
  8
0
 62
     0
 10
3.66695
 20
110.807
 30
0.0
 11
3.59392
 21
110.344
 31
0.0
  0
LINE
  8
0
 62
     0
 10
3.59392
 20
110.344
 30
0.0
 11
3.66695
 21
109.881
 31
0.0
  0
LINE
  8
0
 62
     0
 10
3.66695
 20
109.881
 30
0.0
 11
3.87918
 21
109.462
 31
0.0
  0
LINE
  8
0
 62
     0
 10
3.87918
 20
109.462
 30
0.0
 11
4.21128
 21
109.13
 31
0.0
  0
LINE
  8
0
 62
     0
 10
4.21128
 20
109.13
 30
0.0
 11
4.63021
 21
108.919
 31
0.0
  0
LINE
  8
0
 62
     0
 10
4.63021
 20
108.919
 30
0.0
 11
5.09323
 21
108.844
 31
0.0
  0
LINE
  8
0
 62
     0
 10
5.09323
 20
108.844
 30
0.0
 11
5.55625
 21
108.919
 31
0.0
  0
LINE
  8
0
 62
     0
 10
5.55625
 20
108.919
 30
0.0
 11
5.97517
 21
109.13
 31
0.0
  0
LINE
  8
0
 62
     0
 10
5.97517
 20
109.13
 30
0.0
 11
6.30728
 21
109.462
 31
0.0
  0
LINE
  8
0
 62
     0
 10
6.30728
 20
109.462
 30
0.0
 11
6.51951
 21
109.881
 31
0.0
  0
LINE
  8
0
 62
     0
 10
6.51951
 20
109.881
 30
0.0
 11
6.59391
 21
110.344
 31
0.0
  0
LINE
  8
0
 62
     0
 10
6.59391
 20
110.344
 30
0.0
 11
6.51951
 21
110.807
 31
0.0
  0
LINE
  8
0
 62
     0
 10
6.51951
 20
110.807
 30
0.0
 11
6.30728
 21
111.226
 31
0.0
  0
LINE
  8
0
 62
     0
 10
6.30728
 20
111.226
 30
0.0
 11
5.97517
 21
111.558
 31
0.0
  0
LINE
  8
0
 62
     0
 10
5.97517
 20
111.558
 30
0.0
 11
5.55625
 21
111.77
 31
0.0
  0
LINE
  8
0
 62
     0
 10
5.55625
 20
111.77
 30
0.0
 11
5.09323
 21
111.843
 31
0.0
  0
LINE
  8
0
 62
     0
 10
5.09323
 20
111.843
 30
0.0
 11
4.63021
 21
111.77
 31
0.0
  0
ENDSEC
  0
EOF
