  0
SECTION
  2
HEADER
  9
$ACADVER
  1
AC1009
  9
$EXTMIN
 10
0.0
 20
0.0
 30
0.0
  9
$EXTMAX
 10
1000.0
 20
1000.0
 30
0.0
  9
$FILLMODE
 70
 0
  9
$SPLFRAME
 70
 1
  0
ENDSEC
  0
SECTION
  2
TABLES
  0
TABLE
  2
LAYER
 70
1
  0
LAYER
  2
0
 70
     0
 62
     7
  6
CONTINUOUS
  0
ENDTAB
  0
ENDSEC
  0
SECTION
  2
ENTITIES
  0
LINE
  8
0
 62
     0
 10
0.0937066
 20
115.343
 30
0.0
 11
367.757
 21
115.343
 31
0.0
  0
LINE
  8
0
 62
     0
 10
367.757
 20
115.343
 30
0.0
 11
367.757
 21
0.0937066
 31
0.0
  0
LINE
  8
0
 62
     0
 10
367.757
 20
0.0937066
 30
0.0
 11
0.0937066
 21
0.0937066
 31
0.0
  0
LINE
  8
0
 62
     0
 10
0.0937066
 20
0.0937066
 30
0.0
 11
0.0937066
 21
115.343
 31
0.0
  0
LINE
  8
0
 62
     0
 10
362.292
 20
6.51951
 30
0.0
 11
361.876
 21
6.3059
 31
0.0
  0
LINE
  8
0
 62
     0
 10
361.876
 20
6.3059
 30
0.0
 11
361.541
 21
5.9738
 31
0.0
  0
LINE
  8
0
 62
     0
 10
361.541
 20
5.9738
 30
0.0
 11
361.329
 21
5.55625
 31
0.0
  0
LINE
  8
0
 62
     0
 10
361.329
 20
5.55625
 30
0.0
 11
361.259
 21
5.09323
 31
0.0
  0
LINE
  8
0
 62
     0
 10
361.259
 20
5.09323
 30
0.0
 11
361.329
 21
4.62883
 31
0.0
  0
LINE
  8
0
 62
     0
 10
361.329
 20
4.62883
 30
0.0
 11
361.541
 21
4.21128
 31
0.0
  0
LINE
  8
0
 62
     0
 10
361.541
 20
4.21128
 30
0.0
 11
361.876
 21
3.87918
 31
0.0
  0
LINE
  8
0
 62
     0
 10
361.876
 20
3.87918
 30
0.0
 11
362.292
 21
3.66557
 31
0.0
  0
LINE
  8
0
 62
     0
 10
362.292
 20
3.66557
 30
0.0
 11
362.758
 21
3.59255
 31
0.0
  0
LINE
  8
0
 62
     0
 10
362.758
 20
3.59255
 30
0.0
 11
363.22
 21
3.66557
 31
0.0
  0
LINE
  8
0
 62
     0
 10
363.22
 20
3.66557
 30
0.0
 11
363.64
 21
3.87918
 31
0.0
  0
LINE
  8
0
 62
     0
 10
363.64
 20
3.87918
 30
0.0
 11
363.971
 21
4.21128
 31
0.0
  0
LINE
  8
0
 62
     0
 10
363.971
 20
4.21128
 30
0.0
 11
364.183
 21
4.62883
 31
0.0
  0
LINE
  8
0
 62
     0
 10
364.183
 20
4.62883
 30
0.0
 11
364.257
 21
5.09323
 31
0.0
  0
LINE
  8
0
 62
     0
 10
364.257
 20
5.09323
 30
0.0
 11
364.183
 21
5.55625
 31
0.0
  0
LINE
  8
0
 62
     0
 10
364.183
 20
5.55625
 30
0.0
 11
363.971
 21
5.9738
 31
0.0
  0
LINE
  8
0
 62
     0
 10
363.971
 20
5.9738
 30
0.0
 11
363.64
 21
6.3059
 31
0.0
  0
LINE
  8
0
 62
     0
 10
363.64
 20
6.3059
 30
0.0
 11
363.22
 21
6.51951
 31
0.0
  0
LINE
  8
0
 62
     0
 10
363.22
 20
6.51951
 30
0.0
 11
362.758
 21
6.59253
 31
0.0
  0
LINE
  8
0
 62
     0
 10
362.758
 20
6.59253
 30
0.0
 11
362.292
 21
6.51951
 31
0.0
  0
LINE
  8
0
 62
     0
 10
4.63021
 20
6.51951
 30
0.0
 11
4.21128
 21
6.3059
 31
0.0
  0
LINE
  8
0
 62
     0
 10
4.21128
 20
6.3059
 30
0.0
 11
3.87918
 21
5.9738
 31
0.0
  0
LINE
  8
0
 62
     0
 10
3.87918
 20
5.9738
 30
0.0
 11
3.66695
 21
5.55625
 31
0.0
  0
LINE
  8
0
 62
     0
 10
3.66695
 20
5.55625
 30
0.0
 11
3.59392
 21
5.09323
 31
0.0
  0
LINE
  8
0
 62
     0
 10
3.59392
 20
5.09323
 30
0.0
 11
3.66695
 21
4.62883
 31
0.0
  0
LINE
  8
0
 62
     0
 10
3.66695
 20
4.62883
 30
0.0
 11
3.87918
 21
4.21128
 31
0.0
  0
LINE
  8
0
 62
     0
 10
3.87918
 20
4.21128
 30
0.0
 11
4.21128
 21
3.87918
 31
0.0
  0
LINE
  8
0
 62
     0
 10
4.21128
 20
3.87918
 30
0.0
 11
4.63021
 21
3.66557
 31
0.0
  0
LINE
  8
0
 62
     0
 10
4.63021
 20
3.66557
 30
0.0
 11
5.09323
 21
3.59255
 31
0.0
  0
LINE
  8
0
 62
     0
 10
5.09323
 20
3.59255
 30
0.0
 11
5.55625
 21
3.66557
 31
0.0
  0
LINE
  8
0
 62
     0
 10
5.55625
 20
3.66557
 30
0.0
 11
5.97517
 21
3.87918
 31
0.0
  0
LINE
  8
0
 62
     0
 10
5.97517
 20
3.87918
 30
0.0
 11
6.30728
 21
4.21128
 31
0.0
  0
LINE
  8
0
 62
     0
 10
6.30728
 20
4.21128
 30
0.0
 11
6.51951
 21
4.62883
 31
0.0
  0
LINE
  8
0
 62
     0
 10
6.51951
 20
4.62883
 30
0.0
 11
6.59391
 21
5.09323
 31
0.0
  0
LINE
  8
0
 62
     0
 10
6.59391
 20
5.09323
 30
0.0
 11
6.51951
 21
5.55625
 31
0.0
  0
LINE
  8
0
 62
     0
 10
6.51951
 20
5.55625
 30
0.0
 11
6.30728
 21
5.9738
 31
0.0
  0
LINE
  8
0
 62
     0
 10
6.30728
 20
5.9738
 30
0.0
 11
5.97517
 21
6.3059
 31
0.0
  0
LINE
  8
0
 62
     0
 10
5.97517
 20
6.3059
 30
0.0
 11
5.55625
 21
6.51951
 31
0.0
  0
LINE
  8
0
 62
     0
 10
5.55625
 20
6.51951
 30
0.0
 11
5.09323
 21
6.59253
 31
0.0
  0
LINE
  8
0
 62
     0
 10
5.09323
 20
6.59253
 30
0.0
 11
4.63021
 21
6.51951
 31
0.0
  0
LINE
  8
0
 62
     0
 10
134.061
 20
26.6182
 30
0.0
 11
134.061
 21
25.6191
 31
0.0
  0
LINE
  8
0
 62
     0
 10
134.061
 20
25.6191
 30
0.0
 11
133.262
 21
25.6191
 31
0.0
  0
LINE
  8
0
 62
     0
 10
133.262
 20
25.6191
 30
0.0
 11
133.262
 21
22.5185
 31
0.0
  0
LINE
  8
0
 62
     0
 10
133.262
 20
22.5185
 30
0.0
 11
134.061
 21
22.5185
 31
0.0
  0
LINE
  8
0
 62
     0
 10
134.061
 20
22.5185
 30
0.0
 11
134.061
 21
21.9177
 31
0.0
  0
LINE
  8
0
 62
     0
 10
134.061
 20
21.9177
 30
0.0
 11
94.4369
 21
21.9177
 31
0.0
  0
LINE
  8
0
 62
     0
 10
94.4369
 20
21.9177
 30
0.0
 11
94.4369
 21
25.1478
 31
0.0
  0
LINE
  8
0
 62
     0
 10
94.4369
 20
25.1478
 30
0.0
 11
92.7118
 21
25.1478
 31
0.0
  0
LINE
  8
0
 62
     0
 10
92.7118
 20
25.1478
 30
0.0
 11
92.7118
 21
26.0697
 31
0.0
  0
LINE
  8
0
 62
     0
 10
92.7118
 20
26.0697
 30
0.0
 11
89.4112
 21
26.0697
 31
0.0
  0
LINE
  8
0
 62
     0
 10
89.4112
 20
26.0697
 30
0.0
 11
89.4112
 21
25.1478
 31
0.0
  0
LINE
  8
0
 62
     0
 10
89.4112
 20
25.1478
 30
0.0
 11
87.6875
 21
25.1478
 31
0.0
  0
LINE
  8
0
 62
     0
 10
87.6875
 20
25.1478
 30
0.0
 11
87.6875
 21
21.9177
 31
0.0
  0
LINE
  8
0
 62
     0
 10
87.6875
 20
21.9177
 30
0.0
 11
86.862
 21
21.9177
 31
0.0
  0
LINE
  8
0
 62
     0
 10
86.862
 20
21.9177
 30
0.0
 11
86.862
 21
19.1189
 31
0.0
  0
LINE
  8
0
 62
     0
 10
86.862
 20
19.1189
 30
0.0
 11
87.6875
 21
19.1189
 31
0.0
  0
LINE
  8
0
 62
     0
 10
87.6875
 20
19.1189
 30
0.0
 11
87.6875
 21
12.8488
 31
0.0
  0
LINE
  8
0
 62
     0
 10
87.6875
 20
12.8488
 30
0.0
 11
89.4112
 21
12.8488
 31
0.0
  0
LINE
  8
0
 62
     0
 10
89.4112
 20
12.8488
 30
0.0
 11
89.4112
 21
11.8677
 31
0.0
  0
LINE
  8
0
 62
     0
 10
89.4112
 20
11.8677
 30
0.0
 11
92.7118
 21
11.8677
 31
0.0
  0
LINE
  8
0
 62
     0
 10
92.7118
 20
11.8677
 30
0.0
 11
92.7118
 21
12.8488
 31
0.0
  0
LINE
  8
0
 62
     0
 10
92.7118
 20
12.8488
 30
0.0
 11
94.4369
 21
12.8488
 31
0.0
  0
LINE
  8
0
 62
     0
 10
94.4369
 20
12.8488
 30
0.0
 11
94.4369
 21
17.3192
 31
0.0
  0
LINE
  8
0
 62
     0
 10
94.4369
 20
17.3192
 30
0.0
 11
134.061
 21
17.3192
 31
0.0
  0
LINE
  8
0
 62
     0
 10
134.061
 20
17.3192
 30
0.0
 11
134.061
 21
16.7184
 31
0.0
  0
LINE
  8
0
 62
     0
 10
134.061
 20
16.7184
 30
0.0
 11
133.262
 21
16.7184
 31
0.0
  0
LINE
  8
0
 62
     0
 10
133.262
 20
16.7184
 30
0.0
 11
133.262
 21
13.6178
 31
0.0
  0
LINE
  8
0
 62
     0
 10
133.262
 20
13.6178
 30
0.0
 11
134.061
 21
13.6178
 31
0.0
  0
LINE
  8
0
 62
     0
 10
134.061
 20
13.6178
 30
0.0
 11
134.061
 21
12.6187
 31
0.0
  0
LINE
  8
0
 62
     0
 10
134.061
 20
12.6187
 30
0.0
 11
148.062
 21
12.6187
 31
0.0
  0
LINE
  8
0
 62
     0
 10
148.062
 20
12.6187
 30
0.0
 11
148.062
 21
13.6178
 31
0.0
  0
LINE
  8
0
 62
     0
 10
148.062
 20
13.6178
 30
0.0
 11
148.861
 21
13.6178
 31
0.0
  0
LINE
  8
0
 62
     0
 10
148.861
 20
13.6178
 30
0.0
 11
148.861
 21
16.7184
 31
0.0
  0
LINE
  8
0
 62
     0
 10
148.861
 20
16.7184
 30
0.0
 11
148.062
 21
16.7184
 31
0.0
  0
LINE
  8
0
 62
     0
 10
148.062
 20
16.7184
 30
0.0
 11
148.062
 21
17.3192
 31
0.0
  0
LINE
  8
0
 62
     0
 10
148.062
 20
17.3192
 30
0.0
 11
187.687
 21
17.3192
 31
0.0
  0
LINE
  8
0
 62
     0
 10
187.687
 20
17.3192
 30
0.0
 11
187.687
 21
12.8488
 31
0.0
  0
LINE
  8
0
 62
     0
 10
187.687
 20
12.8488
 30
0.0
 11
189.411
 21
12.8488
 31
0.0
  0
LINE
  8
0
 62
     0
 10
189.411
 20
12.8488
 30
0.0
 11
189.411
 21
11.8677
 31
0.0
  0
LINE
  8
0
 62
     0
 10
189.411
 20
11.8677
 30
0.0
 11
192.712
 21
11.8677
 31
0.0
  0
LINE
  8
0
 62
     0
 10
192.712
 20
11.8677
 30
0.0
 11
192.712
 21
12.8488
 31
0.0
  0
LINE
  8
0
 62
     0
 10
192.712
 20
12.8488
 30
0.0
 11
194.437
 21
12.8488
 31
0.0
  0
LINE
  8
0
 62
     0
 10
194.437
 20
12.8488
 30
0.0
 11
194.437
 21
19.1189
 31
0.0
  0
LINE
  8
0
 62
     0
 10
194.437
 20
19.1189
 30
0.0
 11
195.261
 21
19.1189
 31
0.0
  0
LINE
  8
0
 62
     0
 10
195.261
 20
19.1189
 30
0.0
 11
195.261
 21
21.9177
 31
0.0
  0
LINE
  8
0
 62
     0
 10
195.261
 20
21.9177
 30
0.0
 11
194.437
 21
21.9177
 31
0.0
  0
LINE
  8
0
 62
     0
 10
194.437
 20
21.9177
 30
0.0
 11
194.437
 21
25.1478
 31
0.0
  0
LINE
  8
0
 62
     0
 10
194.437
 20
25.1478
 30
0.0
 11
192.712
 21
25.1478
 31
0.0
  0
LINE
  8
0
 62
     0
 10
192.712
 20
25.1478
 30
0.0
 11
192.712
 21
26.0697
 31
0.0
  0
LINE
  8
0
 62
     0
 10
192.712
 20
26.0697
 30
0.0
 11
189.411
 21
26.0697
 31
0.0
  0
LINE
  8
0
 62
     0
 10
189.411
 20
26.0697
 30
0.0
 11
189.411
 21
25.1478
 31
0.0
  0
LINE
  8
0
 62
     0
 10
189.411
 20
25.1478
 30
0.0
 11
187.687
 21
25.1478
 31
0.0
  0
LINE
  8
0
 62
     0
 10
187.687
 20
25.1478
 30
0.0
 11
187.687
 21
21.9177
 31
0.0
  0
LINE
  8
0
 62
     0
 10
187.687
 20
21.9177
 30
0.0
 11
148.062
 21
21.9177
 31
0.0
  0
LINE
  8
0
 62
     0
 10
148.062
 20
21.9177
 30
0.0
 11
148.062
 21
22.5185
 31
0.0
  0
LINE
  8
0
 62
     0
 10
148.062
 20
22.5185
 30
0.0
 11
148.861
 21
22.5185
 31
0.0
  0
LINE
  8
0
 62
     0
 10
148.861
 20
22.5185
 30
0.0
 11
148.861
 21
25.6191
 31
0.0
  0
LINE
  8
0
 62
     0
 10
148.861
 20
25.6191
 30
0.0
 11
148.062
 21
25.6191
 31
0.0
  0
LINE
  8
0
 62
     0
 10
148.062
 20
25.6191
 30
0.0
 11
148.062
 21
26.6182
 31
0.0
  0
LINE
  8
0
 62
     0
 10
148.062
 20
26.6182
 30
0.0
 11
134.061
 21
26.6182
 31
0.0
  0
LINE
  8
0
 62
     0
 10
14.9999
 20
26.6182
 30
0.0
 11
14.9999
 21
25.6191
 31
0.0
  0
LINE
  8
0
 62
     0
 10
14.9999
 20
25.6191
 30
0.0
 11
14.1993
 21
25.6191
 31
0.0
  0
LINE
  8
0
 62
     0
 10
14.1993
 20
25.6191
 30
0.0
 11
14.1993
 21
22.5185
 31
0.0
  0
LINE
  8
0
 62
     0
 10
14.1993
 20
22.5185
 30
0.0
 11
14.9999
 21
22.5185
 31
0.0
  0
LINE
  8
0
 62
     0
 10
14.9999
 20
22.5185
 30
0.0
 11
14.9999
 21
16.7184
 31
0.0
  0
LINE
  8
0
 62
     0
 10
14.9999
 20
16.7184
 30
0.0
 11
14.1993
 21
16.7184
 31
0.0
  0
LINE
  8
0
 62
     0
 10
14.1993
 20
16.7184
 30
0.0
 11
14.1993
 21
13.6178
 31
0.0
  0
LINE
  8
0
 62
     0
 10
14.1993
 20
13.6178
 30
0.0
 11
14.9999
 21
13.6178
 31
0.0
  0
LINE
  8
0
 62
     0
 10
14.9999
 20
13.6178
 30
0.0
 11
14.9999
 21
12.6187
 31
0.0
  0
LINE
  8
0
 62
     0
 10
14.9999
 20
12.6187
 30
0.0
 11
28.9994
 21
12.6187
 31
0.0
  0
LINE
  8
0
 62
     0
 10
28.9994
 20
12.6187
 30
0.0
 11
28.9994
 21
13.6178
 31
0.0
  0
LINE
  8
0
 62
     0
 10
28.9994
 20
13.6178
 30
0.0
 11
29.8001
 21
13.6178
 31
0.0
  0
LINE
  8
0
 62
     0
 10
29.8001
 20
13.6178
 30
0.0
 11
29.8001
 21
16.7184
 31
0.0
  0
LINE
  8
0
 62
     0
 10
29.8001
 20
16.7184
 30
0.0
 11
28.9994
 21
16.7184
 31
0.0
  0
LINE
  8
0
 62
     0
 10
28.9994
 20
16.7184
 30
0.0
 11
28.9994
 21
22.5185
 31
0.0
  0
LINE
  8
0
 62
     0
 10
28.9994
 20
22.5185
 30
0.0
 11
29.8001
 21
22.5185
 31
0.0
  0
LINE
  8
0
 62
     0
 10
29.8001
 20
22.5185
 30
0.0
 11
29.8001
 21
25.6191
 31
0.0
  0
LINE
  8
0
 62
     0
 10
29.8001
 20
25.6191
 30
0.0
 11
28.9994
 21
25.6191
 31
0.0
  0
LINE
  8
0
 62
     0
 10
28.9994
 20
25.6191
 30
0.0
 11
28.9994
 21
26.6182
 31
0.0
  0
LINE
  8
0
 62
     0
 10
28.9994
 20
26.6182
 30
0.0
 11
14.9999
 21
26.6182
 31
0.0
  0
LINE
  8
0
 62
     0
 10
38.8112
 20
26.6182
 30
0.0
 11
38.8112
 21
25.6191
 31
0.0
  0
LINE
  8
0
 62
     0
 10
38.8112
 20
25.6191
 30
0.0
 11
38.0118
 21
25.6191
 31
0.0
  0
LINE
  8
0
 62
     0
 10
38.0118
 20
25.6191
 30
0.0
 11
38.0118
 21
22.5185
 31
0.0
  0
LINE
  8
0
 62
     0
 10
38.0118
 20
22.5185
 30
0.0
 11
38.8112
 21
22.5185
 31
0.0
  0
LINE
  8
0
 62
     0
 10
38.8112
 20
22.5185
 30
0.0
 11
38.8112
 21
16.7184
 31
0.0
  0
LINE
  8
0
 62
     0
 10
38.8112
 20
16.7184
 30
0.0
 11
38.0118
 21
16.7184
 31
0.0
  0
LINE
  8
0
 62
     0
 10
38.0118
 20
16.7184
 30
0.0
 11
38.0118
 21
13.6178
 31
0.0
  0
LINE
  8
0
 62
     0
 10
38.0118
 20
13.6178
 30
0.0
 11
38.8112
 21
13.6178
 31
0.0
  0
LINE
  8
0
 62
     0
 10
38.8112
 20
13.6178
 30
0.0
 11
38.8112
 21
12.6187
 31
0.0
  0
LINE
  8
0
 62
     0
 10
38.8112
 20
12.6187
 30
0.0
 11
52.8119
 21
12.6187
 31
0.0
  0
LINE
  8
0
 62
     0
 10
52.8119
 20
12.6187
 30
0.0
 11
52.8119
 21
13.6178
 31
0.0
  0
LINE
  8
0
 62
     0
 10
52.8119
 20
13.6178
 30
0.0
 11
53.6113
 21
13.6178
 31
0.0
  0
LINE
  8
0
 62
     0
 10
53.6113
 20
13.6178
 30
0.0
 11
53.6113
 21
16.7184
 31
0.0
  0
LINE
  8
0
 62
     0
 10
53.6113
 20
16.7184
 30
0.0
 11
52.8119
 21
16.7184
 31
0.0
  0
LINE
  8
0
 62
     0
 10
52.8119
 20
16.7184
 30
0.0
 11
52.8119
 21
22.5185
 31
0.0
  0
LINE
  8
0
 62
     0
 10
52.8119
 20
22.5185
 30
0.0
 11
53.6113
 21
22.5185
 31
0.0
  0
LINE
  8
0
 62
     0
 10
53.6113
 20
22.5185
 30
0.0
 11
53.6113
 21
25.6191
 31
0.0
  0
LINE
  8
0
 62
     0
 10
53.6113
 20
25.6191
 30
0.0
 11
52.8119
 21
25.6191
 31
0.0
  0
LINE
  8
0
 62
     0
 10
52.8119
 20
25.6191
 30
0.0
 11
52.8119
 21
26.6182
 31
0.0
  0
LINE
  8
0
 62
     0
 10
52.8119
 20
26.6182
 30
0.0
 11
38.8112
 21
26.6182
 31
0.0
  0
LINE
  8
0
 62
     0
 10
62.6251
 20
26.6182
 30
0.0
 11
62.6251
 21
25.6191
 31
0.0
  0
LINE
  8
0
 62
     0
 10
62.6251
 20
25.6191
 30
0.0
 11
61.8243
 21
25.6191
 31
0.0
  0
LINE
  8
0
 62
     0
 10
61.8243
 20
25.6191
 30
0.0
 11
61.8243
 21
22.5185
 31
0.0
  0
LINE
  8
0
 62
     0
 10
61.8243
 20
22.5185
 30
0.0
 11
62.6251
 21
22.5185
 31
0.0
  0
LINE
  8
0
 62
     0
 10
62.6251
 20
22.5185
 30
0.0
 11
62.6251
 21
16.7184
 31
0.0
  0
LINE
  8
0
 62
     0
 10
62.6251
 20
16.7184
 30
0.0
 11
61.8243
 21
16.7184
 31
0.0
  0
LINE
  8
0
 62
     0
 10
61.8243
 20
16.7184
 30
0.0
 11
61.8243
 21
13.6178
 31
0.0
  0
LINE
  8
0
 62
     0
 10
61.8243
 20
13.6178
 30
0.0
 11
62.6251
 21
13.6178
 31
0.0
  0
LINE
  8
0
 62
     0
 10
62.6251
 20
13.6178
 30
0.0
 11
62.6251
 21
12.6187
 31
0.0
  0
LINE
  8
0
 62
     0
 10
62.6251
 20
12.6187
 30
0.0
 11
76.6244
 21
12.6187
 31
0.0
  0
LINE
  8
0
 62
     0
 10
76.6244
 20
12.6187
 30
0.0
 11
76.6244
 21
13.6178
 31
0.0
  0
LINE
  8
0
 62
     0
 10
76.6244
 20
13.6178
 30
0.0
 11
77.4252
 21
13.6178
 31
0.0
  0
LINE
  8
0
 62
     0
 10
77.4252
 20
13.6178
 30
0.0
 11
77.4252
 21
16.7184
 31
0.0
  0
LINE
  8
0
 62
     0
 10
77.4252
 20
16.7184
 30
0.0
 11
76.6244
 21
16.7184
 31
0.0
  0
LINE
  8
0
 62
     0
 10
76.6244
 20
16.7184
 30
0.0
 11
76.6244
 21
22.5185
 31
0.0
  0
LINE
  8
0
 62
     0
 10
76.6244
 20
22.5185
 30
0.0
 11
77.4252
 21
22.5185
 31
0.0
  0
LINE
  8
0
 62
     0
 10
77.4252
 20
22.5185
 30
0.0
 11
77.4252
 21
25.6191
 31
0.0
  0
LINE
  8
0
 62
     0
 10
77.4252
 20
25.6191
 30
0.0
 11
76.6244
 21
25.6191
 31
0.0
  0
LINE
  8
0
 62
     0
 10
76.6244
 20
25.6191
 30
0.0
 11
76.6244
 21
26.6182
 31
0.0
  0
LINE
  8
0
 62
     0
 10
76.6244
 20
26.6182
 30
0.0
 11
62.6251
 21
26.6182
 31
0.0
  0
LINE
  8
0
 62
     0
 10
205.5
 20
26.6182
 30
0.0
 11
205.5
 21
25.6191
 31
0.0
  0
LINE
  8
0
 62
     0
 10
205.5
 20
25.6191
 30
0.0
 11
204.699
 21
25.6191
 31
0.0
  0
LINE
  8
0
 62
     0
 10
204.699
 20
25.6191
 30
0.0
 11
204.699
 21
22.5185
 31
0.0
  0
LINE
  8
0
 62
     0
 10
204.699
 20
22.5185
 30
0.0
 11
205.5
 21
22.5185
 31
0.0
  0
LINE
  8
0
 62
     0
 10
205.5
 20
22.5185
 30
0.0
 11
205.5
 21
16.7184
 31
0.0
  0
LINE
  8
0
 62
     0
 10
205.5
 20
16.7184
 30
0.0
 11
204.699
 21
16.7184
 31
0.0
  0
LINE
  8
0
 62
     0
 10
204.699
 20
16.7184
 30
0.0
 11
204.699
 21
13.6178
 31
0.0
  0
LINE
  8
0
 62
     0
 10
204.699
 20
13.6178
 30
0.0
 11
205.5
 21
13.6178
 31
0.0
  0
LINE
  8
0
 62
     0
 10
205.5
 20
13.6178
 30
0.0
 11
205.5
 21
12.6187
 31
0.0
  0
LINE
  8
0
 62
     0
 10
205.5
 20
12.6187
 30
0.0
 11
219.499
 21
12.6187
 31
0.0
  0
LINE
  8
0
 62
     0
 10
219.499
 20
12.6187
 30
0.0
 11
219.499
 21
13.6178
 31
0.0
  0
LINE
  8
0
 62
     0
 10
219.499
 20
13.6178
 30
0.0
 11
220.3
 21
13.6178
 31
0.0
  0
LINE
  8
0
 62
     0
 10
220.3
 20
13.6178
 30
0.0
 11
220.3
 21
16.7184
 31
0.0
  0
LINE
  8
0
 62
     0
 10
220.3
 20
16.7184
 30
0.0
 11
219.499
 21
16.7184
 31
0.0
  0
LINE
  8
0
 62
     0
 10
219.499
 20
16.7184
 30
0.0
 11
219.499
 21
22.5185
 31
0.0
  0
LINE
  8
0
 62
     0
 10
219.499
 20
22.5185
 30
0.0
 11
220.3
 21
22.5185
 31
0.0
  0
LINE
  8
0
 62
     0
 10
220.3
 20
22.5185
 30
0.0
 11
220.3
 21
25.6191
 31
0.0
  0
LINE
  8
0
 62
     0
 10
220.3
 20
25.6191
 30
0.0
 11
219.499
 21
25.6191
 31
0.0
  0
LINE
  8
0
 62
     0
 10
219.499
 20
25.6191
 30
0.0
 11
219.499
 21
26.6182
 31
0.0
  0
LINE
  8
0
 62
     0
 10
219.499
 20
26.6182
 30
0.0
 11
205.5
 21
26.6182
 31
0.0
  0
LINE
  8
0
 62
     0
 10
229.311
 20
26.6182
 30
0.0
 11
229.311
 21
25.6191
 31
0.0
  0
LINE
  8
0
 62
     0
 10
229.311
 20
25.6191
 30
0.0
 11
228.512
 21
25.6191
 31
0.0
  0
LINE
  8
0
 62
     0
 10
228.512
 20
25.6191
 30
0.0
 11
228.512
 21
22.5185
 31
0.0
  0
LINE
  8
0
 62
     0
 10
228.512
 20
22.5185
 30
0.0
 11
229.311
 21
22.5185
 31
0.0
  0
LINE
  8
0
 62
     0
 10
229.311
 20
22.5185
 30
0.0
 11
229.311
 21
16.7184
 31
0.0
  0
LINE
  8
0
 62
     0
 10
229.311
 20
16.7184
 30
0.0
 11
228.512
 21
16.7184
 31
0.0
  0
LINE
  8
0
 62
     0
 10
228.512
 20
16.7184
 30
0.0
 11
228.512
 21
13.6178
 31
0.0
  0
LINE
  8
0
 62
     0
 10
228.512
 20
13.6178
 30
0.0
 11
229.311
 21
13.6178
 31
0.0
  0
LINE
  8
0
 62
     0
 10
229.311
 20
13.6178
 30
0.0
 11
229.311
 21
12.6187
 31
0.0
  0
LINE
  8
0
 62
     0
 10
229.311
 20
12.6187
 30
0.0
 11
243.312
 21
12.6187
 31
0.0
  0
LINE
  8
0
 62
     0
 10
243.312
 20
12.6187
 30
0.0
 11
243.312
 21
13.6178
 31
0.0
  0
LINE
  8
0
 62
     0
 10
243.312
 20
13.6178
 30
0.0
 11
244.111
 21
13.6178
 31
0.0
  0
LINE
  8
0
 62
     0
 10
244.111
 20
13.6178
 30
0.0
 11
244.111
 21
16.7184
 31
0.0
  0
LINE
  8
0
 62
     0
 10
244.111
 20
16.7184
 30
0.0
 11
243.312
 21
16.7184
 31
0.0
  0
LINE
  8
0
 62
     0
 10
243.312
 20
16.7184
 30
0.0
 11
243.312
 21
22.5185
 31
0.0
  0
LINE
  8
0
 62
     0
 10
243.312
 20
22.5185
 30
0.0
 11
244.111
 21
22.5185
 31
0.0
  0
LINE
  8
0
 62
     0
 10
244.111
 20
22.5185
 30
0.0
 11
244.111
 21
25.6191
 31
0.0
  0
LINE
  8
0
 62
     0
 10
244.111
 20
25.6191
 30
0.0
 11
243.312
 21
25.6191
 31
0.0
  0
LINE
  8
0
 62
     0
 10
243.312
 20
25.6191
 30
0.0
 11
243.312
 21
26.6182
 31
0.0
  0
LINE
  8
0
 62
     0
 10
243.312
 20
26.6182
 30
0.0
 11
229.311
 21
26.6182
 31
0.0
  0
LINE
  8
0
 62
     0
 10
253.125
 20
26.6182
 30
0.0
 11
253.125
 21
25.6191
 31
0.0
  0
LINE
  8
0
 62
     0
 10
253.125
 20
25.6191
 30
0.0
 11
252.324
 21
25.6191
 31
0.0
  0
LINE
  8
0
 62
     0
 10
252.324
 20
25.6191
 30
0.0
 11
252.324
 21
22.5185
 31
0.0
  0
LINE
  8
0
 62
     0
 10
252.324
 20
22.5185
 30
0.0
 11
253.125
 21
22.5185
 31
0.0
  0
LINE
  8
0
 62
     0
 10
253.125
 20
22.5185
 30
0.0
 11
253.125
 21
16.7184
 31
0.0
  0
LINE
  8
0
 62
     0
 10
253.125
 20
16.7184
 30
0.0
 11
252.324
 21
16.7184
 31
0.0
  0
LINE
  8
0
 62
     0
 10
252.324
 20
16.7184
 30
0.0
 11
252.324
 21
13.6178
 31
0.0
  0
LINE
  8
0
 62
     0
 10
252.324
 20
13.6178
 30
0.0
 11
253.125
 21
13.6178
 31
0.0
  0
LINE
  8
0
 62
     0
 10
253.125
 20
13.6178
 30
0.0
 11
253.125
 21
12.6187
 31
0.0
  0
LINE
  8
0
 62
     0
 10
253.125
 20
12.6187
 30
0.0
 11
267.124
 21
12.6187
 31
0.0
  0
LINE
  8
0
 62
     0
 10
267.124
 20
12.6187
 30
0.0
 11
267.124
 21
13.6178
 31
0.0
  0
LINE
  8
0
 62
     0
 10
267.124
 20
13.6178
 30
0.0
 11
267.925
 21
13.6178
 31
0.0
  0
LINE
  8
0
 62
     0
 10
267.925
 20
13.6178
 30
0.0
 11
267.925
 21
16.7184
 31
0.0
  0
LINE
  8
0
 62
     0
 10
267.925
 20
16.7184
 30
0.0
 11
267.124
 21
16.7184
 31
0.0
  0
LINE
  8
0
 62
     0
 10
267.124
 20
16.7184
 30
0.0
 11
267.124
 21
22.5185
 31
0.0
  0
LINE
  8
0
 62
     0
 10
267.124
 20
22.5185
 30
0.0
 11
267.925
 21
22.5185
 31
0.0
  0
LINE
  8
0
 62
     0
 10
267.925
 20
22.5185
 30
0.0
 11
267.925
 21
25.6191
 31
0.0
  0
LINE
  8
0
 62
     0
 10
267.925
 20
25.6191
 30
0.0
 11
267.124
 21
25.6191
 31
0.0
  0
LINE
  8
0
 62
     0
 10
267.124
 20
25.6191
 30
0.0
 11
267.124
 21
26.6182
 31
0.0
  0
LINE
  8
0
 62
     0
 10
267.124
 20
26.6182
 30
0.0
 11
253.125
 21
26.6182
 31
0.0
  0
LINE
  8
0
 62
     0
 10
276.938
 20
26.6182
 30
0.0
 11
276.938
 21
25.6191
 31
0.0
  0
LINE
  8
0
 62
     0
 10
276.938
 20
25.6191
 30
0.0
 11
276.137
 21
25.6191
 31
0.0
  0
LINE
  8
0
 62
     0
 10
276.137
 20
25.6191
 30
0.0
 11
276.137
 21
22.5185
 31
0.0
  0
LINE
  8
0
 62
     0
 10
276.137
 20
22.5185
 30
0.0
 11
276.938
 21
22.5185
 31
0.0
  0
LINE
  8
0
 62
     0
 10
276.938
 20
22.5185
 30
0.0
 11
276.938
 21
16.7184
 31
0.0
  0
LINE
  8
0
 62
     0
 10
276.938
 20
16.7184
 30
0.0
 11
276.137
 21
16.7184
 31
0.0
  0
LINE
  8
0
 62
     0
 10
276.137
 20
16.7184
 30
0.0
 11
276.137
 21
13.6178
 31
0.0
  0
LINE
  8
0
 62
     0
 10
276.137
 20
13.6178
 30
0.0
 11
276.938
 21
13.6178
 31
0.0
  0
LINE
  8
0
 62
     0
 10
276.938
 20
13.6178
 30
0.0
 11
276.938
 21
12.6187
 31
0.0
  0
LINE
  8
0
 62
     0
 10
276.938
 20
12.6187
 30
0.0
 11
290.937
 21
12.6187
 31
0.0
  0
LINE
  8
0
 62
     0
 10
290.937
 20
12.6187
 30
0.0
 11
290.937
 21
13.6178
 31
0.0
  0
LINE
  8
0
 62
     0
 10
290.937
 20
13.6178
 30
0.0
 11
291.736
 21
13.6178
 31
0.0
  0
LINE
  8
0
 62
     0
 10
291.736
 20
13.6178
 30
0.0
 11
291.736
 21
16.7184
 31
0.0
  0
LINE
  8
0
 62
     0
 10
291.736
 20
16.7184
 30
0.0
 11
290.937
 21
16.7184
 31
0.0
  0
LINE
  8
0
 62
     0
 10
290.937
 20
16.7184
 30
0.0
 11
290.937
 21
22.5185
 31
0.0
  0
LINE
  8
0
 62
     0
 10
290.937
 20
22.5185
 30
0.0
 11
291.736
 21
22.5185
 31
0.0
  0
LINE
  8
0
 62
     0
 10
291.736
 20
22.5185
 30
0.0
 11
291.736
 21
25.6191
 31
0.0
  0
LINE
  8
0
 62
     0
 10
291.736
 20
25.6191
 30
0.0
 11
290.937
 21
25.6191
 31
0.0
  0
LINE
  8
0
 62
     0
 10
290.937
 20
25.6191
 30
0.0
 11
290.937
 21
26.6182
 31
0.0
  0
LINE
  8
0
 62
     0
 10
290.937
 20
26.6182
 30
0.0
 11
276.938
 21
26.6182
 31
0.0
  0
LINE
  8
0
 62
     0
 10
303.131
 20
26.6182
 30
0.0
 11
303.131
 21
25.6191
 31
0.0
  0
LINE
  8
0
 62
     0
 10
303.131
 20
25.6191
 30
0.0
 11
302.331
 21
25.6191
 31
0.0
  0
LINE
  8
0
 62
     0
 10
302.331
 20
25.6191
 30
0.0
 11
302.331
 21
22.5185
 31
0.0
  0
LINE
  8
0
 62
     0
 10
302.331
 20
22.5185
 30
0.0
 11
303.131
 21
22.5185
 31
0.0
  0
LINE
  8
0
 62
     0
 10
303.131
 20
22.5185
 30
0.0
 11
303.131
 21
16.7184
 31
0.0
  0
LINE
  8
0
 62
     0
 10
303.131
 20
16.7184
 30
0.0
 11
302.331
 21
16.7184
 31
0.0
  0
LINE
  8
0
 62
     0
 10
302.331
 20
16.7184
 30
0.0
 11
302.331
 21
13.6178
 31
0.0
  0
LINE
  8
0
 62
     0
 10
302.331
 20
13.6178
 30
0.0
 11
303.131
 21
13.6178
 31
0.0
  0
LINE
  8
0
 62
     0
 10
303.131
 20
13.6178
 30
0.0
 11
303.131
 21
12.6187
 31
0.0
  0
LINE
  8
0
 62
     0
 10
303.131
 20
12.6187
 30
0.0
 11
317.131
 21
12.6187
 31
0.0
  0
LINE
  8
0
 62
     0
 10
317.131
 20
12.6187
 30
0.0
 11
317.131
 21
13.6178
 31
0.0
  0
LINE
  8
0
 62
     0
 10
317.131
 20
13.6178
 30
0.0
 11
317.931
 21
13.6178
 31
0.0
  0
LINE
  8
0
 62
     0
 10
317.931
 20
13.6178
 30
0.0
 11
317.931
 21
16.7184
 31
0.0
  0
LINE
  8
0
 62
     0
 10
317.931
 20
16.7184
 30
0.0
 11
317.131
 21
16.7184
 31
0.0
  0
LINE
  8
0
 62
     0
 10
317.131
 20
16.7184
 30
0.0
 11
317.131
 21
22.5185
 31
0.0
  0
LINE
  8
0
 62
     0
 10
317.131
 20
22.5185
 30
0.0
 11
317.931
 21
22.5185
 31
0.0
  0
LINE
  8
0
 62
     0
 10
317.931
 20
22.5185
 30
0.0
 11
317.931
 21
25.6191
 31
0.0
  0
LINE
  8
0
 62
     0
 10
317.931
 20
25.6191
 30
0.0
 11
317.131
 21
25.6191
 31
0.0
  0
LINE
  8
0
 62
     0
 10
317.131
 20
25.6191
 30
0.0
 11
317.131
 21
26.6182
 31
0.0
  0
LINE
  8
0
 62
     0
 10
317.131
 20
26.6182
 30
0.0
 11
303.131
 21
26.6182
 31
0.0
  0
LINE
  8
0
 62
     0
 10
322.181
 20
26.6182
 30
0.0
 11
322.181
 21
25.6191
 31
0.0
  0
LINE
  8
0
 62
     0
 10
322.181
 20
25.6191
 30
0.0
 11
321.381
 21
25.6191
 31
0.0
  0
LINE
  8
0
 62
     0
 10
321.381
 20
25.6191
 30
0.0
 11
321.381
 21
22.5185
 31
0.0
  0
LINE
  8
0
 62
     0
 10
321.381
 20
22.5185
 30
0.0
 11
322.181
 21
22.5185
 31
0.0
  0
LINE
  8
0
 62
     0
 10
322.181
 20
22.5185
 30
0.0
 11
322.181
 21
16.7184
 31
0.0
  0
LINE
  8
0
 62
     0
 10
322.181
 20
16.7184
 30
0.0
 11
321.381
 21
16.7184
 31
0.0
  0
LINE
  8
0
 62
     0
 10
321.381
 20
16.7184
 30
0.0
 11
321.381
 21
13.6178
 31
0.0
  0
LINE
  8
0
 62
     0
 10
321.381
 20
13.6178
 30
0.0
 11
322.181
 21
13.6178
 31
0.0
  0
LINE
  8
0
 62
     0
 10
322.181
 20
13.6178
 30
0.0
 11
322.181
 21
12.6187
 31
0.0
  0
LINE
  8
0
 62
     0
 10
322.181
 20
12.6187
 30
0.0
 11
336.181
 21
12.6187
 31
0.0
  0
LINE
  8
0
 62
     0
 10
336.181
 20
12.6187
 30
0.0
 11
336.181
 21
13.6178
 31
0.0
  0
LINE
  8
0
 62
     0
 10
336.181
 20
13.6178
 30
0.0
 11
336.981
 21
13.6178
 31
0.0
  0
LINE
  8
0
 62
     0
 10
336.981
 20
13.6178
 30
0.0
 11
336.981
 21
16.7184
 31
0.0
  0
LINE
  8
0
 62
     0
 10
336.981
 20
16.7184
 30
0.0
 11
336.181
 21
16.7184
 31
0.0
  0
LINE
  8
0
 62
     0
 10
336.181
 20
16.7184
 30
0.0
 11
336.181
 21
22.5185
 31
0.0
  0
LINE
  8
0
 62
     0
 10
336.181
 20
22.5185
 30
0.0
 11
336.981
 21
22.5185
 31
0.0
  0
LINE
  8
0
 62
     0
 10
336.981
 20
22.5185
 30
0.0
 11
336.981
 21
25.6191
 31
0.0
  0
LINE
  8
0
 62
     0
 10
336.981
 20
25.6191
 30
0.0
 11
336.181
 21
25.6191
 31
0.0
  0
LINE
  8
0
 62
     0
 10
336.181
 20
25.6191
 30
0.0
 11
336.181
 21
26.6182
 31
0.0
  0
LINE
  8
0
 62
     0
 10
336.181
 20
26.6182
 30
0.0
 11
322.181
 21
26.6182
 31
0.0
  0
LINE
  8
0
 62
     0
 10
341.231
 20
26.6182
 30
0.0
 11
341.231
 21
25.6191
 31
0.0
  0
LINE
  8
0
 62
     0
 10
341.231
 20
25.6191
 30
0.0
 11
340.431
 21
25.6191
 31
0.0
  0
LINE
  8
0
 62
     0
 10
340.431
 20
25.6191
 30
0.0
 11
340.431
 21
22.5185
 31
0.0
  0
LINE
  8
0
 62
     0
 10
340.431
 20
22.5185
 30
0.0
 11
341.231
 21
22.5185
 31
0.0
  0
LINE
  8
0
 62
     0
 10
341.231
 20
22.5185
 30
0.0
 11
341.231
 21
16.7184
 31
0.0
  0
LINE
  8
0
 62
     0
 10
341.231
 20
16.7184
 30
0.0
 11
340.431
 21
16.7184
 31
0.0
  0
LINE
  8
0
 62
     0
 10
340.431
 20
16.7184
 30
0.0
 11
340.431
 21
13.6178
 31
0.0
  0
LINE
  8
0
 62
     0
 10
340.431
 20
13.6178
 30
0.0
 11
341.231
 21
13.6178
 31
0.0
  0
LINE
  8
0
 62
     0
 10
341.231
 20
13.6178
 30
0.0
 11
341.231
 21
12.6187
 31
0.0
  0
LINE
  8
0
 62
     0
 10
341.231
 20
12.6187
 30
0.0
 11
355.23
 21
12.6187
 31
0.0
  0
LINE
  8
0
 62
     0
 10
355.23
 20
12.6187
 30
0.0
 11
355.23
 21
13.6178
 31
0.0
  0
LINE
  8
0
 62
     0
 10
355.23
 20
13.6178
 30
0.0
 11
356.03
 21
13.6178
 31
0.0
  0
LINE
  8
0
 62
     0
 10
356.03
 20
13.6178
 30
0.0
 11
356.03
 21
16.7184
 31
0.0
  0
LINE
  8
0
 62
     0
 10
356.03
 20
16.7184
 30
0.0
 11
355.23
 21
16.7184
 31
0.0
  0
LINE
  8
0
 62
     0
 10
355.23
 20
16.7184
 30
0.0
 11
355.23
 21
22.5185
 31
0.0
  0
LINE
  8
0
 62
     0
 10
355.23
 20
22.5185
 30
0.0
 11
356.03
 21
22.5185
 31
0.0
  0
LINE
  8
0
 62
     0
 10
356.03
 20
22.5185
 30
0.0
 11
356.03
 21
25.6191
 31
0.0
  0
LINE
  8
0
 62
     0
 10
356.03
 20
25.6191
 30
0.0
 11
355.23
 21
25.6191
 31
0.0
  0
LINE
  8
0
 62
     0
 10
355.23
 20
25.6191
 30
0.0
 11
355.23
 21
26.6182
 31
0.0
  0
LINE
  8
0
 62
     0
 10
355.23
 20
26.6182
 30
0.0
 11
341.231
 21
26.6182
 31
0.0
  0
LINE
  8
0
 62
     0
 10
24.5249
 20
45.6681
 30
0.0
 11
24.5249
 21
44.6691
 31
0.0
  0
LINE
  8
0
 62
     0
 10
24.5249
 20
44.6691
 30
0.0
 11
23.7243
 21
44.6691
 31
0.0
  0
LINE
  8
0
 62
     0
 10
23.7243
 20
44.6691
 30
0.0
 11
23.7243
 21
41.5685
 31
0.0
  0
LINE
  8
0
 62
     0
 10
23.7243
 20
41.5685
 30
0.0
 11
24.5249
 21
41.5685
 31
0.0
  0
LINE
  8
0
 62
     0
 10
24.5249
 20
41.5685
 30
0.0
 11
24.5249
 21
40.9677
 31
0.0
  0
LINE
  8
0
 62
     0
 10
24.5249
 20
40.9677
 30
0.0
 11
22.9995
 21
40.9677
 31
0.0
  0
LINE
  8
0
 62
     0
 10
22.9995
 20
40.9677
 30
0.0
 11
22.9995
 21
44.1978
 31
0.0
  0
LINE
  8
0
 62
     0
 10
22.9995
 20
44.1978
 30
0.0
 11
21.2742
 21
44.1978
 31
0.0
  0
LINE
  8
0
 62
     0
 10
21.2742
 20
44.1978
 30
0.0
 11
21.2742
 21
45.1185
 31
0.0
  0
LINE
  8
0
 62
     0
 10
21.2742
 20
45.1185
 30
0.0
 11
17.9751
 21
45.1185
 31
0.0
  0
LINE
  8
0
 62
     0
 10
17.9751
 20
45.1185
 30
0.0
 11
17.9751
 21
44.1978
 31
0.0
  0
LINE
  8
0
 62
     0
 10
17.9751
 20
44.1978
 30
0.0
 11
16.2498
 21
44.1978
 31
0.0
  0
LINE
  8
0
 62
     0
 10
16.2498
 20
44.1978
 30
0.0
 11
16.2498
 21
40.9677
 31
0.0
  0
LINE
  8
0
 62
     0
 10
16.2498
 20
40.9677
 30
0.0
 11
15.4244
 21
40.9677
 31
0.0
  0
LINE
  8
0
 62
     0
 10
15.4244
 20
40.9677
 30
0.0
 11
15.4244
 21
38.1688
 31
0.0
  0
LINE
  8
0
 62
     0
 10
15.4244
 20
38.1688
 30
0.0
 11
16.2498
 21
38.1688
 31
0.0
  0
LINE
  8
0
 62
     0
 10
16.2498
 20
38.1688
 30
0.0
 11
16.2498
 21
31.8975
 31
0.0
  0
LINE
  8
0
 62
     0
 10
16.2498
 20
31.8975
 30
0.0
 11
17.9751
 21
31.8975
 31
0.0
  0
LINE
  8
0
 62
     0
 10
17.9751
 20
31.8975
 30
0.0
 11
17.9751
 21
30.9177
 31
0.0
  0
LINE
  8
0
 62
     0
 10
17.9751
 20
30.9177
 30
0.0
 11
21.2742
 21
30.9177
 31
0.0
  0
LINE
  8
0
 62
     0
 10
21.2742
 20
30.9177
 30
0.0
 11
21.2742
 21
31.8975
 31
0.0
  0
LINE
  8
0
 62
     0
 10
21.2742
 20
31.8975
 30
0.0
 11
22.9995
 21
31.8975
 31
0.0
  0
LINE
  8
0
 62
     0
 10
22.9995
 20
31.8975
 30
0.0
 11
22.9995
 21
36.3679
 31
0.0
  0
LINE
  8
0
 62
     0
 10
22.9995
 20
36.3679
 30
0.0
 11
24.5249
 21
36.3679
 31
0.0
  0
LINE
  8
0
 62
     0
 10
24.5249
 20
36.3679
 30
0.0
 11
24.5249
 21
35.7685
 31
0.0
  0
LINE
  8
0
 62
     0
 10
24.5249
 20
35.7685
 30
0.0
 11
23.7243
 21
35.7685
 31
0.0
  0
LINE
  8
0
 62
     0
 10
23.7243
 20
35.7685
 30
0.0
 11
23.7243
 21
32.6678
 31
0.0
  0
LINE
  8
0
 62
     0
 10
23.7243
 20
32.6678
 30
0.0
 11
24.5249
 21
32.6678
 31
0.0
  0
LINE
  8
0
 62
     0
 10
24.5249
 20
32.6678
 30
0.0
 11
24.5249
 21
31.6687
 31
0.0
  0
LINE
  8
0
 62
     0
 10
24.5249
 20
31.6687
 30
0.0
 11
38.5244
 21
31.6687
 31
0.0
  0
LINE
  8
0
 62
     0
 10
38.5244
 20
31.6687
 30
0.0
 11
38.5244
 21
32.6678
 31
0.0
  0
LINE
  8
0
 62
     0
 10
38.5244
 20
32.6678
 30
0.0
 11
39.3252
 21
32.6678
 31
0.0
  0
LINE
  8
0
 62
     0
 10
39.3252
 20
32.6678
 30
0.0
 11
39.3252
 21
35.7685
 31
0.0
  0
LINE
  8
0
 62
     0
 10
39.3252
 20
35.7685
 30
0.0
 11
38.5244
 21
35.7685
 31
0.0
  0
LINE
  8
0
 62
     0
 10
38.5244
 20
35.7685
 30
0.0
 11
38.5244
 21
36.3679
 31
0.0
  0
LINE
  8
0
 62
     0
 10
38.5244
 20
36.3679
 30
0.0
 11
40.0498
 21
36.3679
 31
0.0
  0
LINE
  8
0
 62
     0
 10
40.0498
 20
36.3679
 30
0.0
 11
40.0498
 21
31.8975
 31
0.0
  0
LINE
  8
0
 62
     0
 10
40.0498
 20
31.8975
 30
0.0
 11
41.7752
 21
31.8975
 31
0.0
  0
LINE
  8
0
 62
     0
 10
41.7752
 20
31.8975
 30
0.0
 11
41.7752
 21
30.9177
 31
0.0
  0
LINE
  8
0
 62
     0
 10
41.7752
 20
30.9177
 30
0.0
 11
45.0744
 21
30.9177
 31
0.0
  0
LINE
  8
0
 62
     0
 10
45.0744
 20
30.9177
 30
0.0
 11
45.0744
 21
31.8975
 31
0.0
  0
LINE
  8
0
 62
     0
 10
45.0744
 20
31.8975
 30
0.0
 11
46.7995
 21
31.8975
 31
0.0
  0
LINE
  8
0
 62
     0
 10
46.7995
 20
31.8975
 30
0.0
 11
46.7995
 21
38.1688
 31
0.0
  0
LINE
  8
0
 62
     0
 10
46.7995
 20
38.1688
 30
0.0
 11
47.625
 21
38.1688
 31
0.0
  0
LINE
  8
0
 62
     0
 10
47.625
 20
38.1688
 30
0.0
 11
47.625
 21
40.9677
 31
0.0
  0
LINE
  8
0
 62
     0
 10
47.625
 20
40.9677
 30
0.0
 11
46.7995
 21
40.9677
 31
0.0
  0
LINE
  8
0
 62
     0
 10
46.7995
 20
40.9677
 30
0.0
 11
46.7995
 21
44.1978
 31
0.0
  0
LINE
  8
0
 62
     0
 10
46.7995
 20
44.1978
 30
0.0
 11
45.0744
 21
44.1978
 31
0.0
  0
LINE
  8
0
 62
     0
 10
45.0744
 20
44.1978
 30
0.0
 11
45.0744
 21
45.1185
 31
0.0
  0
LINE
  8
0
 62
     0
 10
45.0744
 20
45.1185
 30
0.0
 11
41.7752
 21
45.1185
 31
0.0
  0
LINE
  8
0
 62
     0
 10
41.7752
 20
45.1185
 30
0.0
 11
41.7752
 21
44.1978
 31
0.0
  0
LINE
  8
0
 62
     0
 10
41.7752
 20
44.1978
 30
0.0
 11
40.0498
 21
44.1978
 31
0.0
  0
LINE
  8
0
 62
     0
 10
40.0498
 20
44.1978
 30
0.0
 11
40.0498
 21
40.9677
 31
0.0
  0
LINE
  8
0
 62
     0
 10
40.0498
 20
40.9677
 30
0.0
 11
38.5244
 21
40.9677
 31
0.0
  0
LINE
  8
0
 62
     0
 10
38.5244
 20
40.9677
 30
0.0
 11
38.5244
 21
41.5685
 31
0.0
  0
LINE
  8
0
 62
     0
 10
38.5244
 20
41.5685
 30
0.0
 11
39.3252
 21
41.5685
 31
0.0
  0
LINE
  8
0
 62
     0
 10
39.3252
 20
41.5685
 30
0.0
 11
39.3252
 21
44.6691
 31
0.0
  0
LINE
  8
0
 62
     0
 10
39.3252
 20
44.6691
 30
0.0
 11
38.5244
 21
44.6691
 31
0.0
  0
LINE
  8
0
 62
     0
 10
38.5244
 20
44.6691
 30
0.0
 11
38.5244
 21
45.6681
 31
0.0
  0
LINE
  8
0
 62
     0
 10
38.5244
 20
45.6681
 30
0.0
 11
24.5249
 21
45.6681
 31
0.0
  0
LINE
  8
0
 62
     0
 10
262.65
 20
45.6681
 30
0.0
 11
262.65
 21
44.6691
 31
0.0
  0
LINE
  8
0
 62
     0
 10
262.65
 20
44.6691
 30
0.0
 11
261.849
 21
44.6691
 31
0.0
  0
LINE
  8
0
 62
     0
 10
261.849
 20
44.6691
 30
0.0
 11
261.849
 21
41.5685
 31
0.0
  0
LINE
  8
0
 62
     0
 10
261.849
 20
41.5685
 30
0.0
 11
262.65
 21
41.5685
 31
0.0
  0
LINE
  8
0
 62
     0
 10
262.65
 20
41.5685
 30
0.0
 11
262.65
 21
40.9677
 31
0.0
  0
LINE
  8
0
 62
     0
 10
262.65
 20
40.9677
 30
0.0
 11
261.124
 21
40.9677
 31
0.0
  0
LINE
  8
0
 62
     0
 10
261.124
 20
40.9677
 30
0.0
 11
261.124
 21
44.1978
 31
0.0
  0
LINE
  8
0
 62
     0
 10
261.124
 20
44.1978
 30
0.0
 11
259.399
 21
44.1978
 31
0.0
  0
LINE
  8
0
 62
     0
 10
259.399
 20
44.1978
 30
0.0
 11
259.399
 21
45.1185
 31
0.0
  0
LINE
  8
0
 62
     0
 10
259.399
 20
45.1185
 30
0.0
 11
256.099
 21
45.1185
 31
0.0
  0
LINE
  8
0
 62
     0
 10
256.099
 20
45.1185
 30
0.0
 11
256.099
 21
44.1978
 31
0.0
  0
LINE
  8
0
 62
     0
 10
256.099
 20
44.1978
 30
0.0
 11
254.375
 21
44.1978
 31
0.0
  0
LINE
  8
0
 62
     0
 10
254.375
 20
44.1978
 30
0.0
 11
254.375
 21
40.9677
 31
0.0
  0
LINE
  8
0
 62
     0
 10
254.375
 20
40.9677
 30
0.0
 11
253.55
 21
40.9677
 31
0.0
  0
LINE
  8
0
 62
     0
 10
253.55
 20
40.9677
 30
0.0
 11
253.55
 21
38.1688
 31
0.0
  0
LINE
  8
0
 62
     0
 10
253.55
 20
38.1688
 30
0.0
 11
254.375
 21
38.1688
 31
0.0
  0
LINE
  8
0
 62
     0
 10
254.375
 20
38.1688
 30
0.0
 11
254.375
 21
31.8975
 31
0.0
  0
LINE
  8
0
 62
     0
 10
254.375
 20
31.8975
 30
0.0
 11
256.099
 21
31.8975
 31
0.0
  0
LINE
  8
0
 62
     0
 10
256.099
 20
31.8975
 30
0.0
 11
256.099
 21
30.9177
 31
0.0
  0
LINE
  8
0
 62
     0
 10
256.099
 20
30.9177
 30
0.0
 11
259.399
 21
30.9177
 31
0.0
  0
LINE
  8
0
 62
     0
 10
259.399
 20
30.9177
 30
0.0
 11
259.399
 21
31.8975
 31
0.0
  0
LINE
  8
0
 62
     0
 10
259.399
 20
31.8975
 30
0.0
 11
261.124
 21
31.8975
 31
0.0
  0
LINE
  8
0
 62
     0
 10
261.124
 20
31.8975
 30
0.0
 11
261.124
 21
36.3679
 31
0.0
  0
LINE
  8
0
 62
     0
 10
261.124
 20
36.3679
 30
0.0
 11
262.65
 21
36.3679
 31
0.0
  0
LINE
  8
0
 62
     0
 10
262.65
 20
36.3679
 30
0.0
 11
262.65
 21
35.7685
 31
0.0
  0
LINE
  8
0
 62
     0
 10
262.65
 20
35.7685
 30
0.0
 11
261.849
 21
35.7685
 31
0.0
  0
LINE
  8
0
 62
     0
 10
261.849
 20
35.7685
 30
0.0
 11
261.849
 21
32.6678
 31
0.0
  0
LINE
  8
0
 62
     0
 10
261.849
 20
32.6678
 30
0.0
 11
262.65
 21
32.6678
 31
0.0
  0
LINE
  8
0
 62
     0
 10
262.65
 20
32.6678
 30
0.0
 11
262.65
 21
31.6687
 31
0.0
  0
LINE
  8
0
 62
     0
 10
262.65
 20
31.6687
 30
0.0
 11
276.649
 21
31.6687
 31
0.0
  0
LINE
  8
0
 62
     0
 10
276.649
 20
31.6687
 30
0.0
 11
276.649
 21
32.6678
 31
0.0
  0
LINE
  8
0
 62
     0
 10
276.649
 20
32.6678
 30
0.0
 11
277.45
 21
32.6678
 31
0.0
  0
LINE
  8
0
 62
     0
 10
277.45
 20
32.6678
 30
0.0
 11
277.45
 21
35.7685
 31
0.0
  0
LINE
  8
0
 62
     0
 10
277.45
 20
35.7685
 30
0.0
 11
276.649
 21
35.7685
 31
0.0
  0
LINE
  8
0
 62
     0
 10
276.649
 20
35.7685
 30
0.0
 11
276.649
 21
36.3679
 31
0.0
  0
LINE
  8
0
 62
     0
 10
276.649
 20
36.3679
 30
0.0
 11
278.175
 21
36.3679
 31
0.0
  0
LINE
  8
0
 62
     0
 10
278.175
 20
36.3679
 30
0.0
 11
278.175
 21
31.8975
 31
0.0
  0
LINE
  8
0
 62
     0
 10
278.175
 20
31.8975
 30
0.0
 11
279.9
 21
31.8975
 31
0.0
  0
LINE
  8
0
 62
     0
 10
279.9
 20
31.8975
 30
0.0
 11
279.9
 21
30.9177
 31
0.0
  0
LINE
  8
0
 62
     0
 10
279.9
 20
30.9177
 30
0.0
 11
283.199
 21
30.9177
 31
0.0
  0
LINE
  8
0
 62
     0
 10
283.199
 20
30.9177
 30
0.0
 11
283.199
 21
31.8975
 31
0.0
  0
LINE
  8
0
 62
     0
 10
283.199
 20
31.8975
 30
0.0
 11
284.924
 21
31.8975
 31
0.0
  0
LINE
  8
0
 62
     0
 10
284.924
 20
31.8975
 30
0.0
 11
284.924
 21
38.1688
 31
0.0
  0
LINE
  8
0
 62
     0
 10
284.924
 20
38.1688
 30
0.0
 11
285.75
 21
38.1688
 31
0.0
  0
LINE
  8
0
 62
     0
 10
285.75
 20
38.1688
 30
0.0
 11
285.75
 21
40.9677
 31
0.0
  0
LINE
  8
0
 62
     0
 10
285.75
 20
40.9677
 30
0.0
 11
284.924
 21
40.9677
 31
0.0
  0
LINE
  8
0
 62
     0
 10
284.924
 20
40.9677
 30
0.0
 11
284.924
 21
44.1978
 31
0.0
  0
LINE
  8
0
 62
     0
 10
284.924
 20
44.1978
 30
0.0
 11
283.199
 21
44.1978
 31
0.0
  0
LINE
  8
0
 62
     0
 10
283.199
 20
44.1978
 30
0.0
 11
283.199
 21
45.1185
 31
0.0
  0
LINE
  8
0
 62
     0
 10
283.199
 20
45.1185
 30
0.0
 11
279.9
 21
45.1185
 31
0.0
  0
LINE
  8
0
 62
     0
 10
279.9
 20
45.1185
 30
0.0
 11
279.9
 21
44.1978
 31
0.0
  0
LINE
  8
0
 62
     0
 10
279.9
 20
44.1978
 30
0.0
 11
278.175
 21
44.1978
 31
0.0
  0
LINE
  8
0
 62
     0
 10
278.175
 20
44.1978
 30
0.0
 11
278.175
 21
40.9677
 31
0.0
  0
LINE
  8
0
 62
     0
 10
278.175
 20
40.9677
 30
0.0
 11
276.649
 21
40.9677
 31
0.0
  0
LINE
  8
0
 62
     0
 10
276.649
 20
40.9677
 30
0.0
 11
276.649
 21
41.5685
 31
0.0
  0
LINE
  8
0
 62
     0
 10
276.649
 20
41.5685
 30
0.0
 11
277.45
 21
41.5685
 31
0.0
  0
LINE
  8
0
 62
     0
 10
277.45
 20
41.5685
 30
0.0
 11
277.45
 21
44.6691
 31
0.0
  0
LINE
  8
0
 62
     0
 10
277.45
 20
44.6691
 30
0.0
 11
276.649
 21
44.6691
 31
0.0
  0
LINE
  8
0
 62
     0
 10
276.649
 20
44.6691
 30
0.0
 11
276.649
 21
45.6681
 31
0.0
  0
LINE
  8
0
 62
     0
 10
276.649
 20
45.6681
 30
0.0
 11
262.65
 21
45.6681
 31
0.0
  0
LINE
  8
0
 62
     0
 10
55.4814
 20
45.6681
 30
0.0
 11
55.4814
 21
44.6691
 31
0.0
  0
LINE
  8
0
 62
     0
 10
55.4814
 20
44.6691
 30
0.0
 11
54.6806
 21
44.6691
 31
0.0
  0
LINE
  8
0
 62
     0
 10
54.6806
 20
44.6691
 30
0.0
 11
54.6806
 21
41.5685
 31
0.0
  0
LINE
  8
0
 62
     0
 10
54.6806
 20
41.5685
 30
0.0
 11
55.4814
 21
41.5685
 31
0.0
  0
LINE
  8
0
 62
     0
 10
55.4814
 20
41.5685
 30
0.0
 11
55.4814
 21
35.7685
 31
0.0
  0
LINE
  8
0
 62
     0
 10
55.4814
 20
35.7685
 30
0.0
 11
54.6806
 21
35.7685
 31
0.0
  0
LINE
  8
0
 62
     0
 10
54.6806
 20
35.7685
 30
0.0
 11
54.6806
 21
32.6678
 31
0.0
  0
LINE
  8
0
 62
     0
 10
54.6806
 20
32.6678
 30
0.0
 11
55.4814
 21
32.6678
 31
0.0
  0
LINE
  8
0
 62
     0
 10
55.4814
 20
32.6678
 30
0.0
 11
55.4814
 21
31.6687
 31
0.0
  0
LINE
  8
0
 62
     0
 10
55.4814
 20
31.6687
 30
0.0
 11
69.4806
 21
31.6687
 31
0.0
  0
LINE
  8
0
 62
     0
 10
69.4806
 20
31.6687
 30
0.0
 11
69.4806
 21
32.6678
 31
0.0
  0
LINE
  8
0
 62
     0
 10
69.4806
 20
32.6678
 30
0.0
 11
70.2815
 21
32.6678
 31
0.0
  0
LINE
  8
0
 62
     0
 10
70.2815
 20
32.6678
 30
0.0
 11
70.2815
 21
35.7685
 31
0.0
  0
LINE
  8
0
 62
     0
 10
70.2815
 20
35.7685
 30
0.0
 11
69.4806
 21
35.7685
 31
0.0
  0
LINE
  8
0
 62
     0
 10
69.4806
 20
35.7685
 30
0.0
 11
69.4806
 21
41.5685
 31
0.0
  0
LINE
  8
0
 62
     0
 10
69.4806
 20
41.5685
 30
0.0
 11
70.2815
 21
41.5685
 31
0.0
  0
LINE
  8
0
 62
     0
 10
70.2815
 20
41.5685
 30
0.0
 11
70.2815
 21
44.6691
 31
0.0
  0
LINE
  8
0
 62
     0
 10
70.2815
 20
44.6691
 30
0.0
 11
69.4806
 21
44.6691
 31
0.0
  0
LINE
  8
0
 62
     0
 10
69.4806
 20
44.6691
 30
0.0
 11
69.4806
 21
45.6681
 31
0.0
  0
LINE
  8
0
 62
     0
 10
69.4806
 20
45.6681
 30
0.0
 11
55.4814
 21
45.6681
 31
0.0
  0
LINE
  8
0
 62
     0
 10
74.5314
 20
45.6681
 30
0.0
 11
74.5314
 21
44.6691
 31
0.0
  0
LINE
  8
0
 62
     0
 10
74.5314
 20
44.6691
 30
0.0
 11
73.7306
 21
44.6691
 31
0.0
  0
LINE
  8
0
 62
     0
 10
73.7306
 20
44.6691
 30
0.0
 11
73.7306
 21
41.5685
 31
0.0
  0
LINE
  8
0
 62
     0
 10
73.7306
 20
41.5685
 30
0.0
 11
74.5314
 21
41.5685
 31
0.0
  0
LINE
  8
0
 62
     0
 10
74.5314
 20
41.5685
 30
0.0
 11
74.5314
 21
35.7685
 31
0.0
  0
LINE
  8
0
 62
     0
 10
74.5314
 20
35.7685
 30
0.0
 11
73.7306
 21
35.7685
 31
0.0
  0
LINE
  8
0
 62
     0
 10
73.7306
 20
35.7685
 30
0.0
 11
73.7306
 21
32.6678
 31
0.0
  0
LINE
  8
0
 62
     0
 10
73.7306
 20
32.6678
 30
0.0
 11
74.5314
 21
32.6678
 31
0.0
  0
LINE
  8
0
 62
     0
 10
74.5314
 20
32.6678
 30
0.0
 11
74.5314
 21
31.6687
 31
0.0
  0
LINE
  8
0
 62
     0
 10
74.5314
 20
31.6687
 30
0.0
 11
88.5306
 21
31.6687
 31
0.0
  0
LINE
  8
0
 62
     0
 10
88.5306
 20
31.6687
 30
0.0
 11
88.5306
 21
32.6678
 31
0.0
  0
LINE
  8
0
 62
     0
 10
88.5306
 20
32.6678
 30
0.0
 11
89.3315
 21
32.6678
 31
0.0
  0
LINE
  8
0
 62
     0
 10
89.3315
 20
32.6678
 30
0.0
 11
89.3315
 21
35.7685
 31
0.0
  0
LINE
  8
0
 62
     0
 10
89.3315
 20
35.7685
 30
0.0
 11
88.5306
 21
35.7685
 31
0.0
  0
LINE
  8
0
 62
     0
 10
88.5306
 20
35.7685
 30
0.0
 11
88.5306
 21
41.5685
 31
0.0
  0
LINE
  8
0
 62
     0
 10
88.5306
 20
41.5685
 30
0.0
 11
89.3315
 21
41.5685
 31
0.0
  0
LINE
  8
0
 62
     0
 10
89.3315
 20
41.5685
 30
0.0
 11
89.3315
 21
44.6691
 31
0.0
  0
LINE
  8
0
 62
     0
 10
89.3315
 20
44.6691
 30
0.0
 11
88.5306
 21
44.6691
 31
0.0
  0
LINE
  8
0
 62
     0
 10
88.5306
 20
44.6691
 30
0.0
 11
88.5306
 21
45.6681
 31
0.0
  0
LINE
  8
0
 62
     0
 10
88.5306
 20
45.6681
 30
0.0
 11
74.5314
 21
45.6681
 31
0.0
  0
LINE
  8
0
 62
     0
 10
93.5814
 20
45.6681
 30
0.0
 11
93.5814
 21
44.6691
 31
0.0
  0
LINE
  8
0
 62
     0
 10
93.5814
 20
44.6691
 30
0.0
 11
92.7806
 21
44.6691
 31
0.0
  0
LINE
  8
0
 62
     0
 10
92.7806
 20
44.6691
 30
0.0
 11
92.7806
 21
41.5685
 31
0.0
  0
LINE
  8
0
 62
     0
 10
92.7806
 20
41.5685
 30
0.0
 11
93.5814
 21
41.5685
 31
0.0
  0
LINE
  8
0
 62
     0
 10
93.5814
 20
41.5685
 30
0.0
 11
93.5814
 21
35.7685
 31
0.0
  0
LINE
  8
0
 62
     0
 10
93.5814
 20
35.7685
 30
0.0
 11
92.7806
 21
35.7685
 31
0.0
  0
LINE
  8
0
 62
     0
 10
92.7806
 20
35.7685
 30
0.0
 11
92.7806
 21
32.6678
 31
0.0
  0
LINE
  8
0
 62
     0
 10
92.7806
 20
32.6678
 30
0.0
 11
93.5814
 21
32.6678
 31
0.0
  0
LINE
  8
0
 62
     0
 10
93.5814
 20
32.6678
 30
0.0
 11
93.5814
 21
31.6687
 31
0.0
  0
LINE
  8
0
 62
     0
 10
93.5814
 20
31.6687
 30
0.0
 11
107.581
 21
31.6687
 31
0.0
  0
LINE
  8
0
 62
     0
 10
107.581
 20
31.6687
 30
0.0
 11
107.581
 21
32.6678
 31
0.0
  0
LINE
  8
0
 62
     0
 10
107.581
 20
32.6678
 30
0.0
 11
108.381
 21
32.6678
 31
0.0
  0
LINE
  8
0
 62
     0
 10
108.381
 20
32.6678
 30
0.0
 11
108.381
 21
35.7685
 31
0.0
  0
LINE
  8
0
 62
     0
 10
108.381
 20
35.7685
 30
0.0
 11
107.581
 21
35.7685
 31
0.0
  0
LINE
  8
0
 62
     0
 10
107.581
 20
35.7685
 30
0.0
 11
107.581
 21
41.5685
 31
0.0
  0
LINE
  8
0
 62
     0
 10
107.581
 20
41.5685
 30
0.0
 11
108.381
 21
41.5685
 31
0.0
  0
LINE
  8
0
 62
     0
 10
108.381
 20
41.5685
 30
0.0
 11
108.381
 21
44.6691
 31
0.0
  0
LINE
  8
0
 62
     0
 10
108.381
 20
44.6691
 30
0.0
 11
107.581
 21
44.6691
 31
0.0
  0
LINE
  8
0
 62
     0
 10
107.581
 20
44.6691
 30
0.0
 11
107.581
 21
45.6681
 31
0.0
  0
LINE
  8
0
 62
     0
 10
107.581
 20
45.6681
 30
0.0
 11
93.5814
 21
45.6681
 31
0.0
  0
LINE
  8
0
 62
     0
 10
112.631
 20
45.6681
 30
0.0
 11
112.631
 21
44.6691
 31
0.0
  0
LINE
  8
0
 62
     0
 10
112.631
 20
44.6691
 30
0.0
 11
111.831
 21
44.6691
 31
0.0
  0
LINE
  8
0
 62
     0
 10
111.831
 20
44.6691
 30
0.0
 11
111.831
 21
41.5685
 31
0.0
  0
LINE
  8
0
 62
     0
 10
111.831
 20
41.5685
 30
0.0
 11
112.631
 21
41.5685
 31
0.0
  0
LINE
  8
0
 62
     0
 10
112.631
 20
41.5685
 30
0.0
 11
112.631
 21
35.7685
 31
0.0
  0
LINE
  8
0
 62
     0
 10
112.631
 20
35.7685
 30
0.0
 11
111.831
 21
35.7685
 31
0.0
  0
LINE
  8
0
 62
     0
 10
111.831
 20
35.7685
 30
0.0
 11
111.831
 21
32.6678
 31
0.0
  0
LINE
  8
0
 62
     0
 10
111.831
 20
32.6678
 30
0.0
 11
112.631
 21
32.6678
 31
0.0
  0
LINE
  8
0
 62
     0
 10
112.631
 20
32.6678
 30
0.0
 11
112.631
 21
31.6687
 31
0.0
  0
LINE
  8
0
 62
     0
 10
112.631
 20
31.6687
 30
0.0
 11
126.631
 21
31.6687
 31
0.0
  0
LINE
  8
0
 62
     0
 10
126.631
 20
31.6687
 30
0.0
 11
126.631
 21
32.6678
 31
0.0
  0
LINE
  8
0
 62
     0
 10
126.631
 20
32.6678
 30
0.0
 11
127.431
 21
32.6678
 31
0.0
  0
LINE
  8
0
 62
     0
 10
127.431
 20
32.6678
 30
0.0
 11
127.431
 21
35.7685
 31
0.0
  0
LINE
  8
0
 62
     0
 10
127.431
 20
35.7685
 30
0.0
 11
126.631
 21
35.7685
 31
0.0
  0
LINE
  8
0
 62
     0
 10
126.631
 20
35.7685
 30
0.0
 11
126.631
 21
41.5685
 31
0.0
  0
LINE
  8
0
 62
     0
 10
126.631
 20
41.5685
 30
0.0
 11
127.431
 21
41.5685
 31
0.0
  0
LINE
  8
0
 62
     0
 10
127.431
 20
41.5685
 30
0.0
 11
127.431
 21
44.6691
 31
0.0
  0
LINE
  8
0
 62
     0
 10
127.431
 20
44.6691
 30
0.0
 11
126.631
 21
44.6691
 31
0.0
  0
LINE
  8
0
 62
     0
 10
126.631
 20
44.6691
 30
0.0
 11
126.631
 21
45.6681
 31
0.0
  0
LINE
  8
0
 62
     0
 10
126.631
 20
45.6681
 30
0.0
 11
112.631
 21
45.6681
 31
0.0
  0
LINE
  8
0
 62
     0
 10
131.681
 20
45.6681
 30
0.0
 11
131.681
 21
44.6691
 31
0.0
  0
LINE
  8
0
 62
     0
 10
131.681
 20
44.6691
 30
0.0
 11
130.881
 21
44.6691
 31
0.0
  0
LINE
  8
0
 62
     0
 10
130.881
 20
44.6691
 30
0.0
 11
130.881
 21
41.5685
 31
0.0
  0
LINE
  8
0
 62
     0
 10
130.881
 20
41.5685
 30
0.0
 11
131.681
 21
41.5685
 31
0.0
  0
LINE
  8
0
 62
     0
 10
131.681
 20
41.5685
 30
0.0
 11
131.681
 21
35.7685
 31
0.0
  0
LINE
  8
0
 62
     0
 10
131.681
 20
35.7685
 30
0.0
 11
130.881
 21
35.7685
 31
0.0
  0
LINE
  8
0
 62
     0
 10
130.881
 20
35.7685
 30
0.0
 11
130.881
 21
32.6678
 31
0.0
  0
LINE
  8
0
 62
     0
 10
130.881
 20
32.6678
 30
0.0
 11
131.681
 21
32.6678
 31
0.0
  0
LINE
  8
0
 62
     0
 10
131.681
 20
32.6678
 30
0.0
 11
131.681
 21
31.6687
 31
0.0
  0
LINE
  8
0
 62
     0
 10
131.681
 20
31.6687
 30
0.0
 11
145.681
 21
31.6687
 31
0.0
  0
LINE
  8
0
 62
     0
 10
145.681
 20
31.6687
 30
0.0
 11
145.681
 21
32.6678
 31
0.0
  0
LINE
  8
0
 62
     0
 10
145.681
 20
32.6678
 30
0.0
 11
146.481
 21
32.6678
 31
0.0
  0
LINE
  8
0
 62
     0
 10
146.481
 20
32.6678
 30
0.0
 11
146.481
 21
35.7685
 31
0.0
  0
LINE
  8
0
 62
     0
 10
146.481
 20
35.7685
 30
0.0
 11
145.681
 21
35.7685
 31
0.0
  0
LINE
  8
0
 62
     0
 10
145.681
 20
35.7685
 30
0.0
 11
145.681
 21
41.5685
 31
0.0
  0
LINE
  8
0
 62
     0
 10
145.681
 20
41.5685
 30
0.0
 11
146.481
 21
41.5685
 31
0.0
  0
LINE
  8
0
 62
     0
 10
146.481
 20
41.5685
 30
0.0
 11
146.481
 21
44.6691
 31
0.0
  0
LINE
  8
0
 62
     0
 10
146.481
 20
44.6691
 30
0.0
 11
145.681
 21
44.6691
 31
0.0
  0
LINE
  8
0
 62
     0
 10
145.681
 20
44.6691
 30
0.0
 11
145.681
 21
45.6681
 31
0.0
  0
LINE
  8
0
 62
     0
 10
145.681
 20
45.6681
 30
0.0
 11
131.681
 21
45.6681
 31
0.0
  0
LINE
  8
0
 62
     0
 10
150.731
 20
45.6681
 30
0.0
 11
150.731
 21
44.6691
 31
0.0
  0
LINE
  8
0
 62
     0
 10
150.731
 20
44.6691
 30
0.0
 11
149.931
 21
44.6691
 31
0.0
  0
LINE
  8
0
 62
     0
 10
149.931
 20
44.6691
 30
0.0
 11
149.931
 21
41.5685
 31
0.0
  0
LINE
  8
0
 62
     0
 10
149.931
 20
41.5685
 30
0.0
 11
150.731
 21
41.5685
 31
0.0
  0
LINE
  8
0
 62
     0
 10
150.731
 20
41.5685
 30
0.0
 11
150.731
 21
35.7685
 31
0.0
  0
LINE
  8
0
 62
     0
 10
150.731
 20
35.7685
 30
0.0
 11
149.931
 21
35.7685
 31
0.0
  0
LINE
  8
0
 62
     0
 10
149.931
 20
35.7685
 30
0.0
 11
149.931
 21
32.6678
 31
0.0
  0
LINE
  8
0
 62
     0
 10
149.931
 20
32.6678
 30
0.0
 11
150.731
 21
32.6678
 31
0.0
  0
LINE
  8
0
 62
     0
 10
150.731
 20
32.6678
 30
0.0
 11
150.731
 21
31.6687
 31
0.0
  0
LINE
  8
0
 62
     0
 10
150.731
 20
31.6687
 30
0.0
 11
164.731
 21
31.6687
 31
0.0
  0
LINE
  8
0
 62
     0
 10
164.731
 20
31.6687
 30
0.0
 11
164.731
 21
32.6678
 31
0.0
  0
LINE
  8
0
 62
     0
 10
164.731
 20
32.6678
 30
0.0
 11
165.531
 21
32.6678
 31
0.0
  0
LINE
  8
0
 62
     0
 10
165.531
 20
32.6678
 30
0.0
 11
165.531
 21
35.7685
 31
0.0
  0
LINE
  8
0
 62
     0
 10
165.531
 20
35.7685
 30
0.0
 11
164.731
 21
35.7685
 31
0.0
  0
LINE
  8
0
 62
     0
 10
164.731
 20
35.7685
 30
0.0
 11
164.731
 21
41.5685
 31
0.0
  0
LINE
  8
0
 62
     0
 10
164.731
 20
41.5685
 30
0.0
 11
165.531
 21
41.5685
 31
0.0
  0
LINE
  8
0
 62
     0
 10
165.531
 20
41.5685
 30
0.0
 11
165.531
 21
44.6691
 31
0.0
  0
LINE
  8
0
 62
     0
 10
165.531
 20
44.6691
 30
0.0
 11
164.731
 21
44.6691
 31
0.0
  0
LINE
  8
0
 62
     0
 10
164.731
 20
44.6691
 30
0.0
 11
164.731
 21
45.6681
 31
0.0
  0
LINE
  8
0
 62
     0
 10
164.731
 20
45.6681
 30
0.0
 11
150.731
 21
45.6681
 31
0.0
  0
LINE
  8
0
 62
     0
 10
169.781
 20
45.6681
 30
0.0
 11
169.781
 21
44.6691
 31
0.0
  0
LINE
  8
0
 62
     0
 10
169.781
 20
44.6691
 30
0.0
 11
168.981
 21
44.6691
 31
0.0
  0
LINE
  8
0
 62
     0
 10
168.981
 20
44.6691
 30
0.0
 11
168.981
 21
41.5685
 31
0.0
  0
LINE
  8
0
 62
     0
 10
168.981
 20
41.5685
 30
0.0
 11
169.781
 21
41.5685
 31
0.0
  0
LINE
  8
0
 62
     0
 10
169.781
 20
41.5685
 30
0.0
 11
169.781
 21
35.7685
 31
0.0
  0
LINE
  8
0
 62
     0
 10
169.781
 20
35.7685
 30
0.0
 11
168.981
 21
35.7685
 31
0.0
  0
LINE
  8
0
 62
     0
 10
168.981
 20
35.7685
 30
0.0
 11
168.981
 21
32.6678
 31
0.0
  0
LINE
  8
0
 62
     0
 10
168.981
 20
32.6678
 30
0.0
 11
169.781
 21
32.6678
 31
0.0
  0
LINE
  8
0
 62
     0
 10
169.781
 20
32.6678
 30
0.0
 11
169.781
 21
31.6687
 31
0.0
  0
LINE
  8
0
 62
     0
 10
169.781
 20
31.6687
 30
0.0
 11
183.781
 21
31.6687
 31
0.0
  0
LINE
  8
0
 62
     0
 10
183.781
 20
31.6687
 30
0.0
 11
183.781
 21
32.6678
 31
0.0
  0
LINE
  8
0
 62
     0
 10
183.781
 20
32.6678
 30
0.0
 11
184.581
 21
32.6678
 31
0.0
  0
LINE
  8
0
 62
     0
 10
184.581
 20
32.6678
 30
0.0
 11
184.581
 21
35.7685
 31
0.0
  0
LINE
  8
0
 62
     0
 10
184.581
 20
35.7685
 30
0.0
 11
183.781
 21
35.7685
 31
0.0
  0
LINE
  8
0
 62
     0
 10
183.781
 20
35.7685
 30
0.0
 11
183.781
 21
41.5685
 31
0.0
  0
LINE
  8
0
 62
     0
 10
183.781
 20
41.5685
 30
0.0
 11
184.581
 21
41.5685
 31
0.0
  0
LINE
  8
0
 62
     0
 10
184.581
 20
41.5685
 30
0.0
 11
184.581
 21
44.6691
 31
0.0
  0
LINE
  8
0
 62
     0
 10
184.581
 20
44.6691
 30
0.0
 11
183.781
 21
44.6691
 31
0.0
  0
LINE
  8
0
 62
     0
 10
183.781
 20
44.6691
 30
0.0
 11
183.781
 21
45.6681
 31
0.0
  0
LINE
  8
0
 62
     0
 10
183.781
 20
45.6681
 30
0.0
 11
169.781
 21
45.6681
 31
0.0
  0
LINE
  8
0
 62
     0
 10
188.831
 20
45.6681
 30
0.0
 11
188.831
 21
44.6691
 31
0.0
  0
LINE
  8
0
 62
     0
 10
188.831
 20
44.6691
 30
0.0
 11
188.031
 21
44.6691
 31
0.0
  0
LINE
  8
0
 62
     0
 10
188.031
 20
44.6691
 30
0.0
 11
188.031
 21
41.5685
 31
0.0
  0
LINE
  8
0
 62
     0
 10
188.031
 20
41.5685
 30
0.0
 11
188.831
 21
41.5685
 31
0.0
  0
LINE
  8
0
 62
     0
 10
188.831
 20
41.5685
 30
0.0
 11
188.831
 21
35.7685
 31
0.0
  0
LINE
  8
0
 62
     0
 10
188.831
 20
35.7685
 30
0.0
 11
188.031
 21
35.7685
 31
0.0
  0
LINE
  8
0
 62
     0
 10
188.031
 20
35.7685
 30
0.0
 11
188.031
 21
32.6678
 31
0.0
  0
LINE
  8
0
 62
     0
 10
188.031
 20
32.6678
 30
0.0
 11
188.831
 21
32.6678
 31
0.0
  0
LINE
  8
0
 62
     0
 10
188.831
 20
32.6678
 30
0.0
 11
188.831
 21
31.6687
 31
0.0
  0
LINE
  8
0
 62
     0
 10
188.831
 20
31.6687
 30
0.0
 11
202.831
 21
31.6687
 31
0.0
  0
LINE
  8
0
 62
     0
 10
202.831
 20
31.6687
 30
0.0
 11
202.831
 21
32.6678
 31
0.0
  0
LINE
  8
0
 62
     0
 10
202.831
 20
32.6678
 30
0.0
 11
203.631
 21
32.6678
 31
0.0
  0
LINE
  8
0
 62
     0
 10
203.631
 20
32.6678
 30
0.0
 11
203.631
 21
35.7685
 31
0.0
  0
LINE
  8
0
 62
     0
 10
203.631
 20
35.7685
 30
0.0
 11
202.831
 21
35.7685
 31
0.0
  0
LINE
  8
0
 62
     0
 10
202.831
 20
35.7685
 30
0.0
 11
202.831
 21
41.5685
 31
0.0
  0
LINE
  8
0
 62
     0
 10
202.831
 20
41.5685
 30
0.0
 11
203.631
 21
41.5685
 31
0.0
  0
LINE
  8
0
 62
     0
 10
203.631
 20
41.5685
 30
0.0
 11
203.631
 21
44.6691
 31
0.0
  0
LINE
  8
0
 62
     0
 10
203.631
 20
44.6691
 30
0.0
 11
202.831
 21
44.6691
 31
0.0
  0
LINE
  8
0
 62
     0
 10
202.831
 20
44.6691
 30
0.0
 11
202.831
 21
45.6681
 31
0.0
  0
LINE
  8
0
 62
     0
 10
202.831
 20
45.6681
 30
0.0
 11
188.831
 21
45.6681
 31
0.0
  0
LINE
  8
0
 62
     0
 10
207.881
 20
45.6681
 30
0.0
 11
207.881
 21
44.6691
 31
0.0
  0
LINE
  8
0
 62
     0
 10
207.881
 20
44.6691
 30
0.0
 11
207.081
 21
44.6691
 31
0.0
  0
LINE
  8
0
 62
     0
 10
207.081
 20
44.6691
 30
0.0
 11
207.081
 21
41.5685
 31
0.0
  0
LINE
  8
0
 62
     0
 10
207.081
 20
41.5685
 30
0.0
 11
207.881
 21
41.5685
 31
0.0
  0
LINE
  8
0
 62
     0
 10
207.881
 20
41.5685
 30
0.0
 11
207.881
 21
35.7685
 31
0.0
  0
LINE
  8
0
 62
     0
 10
207.881
 20
35.7685
 30
0.0
 11
207.081
 21
35.7685
 31
0.0
  0
LINE
  8
0
 62
     0
 10
207.081
 20
35.7685
 30
0.0
 11
207.081
 21
32.6678
 31
0.0
  0
LINE
  8
0
 62
     0
 10
207.081
 20
32.6678
 30
0.0
 11
207.881
 21
32.6678
 31
0.0
  0
LINE
  8
0
 62
     0
 10
207.881
 20
32.6678
 30
0.0
 11
207.881
 21
31.6687
 31
0.0
  0
LINE
  8
0
 62
     0
 10
207.881
 20
31.6687
 30
0.0
 11
221.881
 21
31.6687
 31
0.0
  0
LINE
  8
0
 62
     0
 10
221.881
 20
31.6687
 30
0.0
 11
221.881
 21
32.6678
 31
0.0
  0
LINE
  8
0
 62
     0
 10
221.881
 20
32.6678
 30
0.0
 11
222.681
 21
32.6678
 31
0.0
  0
LINE
  8
0
 62
     0
 10
222.681
 20
32.6678
 30
0.0
 11
222.681
 21
35.7685
 31
0.0
  0
LINE
  8
0
 62
     0
 10
222.681
 20
35.7685
 30
0.0
 11
221.881
 21
35.7685
 31
0.0
  0
LINE
  8
0
 62
     0
 10
221.881
 20
35.7685
 30
0.0
 11
221.881
 21
41.5685
 31
0.0
  0
LINE
  8
0
 62
     0
 10
221.881
 20
41.5685
 30
0.0
 11
222.681
 21
41.5685
 31
0.0
  0
LINE
  8
0
 62
     0
 10
222.681
 20
41.5685
 30
0.0
 11
222.681
 21
44.6691
 31
0.0
  0
LINE
  8
0
 62
     0
 10
222.681
 20
44.6691
 30
0.0
 11
221.881
 21
44.6691
 31
0.0
  0
LINE
  8
0
 62
     0
 10
221.881
 20
44.6691
 30
0.0
 11
221.881
 21
45.6681
 31
0.0
  0
LINE
  8
0
 62
     0
 10
221.881
 20
45.6681
 30
0.0
 11
207.881
 21
45.6681
 31
0.0
  0
LINE
  8
0
 62
     0
 10
226.931
 20
45.6681
 30
0.0
 11
226.931
 21
44.6691
 31
0.0
  0
LINE
  8
0
 62
     0
 10
226.931
 20
44.6691
 30
0.0
 11
226.131
 21
44.6691
 31
0.0
  0
LINE
  8
0
 62
     0
 10
226.131
 20
44.6691
 30
0.0
 11
226.131
 21
41.5685
 31
0.0
  0
LINE
  8
0
 62
     0
 10
226.131
 20
41.5685
 30
0.0
 11
226.931
 21
41.5685
 31
0.0
  0
LINE
  8
0
 62
     0
 10
226.931
 20
41.5685
 30
0.0
 11
226.931
 21
35.7685
 31
0.0
  0
LINE
  8
0
 62
     0
 10
226.931
 20
35.7685
 30
0.0
 11
226.131
 21
35.7685
 31
0.0
  0
LINE
  8
0
 62
     0
 10
226.131
 20
35.7685
 30
0.0
 11
226.131
 21
32.6678
 31
0.0
  0
LINE
  8
0
 62
     0
 10
226.131
 20
32.6678
 30
0.0
 11
226.931
 21
32.6678
 31
0.0
  0
LINE
  8
0
 62
     0
 10
226.931
 20
32.6678
 30
0.0
 11
226.931
 21
31.6687
 31
0.0
  0
LINE
  8
0
 62
     0
 10
226.931
 20
31.6687
 30
0.0
 11
240.931
 21
31.6687
 31
0.0
  0
LINE
  8
0
 62
     0
 10
240.931
 20
31.6687
 30
0.0
 11
240.931
 21
32.6678
 31
0.0
  0
LINE
  8
0
 62
     0
 10
240.931
 20
32.6678
 30
0.0
 11
241.731
 21
32.6678
 31
0.0
  0
LINE
  8
0
 62
     0
 10
241.731
 20
32.6678
 30
0.0
 11
241.731
 21
35.7685
 31
0.0
  0
LINE
  8
0
 62
     0
 10
241.731
 20
35.7685
 30
0.0
 11
240.931
 21
35.7685
 31
0.0
  0
LINE
  8
0
 62
     0
 10
240.931
 20
35.7685
 30
0.0
 11
240.931
 21
41.5685
 31
0.0
  0
LINE
  8
0
 62
     0
 10
240.931
 20
41.5685
 30
0.0
 11
241.731
 21
41.5685
 31
0.0
  0
LINE
  8
0
 62
     0
 10
241.731
 20
41.5685
 30
0.0
 11
241.731
 21
44.6691
 31
0.0
  0
LINE
  8
0
 62
     0
 10
241.731
 20
44.6691
 30
0.0
 11
240.931
 21
44.6691
 31
0.0
  0
LINE
  8
0
 62
     0
 10
240.931
 20
44.6691
 30
0.0
 11
240.931
 21
45.6681
 31
0.0
  0
LINE
  8
0
 62
     0
 10
240.931
 20
45.6681
 30
0.0
 11
226.931
 21
45.6681
 31
0.0
  0
LINE
  8
0
 62
     0
 10
322.181
 20
45.6681
 30
0.0
 11
322.181
 21
44.6691
 31
0.0
  0
LINE
  8
0
 62
     0
 10
322.181
 20
44.6691
 30
0.0
 11
321.381
 21
44.6691
 31
0.0
  0
LINE
  8
0
 62
     0
 10
321.381
 20
44.6691
 30
0.0
 11
321.381
 21
41.5685
 31
0.0
  0
LINE
  8
0
 62
     0
 10
321.381
 20
41.5685
 30
0.0
 11
322.181
 21
41.5685
 31
0.0
  0
LINE
  8
0
 62
     0
 10
322.181
 20
41.5685
 30
0.0
 11
322.181
 21
35.7685
 31
0.0
  0
LINE
  8
0
 62
     0
 10
322.181
 20
35.7685
 30
0.0
 11
321.381
 21
35.7685
 31
0.0
  0
LINE
  8
0
 62
     0
 10
321.381
 20
35.7685
 30
0.0
 11
321.381
 21
32.6678
 31
0.0
  0
LINE
  8
0
 62
     0
 10
321.381
 20
32.6678
 30
0.0
 11
322.181
 21
32.6678
 31
0.0
  0
LINE
  8
0
 62
     0
 10
322.181
 20
32.6678
 30
0.0
 11
322.181
 21
31.6687
 31
0.0
  0
LINE
  8
0
 62
     0
 10
322.181
 20
31.6687
 30
0.0
 11
336.181
 21
31.6687
 31
0.0
  0
LINE
  8
0
 62
     0
 10
336.181
 20
31.6687
 30
0.0
 11
336.181
 21
32.6678
 31
0.0
  0
LINE
  8
0
 62
     0
 10
336.181
 20
32.6678
 30
0.0
 11
336.981
 21
32.6678
 31
0.0
  0
LINE
  8
0
 62
     0
 10
336.981
 20
32.6678
 30
0.0
 11
336.981
 21
35.7685
 31
0.0
  0
LINE
  8
0
 62
     0
 10
336.981
 20
35.7685
 30
0.0
 11
336.181
 21
35.7685
 31
0.0
  0
LINE
  8
0
 62
     0
 10
336.181
 20
35.7685
 30
0.0
 11
336.181
 21
41.5685
 31
0.0
  0
LINE
  8
0
 62
     0
 10
336.181
 20
41.5685
 30
0.0
 11
336.981
 21
41.5685
 31
0.0
  0
LINE
  8
0
 62
     0
 10
336.981
 20
41.5685
 30
0.0
 11
336.981
 21
44.6691
 31
0.0
  0
LINE
  8
0
 62
     0
 10
336.981
 20
44.6691
 30
0.0
 11
336.181
 21
44.6691
 31
0.0
  0
LINE
  8
0
 62
     0
 10
336.181
 20
44.6691
 30
0.0
 11
336.181
 21
45.6681
 31
0.0
  0
LINE
  8
0
 62
     0
 10
336.181
 20
45.6681
 30
0.0
 11
322.181
 21
45.6681
 31
0.0
  0
LINE
  8
0
 62
     0
 10
267.413
 20
64.7181
 30
0.0
 11
267.413
 21
63.7191
 31
0.0
  0
LINE
  8
0
 62
     0
 10
267.413
 20
63.7191
 30
0.0
 11
266.612
 21
63.7191
 31
0.0
  0
LINE
  8
0
 62
     0
 10
266.612
 20
63.7191
 30
0.0
 11
266.612
 21
60.6185
 31
0.0
  0
LINE
  8
0
 62
     0
 10
266.612
 20
60.6185
 30
0.0
 11
267.413
 21
60.6185
 31
0.0
  0
LINE
  8
0
 62
     0
 10
267.413
 20
60.6185
 30
0.0
 11
267.413
 21
60.0177
 31
0.0
  0
LINE
  8
0
 62
     0
 10
267.413
 20
60.0177
 30
0.0
 11
265.887
 21
60.0177
 31
0.0
  0
LINE
  8
0
 62
     0
 10
265.887
 20
60.0177
 30
0.0
 11
265.887
 21
63.2478
 31
0.0
  0
LINE
  8
0
 62
     0
 10
265.887
 20
63.2478
 30
0.0
 11
264.162
 21
63.2478
 31
0.0
  0
LINE
  8
0
 62
     0
 10
264.162
 20
63.2478
 30
0.0
 11
264.162
 21
64.1685
 31
0.0
  0
LINE
  8
0
 62
     0
 10
264.162
 20
64.1685
 30
0.0
 11
260.861
 21
64.1685
 31
0.0
  0
LINE
  8
0
 62
     0
 10
260.861
 20
64.1685
 30
0.0
 11
260.861
 21
63.2478
 31
0.0
  0
LINE
  8
0
 62
     0
 10
260.861
 20
63.2478
 30
0.0
 11
259.137
 21
63.2478
 31
0.0
  0
LINE
  8
0
 62
     0
 10
259.137
 20
63.2478
 30
0.0
 11
259.137
 21
60.0177
 31
0.0
  0
LINE
  8
0
 62
     0
 10
259.137
 20
60.0177
 30
0.0
 11
258.312
 21
60.0177
 31
0.0
  0
LINE
  8
0
 62
     0
 10
258.312
 20
60.0177
 30
0.0
 11
258.312
 21
57.2188
 31
0.0
  0
LINE
  8
0
 62
     0
 10
258.312
 20
57.2188
 30
0.0
 11
259.137
 21
57.2188
 31
0.0
  0
LINE
  8
0
 62
     0
 10
259.137
 20
57.2188
 30
0.0
 11
259.137
 21
50.9475
 31
0.0
  0
LINE
  8
0
 62
     0
 10
259.137
 20
50.9475
 30
0.0
 11
260.861
 21
50.9475
 31
0.0
  0
LINE
  8
0
 62
     0
 10
260.861
 20
50.9475
 30
0.0
 11
260.861
 21
49.9678
 31
0.0
  0
LINE
  8
0
 62
     0
 10
260.861
 20
49.9678
 30
0.0
 11
264.162
 21
49.9678
 31
0.0
  0
LINE
  8
0
 62
     0
 10
264.162
 20
49.9678
 30
0.0
 11
264.162
 21
50.9475
 31
0.0
  0
LINE
  8
0
 62
     0
 10
264.162
 20
50.9475
 30
0.0
 11
265.887
 21
50.9475
 31
0.0
  0
LINE
  8
0
 62
     0
 10
265.887
 20
50.9475
 30
0.0
 11
265.887
 21
55.4179
 31
0.0
  0
LINE
  8
0
 62
     0
 10
265.887
 20
55.4179
 30
0.0
 11
267.413
 21
55.4179
 31
0.0
  0
LINE
  8
0
 62
     0
 10
267.413
 20
55.4179
 30
0.0
 11
267.413
 21
54.8185
 31
0.0
  0
LINE
  8
0
 62
     0
 10
267.413
 20
54.8185
 30
0.0
 11
266.612
 21
54.8185
 31
0.0
  0
LINE
  8
0
 62
     0
 10
266.612
 20
54.8185
 30
0.0
 11
266.612
 21
51.7179
 31
0.0
  0
LINE
  8
0
 62
     0
 10
266.612
 20
51.7179
 30
0.0
 11
267.413
 21
51.7179
 31
0.0
  0
LINE
  8
0
 62
     0
 10
267.413
 20
51.7179
 30
0.0
 11
267.413
 21
50.7189
 31
0.0
  0
LINE
  8
0
 62
     0
 10
267.413
 20
50.7189
 30
0.0
 11
281.412
 21
50.7189
 31
0.0
  0
LINE
  8
0
 62
     0
 10
281.412
 20
50.7189
 30
0.0
 11
281.412
 21
51.7179
 31
0.0
  0
LINE
  8
0
 62
     0
 10
281.412
 20
51.7179
 30
0.0
 11
282.211
 21
51.7179
 31
0.0
  0
LINE
  8
0
 62
     0
 10
282.211
 20
51.7179
 30
0.0
 11
282.211
 21
54.8185
 31
0.0
  0
LINE
  8
0
 62
     0
 10
282.211
 20
54.8185
 30
0.0
 11
281.412
 21
54.8185
 31
0.0
  0
LINE
  8
0
 62
     0
 10
281.412
 20
54.8185
 30
0.0
 11
281.412
 21
55.4179
 31
0.0
  0
LINE
  8
0
 62
     0
 10
281.412
 20
55.4179
 30
0.0
 11
282.937
 21
55.4179
 31
0.0
  0
LINE
  8
0
 62
     0
 10
282.937
 20
55.4179
 30
0.0
 11
282.937
 21
50.9475
 31
0.0
  0
LINE
  8
0
 62
     0
 10
282.937
 20
50.9475
 30
0.0
 11
284.661
 21
50.9475
 31
0.0
  0
LINE
  8
0
 62
     0
 10
284.661
 20
50.9475
 30
0.0
 11
284.661
 21
49.9678
 31
0.0
  0
LINE
  8
0
 62
     0
 10
284.661
 20
49.9678
 30
0.0
 11
287.962
 21
49.9678
 31
0.0
  0
LINE
  8
0
 62
     0
 10
287.962
 20
49.9678
 30
0.0
 11
287.962
 21
50.9475
 31
0.0
  0
LINE
  8
0
 62
     0
 10
287.962
 20
50.9475
 30
0.0
 11
289.687
 21
50.9475
 31
0.0
  0
LINE
  8
0
 62
     0
 10
289.687
 20
50.9475
 30
0.0
 11
289.687
 21
57.2188
 31
0.0
  0
LINE
  8
0
 62
     0
 10
289.687
 20
57.2188
 30
0.0
 11
290.511
 21
57.2188
 31
0.0
  0
LINE
  8
0
 62
     0
 10
290.511
 20
57.2188
 30
0.0
 11
290.511
 21
60.0177
 31
0.0
  0
LINE
  8
0
 62
     0
 10
290.511
 20
60.0177
 30
0.0
 11
289.687
 21
60.0177
 31
0.0
  0
LINE
  8
0
 62
     0
 10
289.687
 20
60.0177
 30
0.0
 11
289.687
 21
63.2478
 31
0.0
  0
LINE
  8
0
 62
     0
 10
289.687
 20
63.2478
 30
0.0
 11
287.962
 21
63.2478
 31
0.0
  0
LINE
  8
0
 62
     0
 10
287.962
 20
63.2478
 30
0.0
 11
287.962
 21
64.1685
 31
0.0
  0
LINE
  8
0
 62
     0
 10
287.962
 20
64.1685
 30
0.0
 11
284.661
 21
64.1685
 31
0.0
  0
LINE
  8
0
 62
     0
 10
284.661
 20
64.1685
 30
0.0
 11
284.661
 21
63.2478
 31
0.0
  0
LINE
  8
0
 62
     0
 10
284.661
 20
63.2478
 30
0.0
 11
282.937
 21
63.2478
 31
0.0
  0
LINE
  8
0
 62
     0
 10
282.937
 20
63.2478
 30
0.0
 11
282.937
 21
60.0177
 31
0.0
  0
LINE
  8
0
 62
     0
 10
282.937
 20
60.0177
 30
0.0
 11
281.412
 21
60.0177
 31
0.0
  0
LINE
  8
0
 62
     0
 10
281.412
 20
60.0177
 30
0.0
 11
281.412
 21
60.6185
 31
0.0
  0
LINE
  8
0
 62
     0
 10
281.412
 20
60.6185
 30
0.0
 11
282.211
 21
60.6185
 31
0.0
  0
LINE
  8
0
 62
     0
 10
282.211
 20
60.6185
 30
0.0
 11
282.211
 21
63.7191
 31
0.0
  0
LINE
  8
0
 62
     0
 10
282.211
 20
63.7191
 30
0.0
 11
281.412
 21
63.7191
 31
0.0
  0
LINE
  8
0
 62
     0
 10
281.412
 20
63.7191
 30
0.0
 11
281.412
 21
64.7181
 31
0.0
  0
LINE
  8
0
 62
     0
 10
281.412
 20
64.7181
 30
0.0
 11
267.413
 21
64.7181
 31
0.0
  0
LINE
  8
0
 62
     0
 10
19.7611
 20
64.7181
 30
0.0
 11
19.7611
 21
63.7191
 31
0.0
  0
LINE
  8
0
 62
     0
 10
19.7611
 20
63.7191
 30
0.0
 11
18.9618
 21
63.7191
 31
0.0
  0
LINE
  8
0
 62
     0
 10
18.9618
 20
63.7191
 30
0.0
 11
18.9618
 21
60.6185
 31
0.0
  0
LINE
  8
0
 62
     0
 10
18.9618
 20
60.6185
 30
0.0
 11
19.7611
 21
60.6185
 31
0.0
  0
LINE
  8
0
 62
     0
 10
19.7611
 20
60.6185
 30
0.0
 11
19.7611
 21
54.8185
 31
0.0
  0
LINE
  8
0
 62
     0
 10
19.7611
 20
54.8185
 30
0.0
 11
18.9618
 21
54.8185
 31
0.0
  0
LINE
  8
0
 62
     0
 10
18.9618
 20
54.8185
 30
0.0
 11
18.9618
 21
51.7179
 31
0.0
  0
LINE
  8
0
 62
     0
 10
18.9618
 20
51.7179
 30
0.0
 11
19.7611
 21
51.7179
 31
0.0
  0
LINE
  8
0
 62
     0
 10
19.7611
 20
51.7179
 30
0.0
 11
19.7611
 21
50.7189
 31
0.0
  0
LINE
  8
0
 62
     0
 10
19.7611
 20
50.7189
 30
0.0
 11
33.7619
 21
50.7189
 31
0.0
  0
LINE
  8
0
 62
     0
 10
33.7619
 20
50.7189
 30
0.0
 11
33.7619
 21
51.7179
 31
0.0
  0
LINE
  8
0
 62
     0
 10
33.7619
 20
51.7179
 30
0.0
 11
34.5612
 21
51.7179
 31
0.0
  0
LINE
  8
0
 62
     0
 10
34.5612
 20
51.7179
 30
0.0
 11
34.5612
 21
54.8185
 31
0.0
  0
LINE
  8
0
 62
     0
 10
34.5612
 20
54.8185
 30
0.0
 11
33.7619
 21
54.8185
 31
0.0
  0
LINE
  8
0
 62
     0
 10
33.7619
 20
54.8185
 30
0.0
 11
33.7619
 21
60.6185
 31
0.0
  0
LINE
  8
0
 62
     0
 10
33.7619
 20
60.6185
 30
0.0
 11
34.5612
 21
60.6185
 31
0.0
  0
LINE
  8
0
 62
     0
 10
34.5612
 20
60.6185
 30
0.0
 11
34.5612
 21
63.7191
 31
0.0
  0
LINE
  8
0
 62
     0
 10
34.5612
 20
63.7191
 30
0.0
 11
33.7619
 21
63.7191
 31
0.0
  0
LINE
  8
0
 62
     0
 10
33.7619
 20
63.7191
 30
0.0
 11
33.7619
 21
64.7181
 31
0.0
  0
LINE
  8
0
 62
     0
 10
33.7619
 20
64.7181
 30
0.0
 11
19.7611
 21
64.7181
 31
0.0
  0
LINE
  8
0
 62
     0
 10
45.9564
 20
64.7181
 30
0.0
 11
45.9564
 21
63.7191
 31
0.0
  0
LINE
  8
0
 62
     0
 10
45.9564
 20
63.7191
 30
0.0
 11
45.1556
 21
63.7191
 31
0.0
  0
LINE
  8
0
 62
     0
 10
45.1556
 20
63.7191
 30
0.0
 11
45.1556
 21
60.6185
 31
0.0
  0
LINE
  8
0
 62
     0
 10
45.1556
 20
60.6185
 30
0.0
 11
45.9564
 21
60.6185
 31
0.0
  0
LINE
  8
0
 62
     0
 10
45.9564
 20
60.6185
 30
0.0
 11
45.9564
 21
54.8185
 31
0.0
  0
LINE
  8
0
 62
     0
 10
45.9564
 20
54.8185
 30
0.0
 11
45.1556
 21
54.8185
 31
0.0
  0
LINE
  8
0
 62
     0
 10
45.1556
 20
54.8185
 30
0.0
 11
45.1556
 21
51.7179
 31
0.0
  0
LINE
  8
0
 62
     0
 10
45.1556
 20
51.7179
 30
0.0
 11
45.9564
 21
51.7179
 31
0.0
  0
LINE
  8
0
 62
     0
 10
45.9564
 20
51.7179
 30
0.0
 11
45.9564
 21
50.7189
 31
0.0
  0
LINE
  8
0
 62
     0
 10
45.9564
 20
50.7189
 30
0.0
 11
59.9542
 21
50.7189
 31
0.0
  0
LINE
  8
0
 62
     0
 10
59.9542
 20
50.7189
 30
0.0
 11
59.9542
 21
51.7179
 31
0.0
  0
LINE
  8
0
 62
     0
 10
59.9542
 20
51.7179
 30
0.0
 11
60.7564
 21
51.7179
 31
0.0
  0
LINE
  8
0
 62
     0
 10
60.7564
 20
51.7179
 30
0.0
 11
60.7564
 21
54.8185
 31
0.0
  0
LINE
  8
0
 62
     0
 10
60.7564
 20
54.8185
 30
0.0
 11
59.9542
 21
54.8185
 31
0.0
  0
LINE
  8
0
 62
     0
 10
59.9542
 20
54.8185
 30
0.0
 11
59.9542
 21
60.6185
 31
0.0
  0
LINE
  8
0
 62
     0
 10
59.9542
 20
60.6185
 30
0.0
 11
60.7564
 21
60.6185
 31
0.0
  0
LINE
  8
0
 62
     0
 10
60.7564
 20
60.6185
 30
0.0
 11
60.7564
 21
63.7191
 31
0.0
  0
LINE
  8
0
 62
     0
 10
60.7564
 20
63.7191
 30
0.0
 11
59.9542
 21
63.7191
 31
0.0
  0
LINE
  8
0
 62
     0
 10
59.9542
 20
63.7191
 30
0.0
 11
59.9542
 21
64.7181
 31
0.0
  0
LINE
  8
0
 62
     0
 10
59.9542
 20
64.7181
 30
0.0
 11
45.9564
 21
64.7181
 31
0.0
  0
LINE
  8
0
 62
     0
 10
65.0064
 20
64.7181
 30
0.0
 11
65.0064
 21
63.7191
 31
0.0
  0
LINE
  8
0
 62
     0
 10
65.0064
 20
63.7191
 30
0.0
 11
64.2056
 21
63.7191
 31
0.0
  0
LINE
  8
0
 62
     0
 10
64.2056
 20
63.7191
 30
0.0
 11
64.2056
 21
60.6185
 31
0.0
  0
LINE
  8
0
 62
     0
 10
64.2056
 20
60.6185
 30
0.0
 11
65.0064
 21
60.6185
 31
0.0
  0
LINE
  8
0
 62
     0
 10
65.0064
 20
60.6185
 30
0.0
 11
65.0064
 21
54.8185
 31
0.0
  0
LINE
  8
0
 62
     0
 10
65.0064
 20
54.8185
 30
0.0
 11
64.2056
 21
54.8185
 31
0.0
  0
LINE
  8
0
 62
     0
 10
64.2056
 20
54.8185
 30
0.0
 11
64.2056
 21
51.7179
 31
0.0
  0
LINE
  8
0
 62
     0
 10
64.2056
 20
51.7179
 30
0.0
 11
65.0064
 21
51.7179
 31
0.0
  0
LINE
  8
0
 62
     0
 10
65.0064
 20
51.7179
 30
0.0
 11
65.0064
 21
50.7189
 31
0.0
  0
LINE
  8
0
 62
     0
 10
65.0064
 20
50.7189
 30
0.0
 11
79.0056
 21
50.7189
 31
0.0
  0
LINE
  8
0
 62
     0
 10
79.0056
 20
50.7189
 30
0.0
 11
79.0056
 21
51.7179
 31
0.0
  0
LINE
  8
0
 62
     0
 10
79.0056
 20
51.7179
 30
0.0
 11
79.8065
 21
51.7179
 31
0.0
  0
LINE
  8
0
 62
     0
 10
79.8065
 20
51.7179
 30
0.0
 11
79.8065
 21
54.8185
 31
0.0
  0
LINE
  8
0
 62
     0
 10
79.8065
 20
54.8185
 30
0.0
 11
79.0056
 21
54.8185
 31
0.0
  0
LINE
  8
0
 62
     0
 10
79.0056
 20
54.8185
 30
0.0
 11
79.0056
 21
60.6185
 31
0.0
  0
LINE
  8
0
 62
     0
 10
79.0056
 20
60.6185
 30
0.0
 11
79.8065
 21
60.6185
 31
0.0
  0
LINE
  8
0
 62
     0
 10
79.8065
 20
60.6185
 30
0.0
 11
79.8065
 21
63.7191
 31
0.0
  0
LINE
  8
0
 62
     0
 10
79.8065
 20
63.7191
 30
0.0
 11
79.0056
 21
63.7191
 31
0.0
  0
LINE
  8
0
 62
     0
 10
79.0056
 20
63.7191
 30
0.0
 11
79.0056
 21
64.7181
 31
0.0
  0
LINE
  8
0
 62
     0
 10
79.0056
 20
64.7181
 30
0.0
 11
65.0064
 21
64.7181
 31
0.0
  0
LINE
  8
0
 62
     0
 10
84.0564
 20
64.7181
 30
0.0
 11
84.0564
 21
63.7191
 31
0.0
  0
LINE
  8
0
 62
     0
 10
84.0564
 20
63.7191
 30
0.0
 11
83.2556
 21
63.7191
 31
0.0
  0
LINE
  8
0
 62
     0
 10
83.2556
 20
63.7191
 30
0.0
 11
83.2556
 21
60.6185
 31
0.0
  0
LINE
  8
0
 62
     0
 10
83.2556
 20
60.6185
 30
0.0
 11
84.0564
 21
60.6185
 31
0.0
  0
LINE
  8
0
 62
     0
 10
84.0564
 20
60.6185
 30
0.0
 11
84.0564
 21
54.8185
 31
0.0
  0
LINE
  8
0
 62
     0
 10
84.0564
 20
54.8185
 30
0.0
 11
83.2556
 21
54.8185
 31
0.0
  0
LINE
  8
0
 62
     0
 10
83.2556
 20
54.8185
 30
0.0
 11
83.2556
 21
51.7179
 31
0.0
  0
LINE
  8
0
 62
     0
 10
83.2556
 20
51.7179
 30
0.0
 11
84.0564
 21
51.7179
 31
0.0
  0
LINE
  8
0
 62
     0
 10
84.0564
 20
51.7179
 30
0.0
 11
84.0564
 21
50.7189
 31
0.0
  0
LINE
  8
0
 62
     0
 10
84.0564
 20
50.7189
 30
0.0
 11
98.0556
 21
50.7189
 31
0.0
  0
LINE
  8
0
 62
     0
 10
98.0556
 20
50.7189
 30
0.0
 11
98.0556
 21
51.7179
 31
0.0
  0
LINE
  8
0
 62
     0
 10
98.0556
 20
51.7179
 30
0.0
 11
98.8564
 21
51.7179
 31
0.0
  0
LINE
  8
0
 62
     0
 10
98.8564
 20
51.7179
 30
0.0
 11
98.8564
 21
54.8185
 31
0.0
  0
LINE
  8
0
 62
     0
 10
98.8564
 20
54.8185
 30
0.0
 11
98.0556
 21
54.8185
 31
0.0
  0
LINE
  8
0
 62
     0
 10
98.0556
 20
54.8185
 30
0.0
 11
98.0556
 21
60.6185
 31
0.0
  0
LINE
  8
0
 62
     0
 10
98.0556
 20
60.6185
 30
0.0
 11
98.8564
 21
60.6185
 31
0.0
  0
LINE
  8
0
 62
     0
 10
98.8564
 20
60.6185
 30
0.0
 11
98.8564
 21
63.7191
 31
0.0
  0
LINE
  8
0
 62
     0
 10
98.8564
 20
63.7191
 30
0.0
 11
98.0556
 21
63.7191
 31
0.0
  0
LINE
  8
0
 62
     0
 10
98.0556
 20
63.7191
 30
0.0
 11
98.0556
 21
64.7181
 31
0.0
  0
LINE
  8
0
 62
     0
 10
98.0556
 20
64.7181
 30
0.0
 11
84.0564
 21
64.7181
 31
0.0
  0
LINE
  8
0
 62
     0
 10
103.106
 20
64.7181
 30
0.0
 11
103.106
 21
63.7191
 31
0.0
  0
LINE
  8
0
 62
     0
 10
103.106
 20
63.7191
 30
0.0
 11
102.306
 21
63.7191
 31
0.0
  0
LINE
  8
0
 62
     0
 10
102.306
 20
63.7191
 30
0.0
 11
102.306
 21
60.6185
 31
0.0
  0
LINE
  8
0
 62
     0
 10
102.306
 20
60.6185
 30
0.0
 11
103.106
 21
60.6185
 31
0.0
  0
LINE
  8
0
 62
     0
 10
103.106
 20
60.6185
 30
0.0
 11
103.106
 21
54.8185
 31
0.0
  0
LINE
  8
0
 62
     0
 10
103.106
 20
54.8185
 30
0.0
 11
102.306
 21
54.8185
 31
0.0
  0
LINE
  8
0
 62
     0
 10
102.306
 20
54.8185
 30
0.0
 11
102.306
 21
51.7179
 31
0.0
  0
LINE
  8
0
 62
     0
 10
102.306
 20
51.7179
 30
0.0
 11
103.106
 21
51.7179
 31
0.0
  0
LINE
  8
0
 62
     0
 10
103.106
 20
51.7179
 30
0.0
 11
103.106
 21
50.7189
 31
0.0
  0
LINE
  8
0
 62
     0
 10
103.106
 20
50.7189
 30
0.0
 11
117.106
 21
50.7189
 31
0.0
  0
LINE
  8
0
 62
     0
 10
117.106
 20
50.7189
 30
0.0
 11
117.106
 21
51.7179
 31
0.0
  0
LINE
  8
0
 62
     0
 10
117.106
 20
51.7179
 30
0.0
 11
117.906
 21
51.7179
 31
0.0
  0
LINE
  8
0
 62
     0
 10
117.906
 20
51.7179
 30
0.0
 11
117.906
 21
54.8185
 31
0.0
  0
LINE
  8
0
 62
     0
 10
117.906
 20
54.8185
 30
0.0
 11
117.106
 21
54.8185
 31
0.0
  0
LINE
  8
0
 62
     0
 10
117.106
 20
54.8185
 30
0.0
 11
117.106
 21
60.6185
 31
0.0
  0
LINE
  8
0
 62
     0
 10
117.106
 20
60.6185
 30
0.0
 11
117.906
 21
60.6185
 31
0.0
  0
LINE
  8
0
 62
     0
 10
117.906
 20
60.6185
 30
0.0
 11
117.906
 21
63.7191
 31
0.0
  0
LINE
  8
0
 62
     0
 10
117.906
 20
63.7191
 30
0.0
 11
117.106
 21
63.7191
 31
0.0
  0
LINE
  8
0
 62
     0
 10
117.106
 20
63.7191
 30
0.0
 11
117.106
 21
64.7181
 31
0.0
  0
LINE
  8
0
 62
     0
 10
117.106
 20
64.7181
 30
0.0
 11
103.106
 21
64.7181
 31
0.0
  0
LINE
  8
0
 62
     0
 10
122.156
 20
64.7181
 30
0.0
 11
122.156
 21
63.7191
 31
0.0
  0
LINE
  8
0
 62
     0
 10
122.156
 20
63.7191
 30
0.0
 11
121.356
 21
63.7191
 31
0.0
  0
LINE
  8
0
 62
     0
 10
121.356
 20
63.7191
 30
0.0
 11
121.356
 21
60.6185
 31
0.0
  0
LINE
  8
0
 62
     0
 10
121.356
 20
60.6185
 30
0.0
 11
122.156
 21
60.6185
 31
0.0
  0
LINE
  8
0
 62
     0
 10
122.156
 20
60.6185
 30
0.0
 11
122.156
 21
54.8185
 31
0.0
  0
LINE
  8
0
 62
     0
 10
122.156
 20
54.8185
 30
0.0
 11
121.356
 21
54.8185
 31
0.0
  0
LINE
  8
0
 62
     0
 10
121.356
 20
54.8185
 30
0.0
 11
121.356
 21
51.7179
 31
0.0
  0
LINE
  8
0
 62
     0
 10
121.356
 20
51.7179
 30
0.0
 11
122.156
 21
51.7179
 31
0.0
  0
LINE
  8
0
 62
     0
 10
122.156
 20
51.7179
 30
0.0
 11
122.156
 21
50.7189
 31
0.0
  0
LINE
  8
0
 62
     0
 10
122.156
 20
50.7189
 30
0.0
 11
136.156
 21
50.7189
 31
0.0
  0
LINE
  8
0
 62
     0
 10
136.156
 20
50.7189
 30
0.0
 11
136.156
 21
51.7179
 31
0.0
  0
LINE
  8
0
 62
     0
 10
136.156
 20
51.7179
 30
0.0
 11
136.956
 21
51.7179
 31
0.0
  0
LINE
  8
0
 62
     0
 10
136.956
 20
51.7179
 30
0.0
 11
136.956
 21
54.8185
 31
0.0
  0
LINE
  8
0
 62
     0
 10
136.956
 20
54.8185
 30
0.0
 11
136.156
 21
54.8185
 31
0.0
  0
LINE
  8
0
 62
     0
 10
136.156
 20
54.8185
 30
0.0
 11
136.156
 21
60.6185
 31
0.0
  0
LINE
  8
0
 62
     0
 10
136.156
 20
60.6185
 30
0.0
 11
136.956
 21
60.6185
 31
0.0
  0
LINE
  8
0
 62
     0
 10
136.956
 20
60.6185
 30
0.0
 11
136.956
 21
63.7191
 31
0.0
  0
LINE
  8
0
 62
     0
 10
136.956
 20
63.7191
 30
0.0
 11
136.156
 21
63.7191
 31
0.0
  0
LINE
  8
0
 62
     0
 10
136.156
 20
63.7191
 30
0.0
 11
136.156
 21
64.7181
 31
0.0
  0
LINE
  8
0
 62
     0
 10
136.156
 20
64.7181
 30
0.0
 11
122.156
 21
64.7181
 31
0.0
  0
LINE
  8
0
 62
     0
 10
141.206
 20
64.7181
 30
0.0
 11
141.206
 21
63.7191
 31
0.0
  0
LINE
  8
0
 62
     0
 10
141.206
 20
63.7191
 30
0.0
 11
140.406
 21
63.7191
 31
0.0
  0
LINE
  8
0
 62
     0
 10
140.406
 20
63.7191
 30
0.0
 11
140.406
 21
60.6185
 31
0.0
  0
LINE
  8
0
 62
     0
 10
140.406
 20
60.6185
 30
0.0
 11
141.206
 21
60.6185
 31
0.0
  0
LINE
  8
0
 62
     0
 10
141.206
 20
60.6185
 30
0.0
 11
141.206
 21
54.8185
 31
0.0
  0
LINE
  8
0
 62
     0
 10
141.206
 20
54.8185
 30
0.0
 11
140.406
 21
54.8185
 31
0.0
  0
LINE
  8
0
 62
     0
 10
140.406
 20
54.8185
 30
0.0
 11
140.406
 21
51.7179
 31
0.0
  0
LINE
  8
0
 62
     0
 10
140.406
 20
51.7179
 30
0.0
 11
141.206
 21
51.7179
 31
0.0
  0
LINE
  8
0
 62
     0
 10
141.206
 20
51.7179
 30
0.0
 11
141.206
 21
50.7189
 31
0.0
  0
LINE
  8
0
 62
     0
 10
141.206
 20
50.7189
 30
0.0
 11
155.206
 21
50.7189
 31
0.0
  0
LINE
  8
0
 62
     0
 10
155.206
 20
50.7189
 30
0.0
 11
155.206
 21
51.7179
 31
0.0
  0
LINE
  8
0
 62
     0
 10
155.206
 20
51.7179
 30
0.0
 11
156.006
 21
51.7179
 31
0.0
  0
LINE
  8
0
 62
     0
 10
156.006
 20
51.7179
 30
0.0
 11
156.006
 21
54.8185
 31
0.0
  0
LINE
  8
0
 62
     0
 10
156.006
 20
54.8185
 30
0.0
 11
155.206
 21
54.8185
 31
0.0
  0
LINE
  8
0
 62
     0
 10
155.206
 20
54.8185
 30
0.0
 11
155.206
 21
60.6185
 31
0.0
  0
LINE
  8
0
 62
     0
 10
155.206
 20
60.6185
 30
0.0
 11
156.006
 21
60.6185
 31
0.0
  0
LINE
  8
0
 62
     0
 10
156.006
 20
60.6185
 30
0.0
 11
156.006
 21
63.7191
 31
0.0
  0
LINE
  8
0
 62
     0
 10
156.006
 20
63.7191
 30
0.0
 11
155.206
 21
63.7191
 31
0.0
  0
LINE
  8
0
 62
     0
 10
155.206
 20
63.7191
 30
0.0
 11
155.206
 21
64.7181
 31
0.0
  0
LINE
  8
0
 62
     0
 10
155.206
 20
64.7181
 30
0.0
 11
141.206
 21
64.7181
 31
0.0
  0
LINE
  8
0
 62
     0
 10
160.256
 20
64.7181
 30
0.0
 11
160.256
 21
63.7191
 31
0.0
  0
LINE
  8
0
 62
     0
 10
160.256
 20
63.7191
 30
0.0
 11
159.456
 21
63.7191
 31
0.0
  0
LINE
  8
0
 62
     0
 10
159.456
 20
63.7191
 30
0.0
 11
159.456
 21
60.6185
 31
0.0
  0
LINE
  8
0
 62
     0
 10
159.456
 20
60.6185
 30
0.0
 11
160.256
 21
60.6185
 31
0.0
  0
LINE
  8
0
 62
     0
 10
160.256
 20
60.6185
 30
0.0
 11
160.256
 21
54.8185
 31
0.0
  0
LINE
  8
0
 62
     0
 10
160.256
 20
54.8185
 30
0.0
 11
159.456
 21
54.8185
 31
0.0
  0
LINE
  8
0
 62
     0
 10
159.456
 20
54.8185
 30
0.0
 11
159.456
 21
51.7179
 31
0.0
  0
LINE
  8
0
 62
     0
 10
159.456
 20
51.7179
 30
0.0
 11
160.256
 21
51.7179
 31
0.0
  0
LINE
  8
0
 62
     0
 10
160.256
 20
51.7179
 30
0.0
 11
160.256
 21
50.7189
 31
0.0
  0
LINE
  8
0
 62
     0
 10
160.256
 20
50.7189
 30
0.0
 11
174.256
 21
50.7189
 31
0.0
  0
LINE
  8
0
 62
     0
 10
174.256
 20
50.7189
 30
0.0
 11
174.256
 21
51.7179
 31
0.0
  0
LINE
  8
0
 62
     0
 10
174.256
 20
51.7179
 30
0.0
 11
175.056
 21
51.7179
 31
0.0
  0
LINE
  8
0
 62
     0
 10
175.056
 20
51.7179
 30
0.0
 11
175.056
 21
54.8185
 31
0.0
  0
LINE
  8
0
 62
     0
 10
175.056
 20
54.8185
 30
0.0
 11
174.256
 21
54.8185
 31
0.0
  0
LINE
  8
0
 62
     0
 10
174.256
 20
54.8185
 30
0.0
 11
174.256
 21
60.6185
 31
0.0
  0
LINE
  8
0
 62
     0
 10
174.256
 20
60.6185
 30
0.0
 11
175.056
 21
60.6185
 31
0.0
  0
LINE
  8
0
 62
     0
 10
175.056
 20
60.6185
 30
0.0
 11
175.056
 21
63.7191
 31
0.0
  0
LINE
  8
0
 62
     0
 10
175.056
 20
63.7191
 30
0.0
 11
174.256
 21
63.7191
 31
0.0
  0
LINE
  8
0
 62
     0
 10
174.256
 20
63.7191
 30
0.0
 11
174.256
 21
64.7181
 31
0.0
  0
LINE
  8
0
 62
     0
 10
174.256
 20
64.7181
 30
0.0
 11
160.256
 21
64.7181
 31
0.0
  0
LINE
  8
0
 62
     0
 10
179.306
 20
64.7181
 30
0.0
 11
179.306
 21
63.7191
 31
0.0
  0
LINE
  8
0
 62
     0
 10
179.306
 20
63.7191
 30
0.0
 11
178.506
 21
63.7191
 31
0.0
  0
LINE
  8
0
 62
     0
 10
178.506
 20
63.7191
 30
0.0
 11
178.506
 21
60.6185
 31
0.0
  0
LINE
  8
0
 62
     0
 10
178.506
 20
60.6185
 30
0.0
 11
179.306
 21
60.6185
 31
0.0
  0
LINE
  8
0
 62
     0
 10
179.306
 20
60.6185
 30
0.0
 11
179.306
 21
54.8185
 31
0.0
  0
LINE
  8
0
 62
     0
 10
179.306
 20
54.8185
 30
0.0
 11
178.506
 21
54.8185
 31
0.0
  0
LINE
  8
0
 62
     0
 10
178.506
 20
54.8185
 30
0.0
 11
178.506
 21
51.7179
 31
0.0
  0
LINE
  8
0
 62
     0
 10
178.506
 20
51.7179
 30
0.0
 11
179.306
 21
51.7179
 31
0.0
  0
LINE
  8
0
 62
     0
 10
179.306
 20
51.7179
 30
0.0
 11
179.306
 21
50.7189
 31
0.0
  0
LINE
  8
0
 62
     0
 10
179.306
 20
50.7189
 30
0.0
 11
193.306
 21
50.7189
 31
0.0
  0
LINE
  8
0
 62
     0
 10
193.306
 20
50.7189
 30
0.0
 11
193.306
 21
51.7179
 31
0.0
  0
LINE
  8
0
 62
     0
 10
193.306
 20
51.7179
 30
0.0
 11
194.106
 21
51.7179
 31
0.0
  0
LINE
  8
0
 62
     0
 10
194.106
 20
51.7179
 30
0.0
 11
194.106
 21
54.8185
 31
0.0
  0
LINE
  8
0
 62
     0
 10
194.106
 20
54.8185
 30
0.0
 11
193.306
 21
54.8185
 31
0.0
  0
LINE
  8
0
 62
     0
 10
193.306
 20
54.8185
 30
0.0
 11
193.306
 21
60.6185
 31
0.0
  0
LINE
  8
0
 62
     0
 10
193.306
 20
60.6185
 30
0.0
 11
194.106
 21
60.6185
 31
0.0
  0
LINE
  8
0
 62
     0
 10
194.106
 20
60.6185
 30
0.0
 11
194.106
 21
63.7191
 31
0.0
  0
LINE
  8
0
 62
     0
 10
194.106
 20
63.7191
 30
0.0
 11
193.306
 21
63.7191
 31
0.0
  0
LINE
  8
0
 62
     0
 10
193.306
 20
63.7191
 30
0.0
 11
193.306
 21
64.7181
 31
0.0
  0
LINE
  8
0
 62
     0
 10
193.306
 20
64.7181
 30
0.0
 11
179.306
 21
64.7181
 31
0.0
  0
LINE
  8
0
 62
     0
 10
198.356
 20
64.7181
 30
0.0
 11
198.356
 21
63.7191
 31
0.0
  0
LINE
  8
0
 62
     0
 10
198.356
 20
63.7191
 30
0.0
 11
197.556
 21
63.7191
 31
0.0
  0
LINE
  8
0
 62
     0
 10
197.556
 20
63.7191
 30
0.0
 11
197.556
 21
60.6185
 31
0.0
  0
LINE
  8
0
 62
     0
 10
197.556
 20
60.6185
 30
0.0
 11
198.356
 21
60.6185
 31
0.0
  0
LINE
  8
0
 62
     0
 10
198.356
 20
60.6185
 30
0.0
 11
198.356
 21
54.8185
 31
0.0
  0
LINE
  8
0
 62
     0
 10
198.356
 20
54.8185
 30
0.0
 11
197.556
 21
54.8185
 31
0.0
  0
LINE
  8
0
 62
     0
 10
197.556
 20
54.8185
 30
0.0
 11
197.556
 21
51.7179
 31
0.0
  0
LINE
  8
0
 62
     0
 10
197.556
 20
51.7179
 30
0.0
 11
198.356
 21
51.7179
 31
0.0
  0
LINE
  8
0
 62
     0
 10
198.356
 20
51.7179
 30
0.0
 11
198.356
 21
50.7189
 31
0.0
  0
LINE
  8
0
 62
     0
 10
198.356
 20
50.7189
 30
0.0
 11
212.356
 21
50.7189
 31
0.0
  0
LINE
  8
0
 62
     0
 10
212.356
 20
50.7189
 30
0.0
 11
212.356
 21
51.7179
 31
0.0
  0
LINE
  8
0
 62
     0
 10
212.356
 20
51.7179
 30
0.0
 11
213.156
 21
51.7179
 31
0.0
  0
LINE
  8
0
 62
     0
 10
213.156
 20
51.7179
 30
0.0
 11
213.156
 21
54.8185
 31
0.0
  0
LINE
  8
0
 62
     0
 10
213.156
 20
54.8185
 30
0.0
 11
212.356
 21
54.8185
 31
0.0
  0
LINE
  8
0
 62
     0
 10
212.356
 20
54.8185
 30
0.0
 11
212.356
 21
60.6185
 31
0.0
  0
LINE
  8
0
 62
     0
 10
212.356
 20
60.6185
 30
0.0
 11
213.156
 21
60.6185
 31
0.0
  0
LINE
  8
0
 62
     0
 10
213.156
 20
60.6185
 30
0.0
 11
213.156
 21
63.7191
 31
0.0
  0
LINE
  8
0
 62
     0
 10
213.156
 20
63.7191
 30
0.0
 11
212.356
 21
63.7191
 31
0.0
  0
LINE
  8
0
 62
     0
 10
212.356
 20
63.7191
 30
0.0
 11
212.356
 21
64.7181
 31
0.0
  0
LINE
  8
0
 62
     0
 10
212.356
 20
64.7181
 30
0.0
 11
198.356
 21
64.7181
 31
0.0
  0
LINE
  8
0
 62
     0
 10
217.406
 20
64.7181
 30
0.0
 11
217.406
 21
63.7191
 31
0.0
  0
LINE
  8
0
 62
     0
 10
217.406
 20
63.7191
 30
0.0
 11
216.606
 21
63.7191
 31
0.0
  0
LINE
  8
0
 62
     0
 10
216.606
 20
63.7191
 30
0.0
 11
216.606
 21
60.6185
 31
0.0
  0
LINE
  8
0
 62
     0
 10
216.606
 20
60.6185
 30
0.0
 11
217.406
 21
60.6185
 31
0.0
  0
LINE
  8
0
 62
     0
 10
217.406
 20
60.6185
 30
0.0
 11
217.406
 21
54.8185
 31
0.0
  0
LINE
  8
0
 62
     0
 10
217.406
 20
54.8185
 30
0.0
 11
216.606
 21
54.8185
 31
0.0
  0
LINE
  8
0
 62
     0
 10
216.606
 20
54.8185
 30
0.0
 11
216.606
 21
51.7179
 31
0.0
  0
LINE
  8
0
 62
     0
 10
216.606
 20
51.7179
 30
0.0
 11
217.406
 21
51.7179
 31
0.0
  0
LINE
  8
0
 62
     0
 10
217.406
 20
51.7179
 30
0.0
 11
217.406
 21
50.7189
 31
0.0
  0
LINE
  8
0
 62
     0
 10
217.406
 20
50.7189
 30
0.0
 11
231.406
 21
50.7189
 31
0.0
  0
LINE
  8
0
 62
     0
 10
231.406
 20
50.7189
 30
0.0
 11
231.406
 21
51.7179
 31
0.0
  0
LINE
  8
0
 62
     0
 10
231.406
 20
51.7179
 30
0.0
 11
232.206
 21
51.7179
 31
0.0
  0
LINE
  8
0
 62
     0
 10
232.206
 20
51.7179
 30
0.0
 11
232.206
 21
54.8185
 31
0.0
  0
LINE
  8
0
 62
     0
 10
232.206
 20
54.8185
 30
0.0
 11
231.406
 21
54.8185
 31
0.0
  0
LINE
  8
0
 62
     0
 10
231.406
 20
54.8185
 30
0.0
 11
231.406
 21
60.6185
 31
0.0
  0
LINE
  8
0
 62
     0
 10
231.406
 20
60.6185
 30
0.0
 11
232.206
 21
60.6185
 31
0.0
  0
LINE
  8
0
 62
     0
 10
232.206
 20
60.6185
 30
0.0
 11
232.206
 21
63.7191
 31
0.0
  0
LINE
  8
0
 62
     0
 10
232.206
 20
63.7191
 30
0.0
 11
231.406
 21
63.7191
 31
0.0
  0
LINE
  8
0
 62
     0
 10
231.406
 20
63.7191
 30
0.0
 11
231.406
 21
64.7181
 31
0.0
  0
LINE
  8
0
 62
     0
 10
231.406
 20
64.7181
 30
0.0
 11
217.406
 21
64.7181
 31
0.0
  0
LINE
  8
0
 62
     0
 10
236.456
 20
64.7181
 30
0.0
 11
236.456
 21
63.7191
 31
0.0
  0
LINE
  8
0
 62
     0
 10
236.456
 20
63.7191
 30
0.0
 11
235.656
 21
63.7191
 31
0.0
  0
LINE
  8
0
 62
     0
 10
235.656
 20
63.7191
 30
0.0
 11
235.656
 21
60.6185
 31
0.0
  0
LINE
  8
0
 62
     0
 10
235.656
 20
60.6185
 30
0.0
 11
236.456
 21
60.6185
 31
0.0
  0
LINE
  8
0
 62
     0
 10
236.456
 20
60.6185
 30
0.0
 11
236.456
 21
54.8185
 31
0.0
  0
LINE
  8
0
 62
     0
 10
236.456
 20
54.8185
 30
0.0
 11
235.656
 21
54.8185
 31
0.0
  0
LINE
  8
0
 62
     0
 10
235.656
 20
54.8185
 30
0.0
 11
235.656
 21
51.7179
 31
0.0
  0
LINE
  8
0
 62
     0
 10
235.656
 20
51.7179
 30
0.0
 11
236.456
 21
51.7179
 31
0.0
  0
LINE
  8
0
 62
     0
 10
236.456
 20
51.7179
 30
0.0
 11
236.456
 21
50.7189
 31
0.0
  0
LINE
  8
0
 62
     0
 10
236.456
 20
50.7189
 30
0.0
 11
250.456
 21
50.7189
 31
0.0
  0
LINE
  8
0
 62
     0
 10
250.456
 20
50.7189
 30
0.0
 11
250.456
 21
51.7179
 31
0.0
  0
LINE
  8
0
 62
     0
 10
250.456
 20
51.7179
 30
0.0
 11
251.255
 21
51.7179
 31
0.0
  0
LINE
  8
0
 62
     0
 10
251.255
 20
51.7179
 30
0.0
 11
251.255
 21
54.8185
 31
0.0
  0
LINE
  8
0
 62
     0
 10
251.255
 20
54.8185
 30
0.0
 11
250.456
 21
54.8185
 31
0.0
  0
LINE
  8
0
 62
     0
 10
250.456
 20
54.8185
 30
0.0
 11
250.456
 21
60.6185
 31
0.0
  0
LINE
  8
0
 62
     0
 10
250.456
 20
60.6185
 30
0.0
 11
251.255
 21
60.6185
 31
0.0
  0
LINE
  8
0
 62
     0
 10
251.255
 20
60.6185
 30
0.0
 11
251.255
 21
63.7191
 31
0.0
  0
LINE
  8
0
 62
     0
 10
251.255
 20
63.7191
 30
0.0
 11
250.456
 21
63.7191
 31
0.0
  0
LINE
  8
0
 62
     0
 10
250.456
 20
63.7191
 30
0.0
 11
250.456
 21
64.7181
 31
0.0
  0
LINE
  8
0
 62
     0
 10
250.456
 20
64.7181
 30
0.0
 11
236.456
 21
64.7181
 31
0.0
  0
LINE
  8
0
 62
     0
 10
17.3812
 20
83.7681
 30
0.0
 11
17.3812
 21
82.7691
 31
0.0
  0
LINE
  8
0
 62
     0
 10
17.3812
 20
82.7691
 30
0.0
 11
16.5806
 21
82.7691
 31
0.0
  0
LINE
  8
0
 62
     0
 10
16.5806
 20
82.7691
 30
0.0
 11
16.5806
 21
79.6685
 31
0.0
  0
LINE
  8
0
 62
     0
 10
16.5806
 20
79.6685
 30
0.0
 11
17.3812
 21
79.6685
 31
0.0
  0
LINE
  8
0
 62
     0
 10
17.3812
 20
79.6685
 30
0.0
 11
17.3812
 21
73.8685
 31
0.0
  0
LINE
  8
0
 62
     0
 10
17.3812
 20
73.8685
 30
0.0
 11
16.5806
 21
73.8685
 31
0.0
  0
LINE
  8
0
 62
     0
 10
16.5806
 20
73.8685
 30
0.0
 11
16.5806
 21
70.7679
 31
0.0
  0
LINE
  8
0
 62
     0
 10
16.5806
 20
70.7679
 30
0.0
 11
17.3812
 21
70.7679
 31
0.0
  0
LINE
  8
0
 62
     0
 10
17.3812
 20
70.7679
 30
0.0
 11
17.3812
 21
69.7689
 31
0.0
  0
LINE
  8
0
 62
     0
 10
17.3812
 20
69.7689
 30
0.0
 11
31.3807
 21
69.7689
 31
0.0
  0
LINE
  8
0
 62
     0
 10
31.3807
 20
69.7689
 30
0.0
 11
31.3807
 21
70.7679
 31
0.0
  0
LINE
  8
0
 62
     0
 10
31.3807
 20
70.7679
 30
0.0
 11
32.1813
 21
70.7679
 31
0.0
  0
LINE
  8
0
 62
     0
 10
32.1813
 20
70.7679
 30
0.0
 11
32.1813
 21
73.8685
 31
0.0
  0
LINE
  8
0
 62
     0
 10
32.1813
 20
73.8685
 30
0.0
 11
31.3807
 21
73.8685
 31
0.0
  0
LINE
  8
0
 62
     0
 10
31.3807
 20
73.8685
 30
0.0
 11
31.3807
 21
79.6685
 31
0.0
  0
LINE
  8
0
 62
     0
 10
31.3807
 20
79.6685
 30
0.0
 11
32.1813
 21
79.6685
 31
0.0
  0
LINE
  8
0
 62
     0
 10
32.1813
 20
79.6685
 30
0.0
 11
32.1813
 21
82.7691
 31
0.0
  0
LINE
  8
0
 62
     0
 10
32.1813
 20
82.7691
 30
0.0
 11
31.3807
 21
82.7691
 31
0.0
  0
LINE
  8
0
 62
     0
 10
31.3807
 20
82.7691
 30
0.0
 11
31.3807
 21
83.7681
 31
0.0
  0
LINE
  8
0
 62
     0
 10
31.3807
 20
83.7681
 30
0.0
 11
17.3812
 21
83.7681
 31
0.0
  0
LINE
  8
0
 62
     0
 10
41.1939
 20
83.7681
 30
0.0
 11
41.1939
 21
82.7691
 31
0.0
  0
LINE
  8
0
 62
     0
 10
41.1939
 20
82.7691
 30
0.0
 11
40.3945
 21
82.7691
 31
0.0
  0
LINE
  8
0
 62
     0
 10
40.3945
 20
82.7691
 30
0.0
 11
40.3945
 21
79.6685
 31
0.0
  0
LINE
  8
0
 62
     0
 10
40.3945
 20
79.6685
 30
0.0
 11
41.1939
 21
79.6685
 31
0.0
  0
LINE
  8
0
 62
     0
 10
41.1939
 20
79.6685
 30
0.0
 11
41.1939
 21
73.8685
 31
0.0
  0
LINE
  8
0
 62
     0
 10
41.1939
 20
73.8685
 30
0.0
 11
40.3945
 21
73.8685
 31
0.0
  0
LINE
  8
0
 62
     0
 10
40.3945
 20
73.8685
 30
0.0
 11
40.3945
 21
70.7679
 31
0.0
  0
LINE
  8
0
 62
     0
 10
40.3945
 20
70.7679
 30
0.0
 11
41.1939
 21
70.7679
 31
0.0
  0
LINE
  8
0
 62
     0
 10
41.1939
 20
70.7679
 30
0.0
 11
41.1939
 21
69.7689
 31
0.0
  0
LINE
  8
0
 62
     0
 10
41.1939
 20
69.7689
 30
0.0
 11
55.1931
 21
69.7689
 31
0.0
  0
LINE
  8
0
 62
     0
 10
55.1931
 20
69.7689
 30
0.0
 11
55.1931
 21
70.7679
 31
0.0
  0
LINE
  8
0
 62
     0
 10
55.1931
 20
70.7679
 30
0.0
 11
55.9939
 21
70.7679
 31
0.0
  0
LINE
  8
0
 62
     0
 10
55.9939
 20
70.7679
 30
0.0
 11
55.9939
 21
73.8685
 31
0.0
  0
LINE
  8
0
 62
     0
 10
55.9939
 20
73.8685
 30
0.0
 11
55.1931
 21
73.8685
 31
0.0
  0
LINE
  8
0
 62
     0
 10
55.1931
 20
73.8685
 30
0.0
 11
55.1931
 21
79.6685
 31
0.0
  0
LINE
  8
0
 62
     0
 10
55.1931
 20
79.6685
 30
0.0
 11
55.9939
 21
79.6685
 31
0.0
  0
LINE
  8
0
 62
     0
 10
55.9939
 20
79.6685
 30
0.0
 11
55.9939
 21
82.7691
 31
0.0
  0
LINE
  8
0
 62
     0
 10
55.9939
 20
82.7691
 30
0.0
 11
55.1931
 21
82.7691
 31
0.0
  0
LINE
  8
0
 62
     0
 10
55.1931
 20
82.7691
 30
0.0
 11
55.1931
 21
83.7681
 31
0.0
  0
LINE
  8
0
 62
     0
 10
55.1931
 20
83.7681
 30
0.0
 11
41.1939
 21
83.7681
 31
0.0
  0
LINE
  8
0
 62
     0
 10
60.2439
 20
83.7681
 30
0.0
 11
60.2439
 21
82.7691
 31
0.0
  0
LINE
  8
0
 62
     0
 10
60.2439
 20
82.7691
 30
0.0
 11
59.4431
 21
82.7691
 31
0.0
  0
LINE
  8
0
 62
     0
 10
59.4431
 20
82.7691
 30
0.0
 11
59.4431
 21
79.6685
 31
0.0
  0
LINE
  8
0
 62
     0
 10
59.4431
 20
79.6685
 30
0.0
 11
60.2439
 21
79.6685
 31
0.0
  0
LINE
  8
0
 62
     0
 10
60.2439
 20
79.6685
 30
0.0
 11
60.2439
 21
73.8685
 31
0.0
  0
LINE
  8
0
 62
     0
 10
60.2439
 20
73.8685
 30
0.0
 11
59.4431
 21
73.8685
 31
0.0
  0
LINE
  8
0
 62
     0
 10
59.4431
 20
73.8685
 30
0.0
 11
59.4431
 21
70.7679
 31
0.0
  0
LINE
  8
0
 62
     0
 10
59.4431
 20
70.7679
 30
0.0
 11
60.2439
 21
70.7679
 31
0.0
  0
LINE
  8
0
 62
     0
 10
60.2439
 20
70.7679
 30
0.0
 11
60.2439
 21
69.7689
 31
0.0
  0
LINE
  8
0
 62
     0
 10
60.2439
 20
69.7689
 30
0.0
 11
74.2431
 21
69.7689
 31
0.0
  0
LINE
  8
0
 62
     0
 10
74.2431
 20
69.7689
 30
0.0
 11
74.2431
 21
70.7679
 31
0.0
  0
LINE
  8
0
 62
     0
 10
74.2431
 20
70.7679
 30
0.0
 11
75.044
 21
70.7679
 31
0.0
  0
LINE
  8
0
 62
     0
 10
75.044
 20
70.7679
 30
0.0
 11
75.044
 21
73.8685
 31
0.0
  0
LINE
  8
0
 62
     0
 10
75.044
 20
73.8685
 30
0.0
 11
74.2431
 21
73.8685
 31
0.0
  0
LINE
  8
0
 62
     0
 10
74.2431
 20
73.8685
 30
0.0
 11
74.2431
 21
79.6685
 31
0.0
  0
LINE
  8
0
 62
     0
 10
74.2431
 20
79.6685
 30
0.0
 11
75.044
 21
79.6685
 31
0.0
  0
LINE
  8
0
 62
     0
 10
75.044
 20
79.6685
 30
0.0
 11
75.044
 21
82.7691
 31
0.0
  0
LINE
  8
0
 62
     0
 10
75.044
 20
82.7691
 30
0.0
 11
74.2431
 21
82.7691
 31
0.0
  0
LINE
  8
0
 62
     0
 10
74.2431
 20
82.7691
 30
0.0
 11
74.2431
 21
83.7681
 31
0.0
  0
LINE
  8
0
 62
     0
 10
74.2431
 20
83.7681
 30
0.0
 11
60.2439
 21
83.7681
 31
0.0
  0
LINE
  8
0
 62
     0
 10
79.2939
 20
83.7681
 30
0.0
 11
79.2939
 21
82.7691
 31
0.0
  0
LINE
  8
0
 62
     0
 10
79.2939
 20
82.7691
 30
0.0
 11
78.4945
 21
82.7691
 31
0.0
  0
LINE
  8
0
 62
     0
 10
78.4945
 20
82.7691
 30
0.0
 11
78.4945
 21
79.6685
 31
0.0
  0
LINE
  8
0
 62
     0
 10
78.4945
 20
79.6685
 30
0.0
 11
79.2939
 21
79.6685
 31
0.0
  0
LINE
  8
0
 62
     0
 10
79.2939
 20
79.6685
 30
0.0
 11
79.2939
 21
73.8685
 31
0.0
  0
LINE
  8
0
 62
     0
 10
79.2939
 20
73.8685
 30
0.0
 11
78.4945
 21
73.8685
 31
0.0
  0
LINE
  8
0
 62
     0
 10
78.4945
 20
73.8685
 30
0.0
 11
78.4945
 21
70.7679
 31
0.0
  0
LINE
  8
0
 62
     0
 10
78.4945
 20
70.7679
 30
0.0
 11
79.2939
 21
70.7679
 31
0.0
  0
LINE
  8
0
 62
     0
 10
79.2939
 20
70.7679
 30
0.0
 11
79.2939
 21
69.7689
 31
0.0
  0
LINE
  8
0
 62
     0
 10
79.2939
 20
69.7689
 30
0.0
 11
93.2931
 21
69.7689
 31
0.0
  0
LINE
  8
0
 62
     0
 10
93.2931
 20
69.7689
 30
0.0
 11
93.2931
 21
70.7679
 31
0.0
  0
LINE
  8
0
 62
     0
 10
93.2931
 20
70.7679
 30
0.0
 11
94.0939
 21
70.7679
 31
0.0
  0
LINE
  8
0
 62
     0
 10
94.0939
 20
70.7679
 30
0.0
 11
94.0939
 21
73.8685
 31
0.0
  0
LINE
  8
0
 62
     0
 10
94.0939
 20
73.8685
 30
0.0
 11
93.2931
 21
73.8685
 31
0.0
  0
LINE
  8
0
 62
     0
 10
93.2931
 20
73.8685
 30
0.0
 11
93.2931
 21
79.6685
 31
0.0
  0
LINE
  8
0
 62
     0
 10
93.2931
 20
79.6685
 30
0.0
 11
94.0939
 21
79.6685
 31
0.0
  0
LINE
  8
0
 62
     0
 10
94.0939
 20
79.6685
 30
0.0
 11
94.0939
 21
82.7691
 31
0.0
  0
LINE
  8
0
 62
     0
 10
94.0939
 20
82.7691
 30
0.0
 11
93.2931
 21
82.7691
 31
0.0
  0
LINE
  8
0
 62
     0
 10
93.2931
 20
82.7691
 30
0.0
 11
93.2931
 21
83.7681
 31
0.0
  0
LINE
  8
0
 62
     0
 10
93.2931
 20
83.7681
 30
0.0
 11
79.2939
 21
83.7681
 31
0.0
  0
LINE
  8
0
 62
     0
 10
98.3439
 20
83.7681
 30
0.0
 11
98.3439
 21
82.7691
 31
0.0
  0
LINE
  8
0
 62
     0
 10
98.3439
 20
82.7691
 30
0.0
 11
97.5445
 21
82.7691
 31
0.0
  0
LINE
  8
0
 62
     0
 10
97.5445
 20
82.7691
 30
0.0
 11
97.5445
 21
79.6685
 31
0.0
  0
LINE
  8
0
 62
     0
 10
97.5445
 20
79.6685
 30
0.0
 11
98.3439
 21
79.6685
 31
0.0
  0
LINE
  8
0
 62
     0
 10
98.3439
 20
79.6685
 30
0.0
 11
98.3439
 21
73.8685
 31
0.0
  0
LINE
  8
0
 62
     0
 10
98.3439
 20
73.8685
 30
0.0
 11
97.5445
 21
73.8685
 31
0.0
  0
LINE
  8
0
 62
     0
 10
97.5445
 20
73.8685
 30
0.0
 11
97.5445
 21
70.7679
 31
0.0
  0
LINE
  8
0
 62
     0
 10
97.5445
 20
70.7679
 30
0.0
 11
98.3439
 21
70.7679
 31
0.0
  0
LINE
  8
0
 62
     0
 10
98.3439
 20
70.7679
 30
0.0
 11
98.3439
 21
69.7689
 31
0.0
  0
LINE
  8
0
 62
     0
 10
98.3439
 20
69.7689
 30
0.0
 11
112.343
 21
69.7689
 31
0.0
  0
LINE
  8
0
 62
     0
 10
112.343
 20
69.7689
 30
0.0
 11
112.343
 21
70.7679
 31
0.0
  0
LINE
  8
0
 62
     0
 10
112.343
 20
70.7679
 30
0.0
 11
113.144
 21
70.7679
 31
0.0
  0
LINE
  8
0
 62
     0
 10
113.144
 20
70.7679
 30
0.0
 11
113.144
 21
73.8685
 31
0.0
  0
LINE
  8
0
 62
     0
 10
113.144
 20
73.8685
 30
0.0
 11
112.343
 21
73.8685
 31
0.0
  0
LINE
  8
0
 62
     0
 10
112.343
 20
73.8685
 30
0.0
 11
112.343
 21
79.6685
 31
0.0
  0
LINE
  8
0
 62
     0
 10
112.343
 20
79.6685
 30
0.0
 11
113.144
 21
79.6685
 31
0.0
  0
LINE
  8
0
 62
     0
 10
113.144
 20
79.6685
 30
0.0
 11
113.144
 21
82.7691
 31
0.0
  0
LINE
  8
0
 62
     0
 10
113.144
 20
82.7691
 30
0.0
 11
112.343
 21
82.7691
 31
0.0
  0
LINE
  8
0
 62
     0
 10
112.343
 20
82.7691
 30
0.0
 11
112.343
 21
83.7681
 31
0.0
  0
LINE
  8
0
 62
     0
 10
112.343
 20
83.7681
 30
0.0
 11
98.3439
 21
83.7681
 31
0.0
  0
LINE
  8
0
 62
     0
 10
117.394
 20
83.7681
 30
0.0
 11
117.394
 21
82.7691
 31
0.0
  0
LINE
  8
0
 62
     0
 10
117.394
 20
82.7691
 30
0.0
 11
116.594
 21
82.7691
 31
0.0
  0
LINE
  8
0
 62
     0
 10
116.594
 20
82.7691
 30
0.0
 11
116.594
 21
79.6685
 31
0.0
  0
LINE
  8
0
 62
     0
 10
116.594
 20
79.6685
 30
0.0
 11
117.394
 21
79.6685
 31
0.0
  0
LINE
  8
0
 62
     0
 10
117.394
 20
79.6685
 30
0.0
 11
117.394
 21
73.8685
 31
0.0
  0
LINE
  8
0
 62
     0
 10
117.394
 20
73.8685
 30
0.0
 11
116.594
 21
73.8685
 31
0.0
  0
LINE
  8
0
 62
     0
 10
116.594
 20
73.8685
 30
0.0
 11
116.594
 21
70.7679
 31
0.0
  0
LINE
  8
0
 62
     0
 10
116.594
 20
70.7679
 30
0.0
 11
117.394
 21
70.7679
 31
0.0
  0
LINE
  8
0
 62
     0
 10
117.394
 20
70.7679
 30
0.0
 11
117.394
 21
69.7689
 31
0.0
  0
LINE
  8
0
 62
     0
 10
117.394
 20
69.7689
 30
0.0
 11
131.393
 21
69.7689
 31
0.0
  0
LINE
  8
0
 62
     0
 10
131.393
 20
69.7689
 30
0.0
 11
131.393
 21
70.7679
 31
0.0
  0
LINE
  8
0
 62
     0
 10
131.393
 20
70.7679
 30
0.0
 11
132.194
 21
70.7679
 31
0.0
  0
LINE
  8
0
 62
     0
 10
132.194
 20
70.7679
 30
0.0
 11
132.194
 21
73.8685
 31
0.0
  0
LINE
  8
0
 62
     0
 10
132.194
 20
73.8685
 30
0.0
 11
131.393
 21
73.8685
 31
0.0
  0
LINE
  8
0
 62
     0
 10
131.393
 20
73.8685
 30
0.0
 11
131.393
 21
79.6685
 31
0.0
  0
LINE
  8
0
 62
     0
 10
131.393
 20
79.6685
 30
0.0
 11
132.194
 21
79.6685
 31
0.0
  0
LINE
  8
0
 62
     0
 10
132.194
 20
79.6685
 30
0.0
 11
132.194
 21
82.7691
 31
0.0
  0
LINE
  8
0
 62
     0
 10
132.194
 20
82.7691
 30
0.0
 11
131.393
 21
82.7691
 31
0.0
  0
LINE
  8
0
 62
     0
 10
131.393
 20
82.7691
 30
0.0
 11
131.393
 21
83.7681
 31
0.0
  0
LINE
  8
0
 62
     0
 10
131.393
 20
83.7681
 30
0.0
 11
117.394
 21
83.7681
 31
0.0
  0
LINE
  8
0
 62
     0
 10
136.444
 20
83.7681
 30
0.0
 11
136.444
 21
82.7691
 31
0.0
  0
LINE
  8
0
 62
     0
 10
136.444
 20
82.7691
 30
0.0
 11
135.644
 21
82.7691
 31
0.0
  0
LINE
  8
0
 62
     0
 10
135.644
 20
82.7691
 30
0.0
 11
135.644
 21
79.6685
 31
0.0
  0
LINE
  8
0
 62
     0
 10
135.644
 20
79.6685
 30
0.0
 11
136.444
 21
79.6685
 31
0.0
  0
LINE
  8
0
 62
     0
 10
136.444
 20
79.6685
 30
0.0
 11
136.444
 21
73.8685
 31
0.0
  0
LINE
  8
0
 62
     0
 10
136.444
 20
73.8685
 30
0.0
 11
135.644
 21
73.8685
 31
0.0
  0
LINE
  8
0
 62
     0
 10
135.644
 20
73.8685
 30
0.0
 11
135.644
 21
70.7679
 31
0.0
  0
LINE
  8
0
 62
     0
 10
135.644
 20
70.7679
 30
0.0
 11
136.444
 21
70.7679
 31
0.0
  0
LINE
  8
0
 62
     0
 10
136.444
 20
70.7679
 30
0.0
 11
136.444
 21
69.7689
 31
0.0
  0
LINE
  8
0
 62
     0
 10
136.444
 20
69.7689
 30
0.0
 11
150.443
 21
69.7689
 31
0.0
  0
LINE
  8
0
 62
     0
 10
150.443
 20
69.7689
 30
0.0
 11
150.443
 21
70.7679
 31
0.0
  0
LINE
  8
0
 62
     0
 10
150.443
 20
70.7679
 30
0.0
 11
151.244
 21
70.7679
 31
0.0
  0
LINE
  8
0
 62
     0
 10
151.244
 20
70.7679
 30
0.0
 11
151.244
 21
73.8685
 31
0.0
  0
LINE
  8
0
 62
     0
 10
151.244
 20
73.8685
 30
0.0
 11
150.443
 21
73.8685
 31
0.0
  0
LINE
  8
0
 62
     0
 10
150.443
 20
73.8685
 30
0.0
 11
150.443
 21
79.6685
 31
0.0
  0
LINE
  8
0
 62
     0
 10
150.443
 20
79.6685
 30
0.0
 11
151.244
 21
79.6685
 31
0.0
  0
LINE
  8
0
 62
     0
 10
151.244
 20
79.6685
 30
0.0
 11
151.244
 21
82.7691
 31
0.0
  0
LINE
  8
0
 62
     0
 10
151.244
 20
82.7691
 30
0.0
 11
150.443
 21
82.7691
 31
0.0
  0
LINE
  8
0
 62
     0
 10
150.443
 20
82.7691
 30
0.0
 11
150.443
 21
83.7681
 31
0.0
  0
LINE
  8
0
 62
     0
 10
150.443
 20
83.7681
 30
0.0
 11
136.444
 21
83.7681
 31
0.0
  0
LINE
  8
0
 62
     0
 10
155.494
 20
83.7681
 30
0.0
 11
155.494
 21
82.7691
 31
0.0
  0
LINE
  8
0
 62
     0
 10
155.494
 20
82.7691
 30
0.0
 11
154.694
 21
82.7691
 31
0.0
  0
LINE
  8
0
 62
     0
 10
154.694
 20
82.7691
 30
0.0
 11
154.694
 21
79.6685
 31
0.0
  0
LINE
  8
0
 62
     0
 10
154.694
 20
79.6685
 30
0.0
 11
155.494
 21
79.6685
 31
0.0
  0
LINE
  8
0
 62
     0
 10
155.494
 20
79.6685
 30
0.0
 11
155.494
 21
73.8685
 31
0.0
  0
LINE
  8
0
 62
     0
 10
155.494
 20
73.8685
 30
0.0
 11
154.694
 21
73.8685
 31
0.0
  0
LINE
  8
0
 62
     0
 10
154.694
 20
73.8685
 30
0.0
 11
154.694
 21
70.7679
 31
0.0
  0
LINE
  8
0
 62
     0
 10
154.694
 20
70.7679
 30
0.0
 11
155.494
 21
70.7679
 31
0.0
  0
LINE
  8
0
 62
     0
 10
155.494
 20
70.7679
 30
0.0
 11
155.494
 21
69.7689
 31
0.0
  0
LINE
  8
0
 62
     0
 10
155.494
 20
69.7689
 30
0.0
 11
169.493
 21
69.7689
 31
0.0
  0
LINE
  8
0
 62
     0
 10
169.493
 20
69.7689
 30
0.0
 11
169.493
 21
70.7679
 31
0.0
  0
LINE
  8
0
 62
     0
 10
169.493
 20
70.7679
 30
0.0
 11
170.294
 21
70.7679
 31
0.0
  0
LINE
  8
0
 62
     0
 10
170.294
 20
70.7679
 30
0.0
 11
170.294
 21
73.8685
 31
0.0
  0
LINE
  8
0
 62
     0
 10
170.294
 20
73.8685
 30
0.0
 11
169.493
 21
73.8685
 31
0.0
  0
LINE
  8
0
 62
     0
 10
169.493
 20
73.8685
 30
0.0
 11
169.493
 21
79.6685
 31
0.0
  0
LINE
  8
0
 62
     0
 10
169.493
 20
79.6685
 30
0.0
 11
170.294
 21
79.6685
 31
0.0
  0
LINE
  8
0
 62
     0
 10
170.294
 20
79.6685
 30
0.0
 11
170.294
 21
82.7691
 31
0.0
  0
LINE
  8
0
 62
     0
 10
170.294
 20
82.7691
 30
0.0
 11
169.493
 21
82.7691
 31
0.0
  0
LINE
  8
0
 62
     0
 10
169.493
 20
82.7691
 30
0.0
 11
169.493
 21
83.7681
 31
0.0
  0
LINE
  8
0
 62
     0
 10
169.493
 20
83.7681
 30
0.0
 11
155.494
 21
83.7681
 31
0.0
  0
LINE
  8
0
 62
     0
 10
174.544
 20
83.7681
 30
0.0
 11
174.544
 21
82.7691
 31
0.0
  0
LINE
  8
0
 62
     0
 10
174.544
 20
82.7691
 30
0.0
 11
173.744
 21
82.7691
 31
0.0
  0
LINE
  8
0
 62
     0
 10
173.744
 20
82.7691
 30
0.0
 11
173.744
 21
79.6685
 31
0.0
  0
LINE
  8
0
 62
     0
 10
173.744
 20
79.6685
 30
0.0
 11
174.544
 21
79.6685
 31
0.0
  0
LINE
  8
0
 62
     0
 10
174.544
 20
79.6685
 30
0.0
 11
174.544
 21
73.8685
 31
0.0
  0
LINE
  8
0
 62
     0
 10
174.544
 20
73.8685
 30
0.0
 11
173.744
 21
73.8685
 31
0.0
  0
LINE
  8
0
 62
     0
 10
173.744
 20
73.8685
 30
0.0
 11
173.744
 21
70.7679
 31
0.0
  0
LINE
  8
0
 62
     0
 10
173.744
 20
70.7679
 30
0.0
 11
174.544
 21
70.7679
 31
0.0
  0
LINE
  8
0
 62
     0
 10
174.544
 20
70.7679
 30
0.0
 11
174.544
 21
69.7689
 31
0.0
  0
LINE
  8
0
 62
     0
 10
174.544
 20
69.7689
 30
0.0
 11
188.543
 21
69.7689
 31
0.0
  0
LINE
  8
0
 62
     0
 10
188.543
 20
69.7689
 30
0.0
 11
188.543
 21
70.7679
 31
0.0
  0
LINE
  8
0
 62
     0
 10
188.543
 20
70.7679
 30
0.0
 11
189.344
 21
70.7679
 31
0.0
  0
LINE
  8
0
 62
     0
 10
189.344
 20
70.7679
 30
0.0
 11
189.344
 21
73.8685
 31
0.0
  0
LINE
  8
0
 62
     0
 10
189.344
 20
73.8685
 30
0.0
 11
188.543
 21
73.8685
 31
0.0
  0
LINE
  8
0
 62
     0
 10
188.543
 20
73.8685
 30
0.0
 11
188.543
 21
79.6685
 31
0.0
  0
LINE
  8
0
 62
     0
 10
188.543
 20
79.6685
 30
0.0
 11
189.344
 21
79.6685
 31
0.0
  0
LINE
  8
0
 62
     0
 10
189.344
 20
79.6685
 30
0.0
 11
189.344
 21
82.7691
 31
0.0
  0
LINE
  8
0
 62
     0
 10
189.344
 20
82.7691
 30
0.0
 11
188.543
 21
82.7691
 31
0.0
  0
LINE
  8
0
 62
     0
 10
188.543
 20
82.7691
 30
0.0
 11
188.543
 21
83.7681
 31
0.0
  0
LINE
  8
0
 62
     0
 10
188.543
 20
83.7681
 30
0.0
 11
174.544
 21
83.7681
 31
0.0
  0
LINE
  8
0
 62
     0
 10
193.594
 20
83.7681
 30
0.0
 11
193.594
 21
82.7691
 31
0.0
  0
LINE
  8
0
 62
     0
 10
193.594
 20
82.7691
 30
0.0
 11
192.794
 21
82.7691
 31
0.0
  0
LINE
  8
0
 62
     0
 10
192.794
 20
82.7691
 30
0.0
 11
192.794
 21
79.6685
 31
0.0
  0
LINE
  8
0
 62
     0
 10
192.794
 20
79.6685
 30
0.0
 11
193.594
 21
79.6685
 31
0.0
  0
LINE
  8
0
 62
     0
 10
193.594
 20
79.6685
 30
0.0
 11
193.594
 21
73.8685
 31
0.0
  0
LINE
  8
0
 62
     0
 10
193.594
 20
73.8685
 30
0.0
 11
192.794
 21
73.8685
 31
0.0
  0
LINE
  8
0
 62
     0
 10
192.794
 20
73.8685
 30
0.0
 11
192.794
 21
70.7679
 31
0.0
  0
LINE
  8
0
 62
     0
 10
192.794
 20
70.7679
 30
0.0
 11
193.594
 21
70.7679
 31
0.0
  0
LINE
  8
0
 62
     0
 10
193.594
 20
70.7679
 30
0.0
 11
193.594
 21
69.7689
 31
0.0
  0
LINE
  8
0
 62
     0
 10
193.594
 20
69.7689
 30
0.0
 11
207.593
 21
69.7689
 31
0.0
  0
LINE
  8
0
 62
     0
 10
207.593
 20
69.7689
 30
0.0
 11
207.593
 21
70.7679
 31
0.0
  0
LINE
  8
0
 62
     0
 10
207.593
 20
70.7679
 30
0.0
 11
208.394
 21
70.7679
 31
0.0
  0
LINE
  8
0
 62
     0
 10
208.394
 20
70.7679
 30
0.0
 11
208.394
 21
73.8685
 31
0.0
  0
LINE
  8
0
 62
     0
 10
208.394
 20
73.8685
 30
0.0
 11
207.593
 21
73.8685
 31
0.0
  0
LINE
  8
0
 62
     0
 10
207.593
 20
73.8685
 30
0.0
 11
207.593
 21
79.6685
 31
0.0
  0
LINE
  8
0
 62
     0
 10
207.593
 20
79.6685
 30
0.0
 11
208.394
 21
79.6685
 31
0.0
  0
LINE
  8
0
 62
     0
 10
208.394
 20
79.6685
 30
0.0
 11
208.394
 21
82.7691
 31
0.0
  0
LINE
  8
0
 62
     0
 10
208.394
 20
82.7691
 30
0.0
 11
207.593
 21
82.7691
 31
0.0
  0
LINE
  8
0
 62
     0
 10
207.593
 20
82.7691
 30
0.0
 11
207.593
 21
83.7681
 31
0.0
  0
LINE
  8
0
 62
     0
 10
207.593
 20
83.7681
 30
0.0
 11
193.594
 21
83.7681
 31
0.0
  0
LINE
  8
0
 62
     0
 10
212.644
 20
83.7681
 30
0.0
 11
212.644
 21
82.7691
 31
0.0
  0
LINE
  8
0
 62
     0
 10
212.644
 20
82.7691
 30
0.0
 11
211.844
 21
82.7691
 31
0.0
  0
LINE
  8
0
 62
     0
 10
211.844
 20
82.7691
 30
0.0
 11
211.844
 21
79.6685
 31
0.0
  0
LINE
  8
0
 62
     0
 10
211.844
 20
79.6685
 30
0.0
 11
212.644
 21
79.6685
 31
0.0
  0
LINE
  8
0
 62
     0
 10
212.644
 20
79.6685
 30
0.0
 11
212.644
 21
73.8685
 31
0.0
  0
LINE
  8
0
 62
     0
 10
212.644
 20
73.8685
 30
0.0
 11
211.844
 21
73.8685
 31
0.0
  0
LINE
  8
0
 62
     0
 10
211.844
 20
73.8685
 30
0.0
 11
211.844
 21
70.7679
 31
0.0
  0
LINE
  8
0
 62
     0
 10
211.844
 20
70.7679
 30
0.0
 11
212.644
 21
70.7679
 31
0.0
  0
LINE
  8
0
 62
     0
 10
212.644
 20
70.7679
 30
0.0
 11
212.644
 21
69.7689
 31
0.0
  0
LINE
  8
0
 62
     0
 10
212.644
 20
69.7689
 30
0.0
 11
226.643
 21
69.7689
 31
0.0
  0
LINE
  8
0
 62
     0
 10
226.643
 20
69.7689
 30
0.0
 11
226.643
 21
70.7679
 31
0.0
  0
LINE
  8
0
 62
     0
 10
226.643
 20
70.7679
 30
0.0
 11
227.444
 21
70.7679
 31
0.0
  0
LINE
  8
0
 62
     0
 10
227.444
 20
70.7679
 30
0.0
 11
227.444
 21
73.8685
 31
0.0
  0
LINE
  8
0
 62
     0
 10
227.444
 20
73.8685
 30
0.0
 11
226.643
 21
73.8685
 31
0.0
  0
LINE
  8
0
 62
     0
 10
226.643
 20
73.8685
 30
0.0
 11
226.643
 21
79.6685
 31
0.0
  0
LINE
  8
0
 62
     0
 10
226.643
 20
79.6685
 30
0.0
 11
227.444
 21
79.6685
 31
0.0
  0
LINE
  8
0
 62
     0
 10
227.444
 20
79.6685
 30
0.0
 11
227.444
 21
82.7691
 31
0.0
  0
LINE
  8
0
 62
     0
 10
227.444
 20
82.7691
 30
0.0
 11
226.643
 21
82.7691
 31
0.0
  0
LINE
  8
0
 62
     0
 10
226.643
 20
82.7691
 30
0.0
 11
226.643
 21
83.7681
 31
0.0
  0
LINE
  8
0
 62
     0
 10
226.643
 20
83.7681
 30
0.0
 11
212.644
 21
83.7681
 31
0.0
  0
LINE
  8
0
 62
     0
 10
231.694
 20
83.7681
 30
0.0
 11
231.694
 21
82.7691
 31
0.0
  0
LINE
  8
0
 62
     0
 10
231.694
 20
82.7691
 30
0.0
 11
230.894
 21
82.7691
 31
0.0
  0
LINE
  8
0
 62
     0
 10
230.894
 20
82.7691
 30
0.0
 11
230.894
 21
79.6685
 31
0.0
  0
LINE
  8
0
 62
     0
 10
230.894
 20
79.6685
 30
0.0
 11
231.694
 21
79.6685
 31
0.0
  0
LINE
  8
0
 62
     0
 10
231.694
 20
79.6685
 30
0.0
 11
231.694
 21
73.8685
 31
0.0
  0
LINE
  8
0
 62
     0
 10
231.694
 20
73.8685
 30
0.0
 11
230.894
 21
73.8685
 31
0.0
  0
LINE
  8
0
 62
     0
 10
230.894
 20
73.8685
 30
0.0
 11
230.894
 21
70.7679
 31
0.0
  0
LINE
  8
0
 62
     0
 10
230.894
 20
70.7679
 30
0.0
 11
231.694
 21
70.7679
 31
0.0
  0
LINE
  8
0
 62
     0
 10
231.694
 20
70.7679
 30
0.0
 11
231.694
 21
69.7689
 31
0.0
  0
LINE
  8
0
 62
     0
 10
231.694
 20
69.7689
 30
0.0
 11
245.693
 21
69.7689
 31
0.0
  0
LINE
  8
0
 62
     0
 10
245.693
 20
69.7689
 30
0.0
 11
245.693
 21
70.7679
 31
0.0
  0
LINE
  8
0
 62
     0
 10
245.693
 20
70.7679
 30
0.0
 11
246.494
 21
70.7679
 31
0.0
  0
LINE
  8
0
 62
     0
 10
246.494
 20
70.7679
 30
0.0
 11
246.494
 21
73.8685
 31
0.0
  0
LINE
  8
0
 62
     0
 10
246.494
 20
73.8685
 30
0.0
 11
245.693
 21
73.8685
 31
0.0
  0
LINE
  8
0
 62
     0
 10
245.693
 20
73.8685
 30
0.0
 11
245.693
 21
79.6685
 31
0.0
  0
LINE
  8
0
 62
     0
 10
245.693
 20
79.6685
 30
0.0
 11
246.494
 21
79.6685
 31
0.0
  0
LINE
  8
0
 62
     0
 10
246.494
 20
79.6685
 30
0.0
 11
246.494
 21
82.7691
 31
0.0
  0
LINE
  8
0
 62
     0
 10
246.494
 20
82.7691
 30
0.0
 11
245.693
 21
82.7691
 31
0.0
  0
LINE
  8
0
 62
     0
 10
245.693
 20
82.7691
 30
0.0
 11
245.693
 21
83.7681
 31
0.0
  0
LINE
  8
0
 62
     0
 10
245.693
 20
83.7681
 30
0.0
 11
231.694
 21
83.7681
 31
0.0
  0
LINE
  8
0
 62
     0
 10
250.744
 20
83.7681
 30
0.0
 11
250.744
 21
82.7691
 31
0.0
  0
LINE
  8
0
 62
     0
 10
250.744
 20
82.7691
 30
0.0
 11
249.944
 21
82.7691
 31
0.0
  0
LINE
  8
0
 62
     0
 10
249.944
 20
82.7691
 30
0.0
 11
249.944
 21
79.6685
 31
0.0
  0
LINE
  8
0
 62
     0
 10
249.944
 20
79.6685
 30
0.0
 11
250.744
 21
79.6685
 31
0.0
  0
LINE
  8
0
 62
     0
 10
250.744
 20
79.6685
 30
0.0
 11
250.744
 21
73.8685
 31
0.0
  0
LINE
  8
0
 62
     0
 10
250.744
 20
73.8685
 30
0.0
 11
249.944
 21
73.8685
 31
0.0
  0
LINE
  8
0
 62
     0
 10
249.944
 20
73.8685
 30
0.0
 11
249.944
 21
70.7679
 31
0.0
  0
LINE
  8
0
 62
     0
 10
249.944
 20
70.7679
 30
0.0
 11
250.744
 21
70.7679
 31
0.0
  0
LINE
  8
0
 62
     0
 10
250.744
 20
70.7679
 30
0.0
 11
250.744
 21
69.7689
 31
0.0
  0
LINE
  8
0
 62
     0
 10
250.744
 20
69.7689
 30
0.0
 11
264.743
 21
69.7689
 31
0.0
  0
LINE
  8
0
 62
     0
 10
264.743
 20
69.7689
 30
0.0
 11
264.743
 21
70.7679
 31
0.0
  0
LINE
  8
0
 62
     0
 10
264.743
 20
70.7679
 30
0.0
 11
265.544
 21
70.7679
 31
0.0
  0
LINE
  8
0
 62
     0
 10
265.544
 20
70.7679
 30
0.0
 11
265.544
 21
73.8685
 31
0.0
  0
LINE
  8
0
 62
     0
 10
265.544
 20
73.8685
 30
0.0
 11
264.743
 21
73.8685
 31
0.0
  0
LINE
  8
0
 62
     0
 10
264.743
 20
73.8685
 30
0.0
 11
264.743
 21
79.6685
 31
0.0
  0
LINE
  8
0
 62
     0
 10
264.743
 20
79.6685
 30
0.0
 11
265.544
 21
79.6685
 31
0.0
  0
LINE
  8
0
 62
     0
 10
265.544
 20
79.6685
 30
0.0
 11
265.544
 21
82.7691
 31
0.0
  0
LINE
  8
0
 62
     0
 10
265.544
 20
82.7691
 30
0.0
 11
264.743
 21
82.7691
 31
0.0
  0
LINE
  8
0
 62
     0
 10
264.743
 20
82.7691
 30
0.0
 11
264.743
 21
83.7681
 31
0.0
  0
LINE
  8
0
 62
     0
 10
264.743
 20
83.7681
 30
0.0
 11
250.744
 21
83.7681
 31
0.0
  0
LINE
  8
0
 62
     0
 10
274.556
 20
83.7681
 30
0.0
 11
274.556
 21
82.7691
 31
0.0
  0
LINE
  8
0
 62
     0
 10
274.556
 20
82.7691
 30
0.0
 11
273.756
 21
82.7691
 31
0.0
  0
LINE
  8
0
 62
     0
 10
273.756
 20
82.7691
 30
0.0
 11
273.756
 21
79.6685
 31
0.0
  0
LINE
  8
0
 62
     0
 10
273.756
 20
79.6685
 30
0.0
 11
274.556
 21
79.6685
 31
0.0
  0
LINE
  8
0
 62
     0
 10
274.556
 20
79.6685
 30
0.0
 11
274.556
 21
73.8685
 31
0.0
  0
LINE
  8
0
 62
     0
 10
274.556
 20
73.8685
 30
0.0
 11
273.756
 21
73.8685
 31
0.0
  0
LINE
  8
0
 62
     0
 10
273.756
 20
73.8685
 30
0.0
 11
273.756
 21
70.7679
 31
0.0
  0
LINE
  8
0
 62
     0
 10
273.756
 20
70.7679
 30
0.0
 11
274.556
 21
70.7679
 31
0.0
  0
LINE
  8
0
 62
     0
 10
274.556
 20
70.7679
 30
0.0
 11
274.556
 21
69.7689
 31
0.0
  0
LINE
  8
0
 62
     0
 10
274.556
 20
69.7689
 30
0.0
 11
288.556
 21
69.7689
 31
0.0
  0
LINE
  8
0
 62
     0
 10
288.556
 20
69.7689
 30
0.0
 11
288.556
 21
70.7679
 31
0.0
  0
LINE
  8
0
 62
     0
 10
288.556
 20
70.7679
 30
0.0
 11
289.356
 21
70.7679
 31
0.0
  0
LINE
  8
0
 62
     0
 10
289.356
 20
70.7679
 30
0.0
 11
289.356
 21
73.8685
 31
0.0
  0
LINE
  8
0
 62
     0
 10
289.356
 20
73.8685
 30
0.0
 11
288.556
 21
73.8685
 31
0.0
  0
LINE
  8
0
 62
     0
 10
288.556
 20
73.8685
 30
0.0
 11
288.556
 21
79.6685
 31
0.0
  0
LINE
  8
0
 62
     0
 10
288.556
 20
79.6685
 30
0.0
 11
289.356
 21
79.6685
 31
0.0
  0
LINE
  8
0
 62
     0
 10
289.356
 20
79.6685
 30
0.0
 11
289.356
 21
82.7691
 31
0.0
  0
LINE
  8
0
 62
     0
 10
289.356
 20
82.7691
 30
0.0
 11
288.556
 21
82.7691
 31
0.0
  0
LINE
  8
0
 62
     0
 10
288.556
 20
82.7691
 30
0.0
 11
288.556
 21
83.7681
 31
0.0
  0
LINE
  8
0
 62
     0
 10
288.556
 20
83.7681
 30
0.0
 11
274.556
 21
83.7681
 31
0.0
  0
LINE
  8
0
 62
     0
 10
303.131
 20
83.7681
 30
0.0
 11
303.131
 21
82.7691
 31
0.0
  0
LINE
  8
0
 62
     0
 10
303.131
 20
82.7691
 30
0.0
 11
302.331
 21
82.7691
 31
0.0
  0
LINE
  8
0
 62
     0
 10
302.331
 20
82.7691
 30
0.0
 11
302.331
 21
79.6685
 31
0.0
  0
LINE
  8
0
 62
     0
 10
302.331
 20
79.6685
 30
0.0
 11
303.131
 21
79.6685
 31
0.0
  0
LINE
  8
0
 62
     0
 10
303.131
 20
79.6685
 30
0.0
 11
303.131
 21
73.8685
 31
0.0
  0
LINE
  8
0
 62
     0
 10
303.131
 20
73.8685
 30
0.0
 11
302.331
 21
73.8685
 31
0.0
  0
LINE
  8
0
 62
     0
 10
302.331
 20
73.8685
 30
0.0
 11
302.331
 21
70.7679
 31
0.0
  0
LINE
  8
0
 62
     0
 10
302.331
 20
70.7679
 30
0.0
 11
303.131
 21
70.7679
 31
0.0
  0
LINE
  8
0
 62
     0
 10
303.131
 20
70.7679
 30
0.0
 11
303.131
 21
69.7689
 31
0.0
  0
LINE
  8
0
 62
     0
 10
303.131
 20
69.7689
 30
0.0
 11
317.131
 21
69.7689
 31
0.0
  0
LINE
  8
0
 62
     0
 10
317.131
 20
69.7689
 30
0.0
 11
317.131
 21
70.7679
 31
0.0
  0
LINE
  8
0
 62
     0
 10
317.131
 20
70.7679
 30
0.0
 11
317.931
 21
70.7679
 31
0.0
  0
LINE
  8
0
 62
     0
 10
317.931
 20
70.7679
 30
0.0
 11
317.931
 21
73.8685
 31
0.0
  0
LINE
  8
0
 62
     0
 10
317.931
 20
73.8685
 30
0.0
 11
317.131
 21
73.8685
 31
0.0
  0
LINE
  8
0
 62
     0
 10
317.131
 20
73.8685
 30
0.0
 11
317.131
 21
79.6685
 31
0.0
  0
LINE
  8
0
 62
     0
 10
317.131
 20
79.6685
 30
0.0
 11
317.931
 21
79.6685
 31
0.0
  0
LINE
  8
0
 62
     0
 10
317.931
 20
79.6685
 30
0.0
 11
317.931
 21
82.7691
 31
0.0
  0
LINE
  8
0
 62
     0
 10
317.931
 20
82.7691
 30
0.0
 11
317.131
 21
82.7691
 31
0.0
  0
LINE
  8
0
 62
     0
 10
317.131
 20
82.7691
 30
0.0
 11
317.131
 21
83.7681
 31
0.0
  0
LINE
  8
0
 62
     0
 10
317.131
 20
83.7681
 30
0.0
 11
303.131
 21
83.7681
 31
0.0
  0
LINE
  8
0
 62
     0
 10
322.181
 20
83.7681
 30
0.0
 11
322.181
 21
82.7691
 31
0.0
  0
LINE
  8
0
 62
     0
 10
322.181
 20
82.7691
 30
0.0
 11
321.381
 21
82.7691
 31
0.0
  0
LINE
  8
0
 62
     0
 10
321.381
 20
82.7691
 30
0.0
 11
321.381
 21
79.6685
 31
0.0
  0
LINE
  8
0
 62
     0
 10
321.381
 20
79.6685
 30
0.0
 11
322.181
 21
79.6685
 31
0.0
  0
LINE
  8
0
 62
     0
 10
322.181
 20
79.6685
 30
0.0
 11
322.181
 21
73.8685
 31
0.0
  0
LINE
  8
0
 62
     0
 10
322.181
 20
73.8685
 30
0.0
 11
321.381
 21
73.8685
 31
0.0
  0
LINE
  8
0
 62
     0
 10
321.381
 20
73.8685
 30
0.0
 11
321.381
 21
70.7679
 31
0.0
  0
LINE
  8
0
 62
     0
 10
321.381
 20
70.7679
 30
0.0
 11
322.181
 21
70.7679
 31
0.0
  0
LINE
  8
0
 62
     0
 10
322.181
 20
70.7679
 30
0.0
 11
322.181
 21
69.7689
 31
0.0
  0
LINE
  8
0
 62
     0
 10
322.181
 20
69.7689
 30
0.0
 11
336.181
 21
69.7689
 31
0.0
  0
LINE
  8
0
 62
     0
 10
336.181
 20
69.7689
 30
0.0
 11
336.181
 21
70.7679
 31
0.0
  0
LINE
  8
0
 62
     0
 10
336.181
 20
70.7679
 30
0.0
 11
336.981
 21
70.7679
 31
0.0
  0
LINE
  8
0
 62
     0
 10
336.981
 20
70.7679
 30
0.0
 11
336.981
 21
73.8685
 31
0.0
  0
LINE
  8
0
 62
     0
 10
336.981
 20
73.8685
 30
0.0
 11
336.181
 21
73.8685
 31
0.0
  0
LINE
  8
0
 62
     0
 10
336.181
 20
73.8685
 30
0.0
 11
336.181
 21
79.6685
 31
0.0
  0
LINE
  8
0
 62
     0
 10
336.181
 20
79.6685
 30
0.0
 11
336.981
 21
79.6685
 31
0.0
  0
LINE
  8
0
 62
     0
 10
336.981
 20
79.6685
 30
0.0
 11
336.981
 21
82.7691
 31
0.0
  0
LINE
  8
0
 62
     0
 10
336.981
 20
82.7691
 30
0.0
 11
336.181
 21
82.7691
 31
0.0
  0
LINE
  8
0
 62
     0
 10
336.181
 20
82.7691
 30
0.0
 11
336.181
 21
83.7681
 31
0.0
  0
LINE
  8
0
 62
     0
 10
336.181
 20
83.7681
 30
0.0
 11
322.181
 21
83.7681
 31
0.0
  0
LINE
  8
0
 62
     0
 10
341.231
 20
83.7681
 30
0.0
 11
341.231
 21
82.7691
 31
0.0
  0
LINE
  8
0
 62
     0
 10
341.231
 20
82.7691
 30
0.0
 11
340.431
 21
82.7691
 31
0.0
  0
LINE
  8
0
 62
     0
 10
340.431
 20
82.7691
 30
0.0
 11
340.431
 21
79.6685
 31
0.0
  0
LINE
  8
0
 62
     0
 10
340.431
 20
79.6685
 30
0.0
 11
341.231
 21
79.6685
 31
0.0
  0
LINE
  8
0
 62
     0
 10
341.231
 20
79.6685
 30
0.0
 11
341.231
 21
73.8685
 31
0.0
  0
LINE
  8
0
 62
     0
 10
341.231
 20
73.8685
 30
0.0
 11
340.431
 21
73.8685
 31
0.0
  0
LINE
  8
0
 62
     0
 10
340.431
 20
73.8685
 30
0.0
 11
340.431
 21
70.7679
 31
0.0
  0
LINE
  8
0
 62
     0
 10
340.431
 20
70.7679
 30
0.0
 11
341.231
 21
70.7679
 31
0.0
  0
LINE
  8
0
 62
     0
 10
341.231
 20
70.7679
 30
0.0
 11
341.231
 21
69.7689
 31
0.0
  0
LINE
  8
0
 62
     0
 10
341.231
 20
69.7689
 30
0.0
 11
355.23
 21
69.7689
 31
0.0
  0
LINE
  8
0
 62
     0
 10
355.23
 20
69.7689
 30
0.0
 11
355.23
 21
70.7679
 31
0.0
  0
LINE
  8
0
 62
     0
 10
355.23
 20
70.7679
 30
0.0
 11
356.03
 21
70.7679
 31
0.0
  0
LINE
  8
0
 62
     0
 10
356.03
 20
70.7679
 30
0.0
 11
356.03
 21
73.8685
 31
0.0
  0
LINE
  8
0
 62
     0
 10
356.03
 20
73.8685
 30
0.0
 11
355.23
 21
73.8685
 31
0.0
  0
LINE
  8
0
 62
     0
 10
355.23
 20
73.8685
 30
0.0
 11
355.23
 21
79.6685
 31
0.0
  0
LINE
  8
0
 62
     0
 10
355.23
 20
79.6685
 30
0.0
 11
356.03
 21
79.6685
 31
0.0
  0
LINE
  8
0
 62
     0
 10
356.03
 20
79.6685
 30
0.0
 11
356.03
 21
82.7691
 31
0.0
  0
LINE
  8
0
 62
     0
 10
356.03
 20
82.7691
 30
0.0
 11
355.23
 21
82.7691
 31
0.0
  0
LINE
  8
0
 62
     0
 10
355.23
 20
82.7691
 30
0.0
 11
355.23
 21
83.7681
 31
0.0
  0
LINE
  8
0
 62
     0
 10
355.23
 20
83.7681
 30
0.0
 11
341.231
 21
83.7681
 31
0.0
  0
LINE
  8
0
 62
     0
 10
269.794
 20
102.818
 30
0.0
 11
269.794
 21
101.819
 31
0.0
  0
LINE
  8
0
 62
     0
 10
269.794
 20
101.819
 30
0.0
 11
268.994
 21
101.819
 31
0.0
  0
LINE
  8
0
 62
     0
 10
268.994
 20
101.819
 30
0.0
 11
268.994
 21
98.7185
 31
0.0
  0
LINE
  8
0
 62
     0
 10
268.994
 20
98.7185
 30
0.0
 11
269.794
 21
98.7185
 31
0.0
  0
LINE
  8
0
 62
     0
 10
269.794
 20
98.7185
 30
0.0
 11
269.794
 21
98.1191
 31
0.0
  0
LINE
  8
0
 62
     0
 10
269.794
 20
98.1191
 30
0.0
 11
268.268
 21
98.1191
 31
0.0
  0
LINE
  8
0
 62
     0
 10
268.268
 20
98.1191
 30
0.0
 11
268.268
 21
101.349
 31
0.0
  0
LINE
  8
0
 62
     0
 10
268.268
 20
101.349
 30
0.0
 11
266.544
 21
101.349
 31
0.0
  0
LINE
  8
0
 62
     0
 10
266.544
 20
101.349
 30
0.0
 11
266.544
 21
102.269
 31
0.0
  0
LINE
  8
0
 62
     0
 10
266.544
 20
102.269
 30
0.0
 11
263.244
 21
102.269
 31
0.0
  0
LINE
  8
0
 62
     0
 10
263.244
 20
102.269
 30
0.0
 11
263.244
 21
101.349
 31
0.0
  0
LINE
  8
0
 62
     0
 10
263.244
 20
101.349
 30
0.0
 11
261.519
 21
101.349
 31
0.0
  0
LINE
  8
0
 62
     0
 10
261.519
 20
101.349
 30
0.0
 11
261.519
 21
98.1191
 31
0.0
  0
LINE
  8
0
 62
     0
 10
261.519
 20
98.1191
 30
0.0
 11
260.693
 21
98.1191
 31
0.0
  0
LINE
  8
0
 62
     0
 10
260.693
 20
98.1191
 30
0.0
 11
260.693
 21
95.3188
 31
0.0
  0
LINE
  8
0
 62
     0
 10
260.693
 20
95.3188
 30
0.0
 11
261.519
 21
95.3188
 31
0.0
  0
LINE
  8
0
 62
     0
 10
261.519
 20
95.3188
 30
0.0
 11
261.519
 21
89.0489
 31
0.0
  0
LINE
  8
0
 62
     0
 10
261.519
 20
89.0489
 30
0.0
 11
263.244
 21
89.0489
 31
0.0
  0
LINE
  8
0
 62
     0
 10
263.244
 20
89.0489
 30
0.0
 11
263.244
 21
88.0678
 31
0.0
  0
LINE
  8
0
 62
     0
 10
263.244
 20
88.0678
 30
0.0
 11
266.544
 21
88.0678
 31
0.0
  0
LINE
  8
0
 62
     0
 10
266.544
 20
88.0678
 30
0.0
 11
266.544
 21
89.0489
 31
0.0
  0
LINE
  8
0
 62
     0
 10
266.544
 20
89.0489
 30
0.0
 11
268.268
 21
89.0489
 31
0.0
  0
LINE
  8
0
 62
     0
 10
268.268
 20
89.0489
 30
0.0
 11
268.268
 21
93.5179
 31
0.0
  0
LINE
  8
0
 62
     0
 10
268.268
 20
93.5179
 30
0.0
 11
269.794
 21
93.5179
 31
0.0
  0
LINE
  8
0
 62
     0
 10
269.794
 20
93.5179
 30
0.0
 11
269.794
 21
92.9199
 31
0.0
  0
LINE
  8
0
 62
     0
 10
269.794
 20
92.9199
 30
0.0
 11
268.994
 21
92.9199
 31
0.0
  0
LINE
  8
0
 62
     0
 10
268.994
 20
92.9199
 30
0.0
 11
268.994
 21
89.8179
 31
0.0
  0
LINE
  8
0
 62
     0
 10
268.994
 20
89.8179
 30
0.0
 11
269.794
 21
89.8179
 31
0.0
  0
LINE
  8
0
 62
     0
 10
269.794
 20
89.8179
 30
0.0
 11
269.794
 21
88.8189
 31
0.0
  0
LINE
  8
0
 62
     0
 10
269.794
 20
88.8189
 30
0.0
 11
283.793
 21
88.8189
 31
0.0
  0
LINE
  8
0
 62
     0
 10
283.793
 20
88.8189
 30
0.0
 11
283.793
 21
89.8179
 31
0.0
  0
LINE
  8
0
 62
     0
 10
283.793
 20
89.8179
 30
0.0
 11
284.594
 21
89.8179
 31
0.0
  0
LINE
  8
0
 62
     0
 10
284.594
 20
89.8179
 30
0.0
 11
284.594
 21
92.9199
 31
0.0
  0
LINE
  8
0
 62
     0
 10
284.594
 20
92.9199
 30
0.0
 11
283.793
 21
92.9199
 31
0.0
  0
LINE
  8
0
 62
     0
 10
283.793
 20
92.9199
 30
0.0
 11
283.793
 21
93.5179
 31
0.0
  0
LINE
  8
0
 62
     0
 10
283.793
 20
93.5179
 30
0.0
 11
285.319
 21
93.5179
 31
0.0
  0
LINE
  8
0
 62
     0
 10
285.319
 20
93.5179
 30
0.0
 11
285.319
 21
89.0489
 31
0.0
  0
LINE
  8
0
 62
     0
 10
285.319
 20
89.0489
 30
0.0
 11
287.044
 21
89.0489
 31
0.0
  0
LINE
  8
0
 62
     0
 10
287.044
 20
89.0489
 30
0.0
 11
287.044
 21
88.0678
 31
0.0
  0
LINE
  8
0
 62
     0
 10
287.044
 20
88.0678
 30
0.0
 11
290.344
 21
88.0678
 31
0.0
  0
LINE
  8
0
 62
     0
 10
290.344
 20
88.0678
 30
0.0
 11
290.344
 21
89.0489
 31
0.0
  0
LINE
  8
0
 62
     0
 10
290.344
 20
89.0489
 30
0.0
 11
292.068
 21
89.0489
 31
0.0
  0
LINE
  8
0
 62
     0
 10
292.068
 20
89.0489
 30
0.0
 11
292.068
 21
95.3188
 31
0.0
  0
LINE
  8
0
 62
     0
 10
292.068
 20
95.3188
 30
0.0
 11
292.894
 21
95.3188
 31
0.0
  0
LINE
  8
0
 62
     0
 10
292.894
 20
95.3188
 30
0.0
 11
292.894
 21
98.1191
 31
0.0
  0
LINE
  8
0
 62
     0
 10
292.894
 20
98.1191
 30
0.0
 11
292.068
 21
98.1191
 31
0.0
  0
LINE
  8
0
 62
     0
 10
292.068
 20
98.1191
 30
0.0
 11
292.068
 21
101.349
 31
0.0
  0
LINE
  8
0
 62
     0
 10
292.068
 20
101.349
 30
0.0
 11
290.344
 21
101.349
 31
0.0
  0
LINE
  8
0
 62
     0
 10
290.344
 20
101.349
 30
0.0
 11
290.344
 21
102.269
 31
0.0
  0
LINE
  8
0
 62
     0
 10
290.344
 20
102.269
 30
0.0
 11
287.044
 21
102.269
 31
0.0
  0
LINE
  8
0
 62
     0
 10
287.044
 20
102.269
 30
0.0
 11
287.044
 21
101.349
 31
0.0
  0
LINE
  8
0
 62
     0
 10
287.044
 20
101.349
 30
0.0
 11
285.319
 21
101.349
 31
0.0
  0
LINE
  8
0
 62
     0
 10
285.319
 20
101.349
 30
0.0
 11
285.319
 21
98.1191
 31
0.0
  0
LINE
  8
0
 62
     0
 10
285.319
 20
98.1191
 30
0.0
 11
283.793
 21
98.1191
 31
0.0
  0
LINE
  8
0
 62
     0
 10
283.793
 20
98.1191
 30
0.0
 11
283.793
 21
98.7185
 31
0.0
  0
LINE
  8
0
 62
     0
 10
283.793
 20
98.7185
 30
0.0
 11
284.594
 21
98.7185
 31
0.0
  0
LINE
  8
0
 62
     0
 10
284.594
 20
98.7185
 30
0.0
 11
284.594
 21
101.819
 31
0.0
  0
LINE
  8
0
 62
     0
 10
284.594
 20
101.819
 30
0.0
 11
283.793
 21
101.819
 31
0.0
  0
LINE
  8
0
 62
     0
 10
283.793
 20
101.819
 30
0.0
 11
283.793
 21
102.818
 31
0.0
  0
LINE
  8
0
 62
     0
 10
283.793
 20
102.818
 30
0.0
 11
269.794
 21
102.818
 31
0.0
  0
LINE
  8
0
 62
     0
 10
12.6187
 20
102.818
 30
0.0
 11
12.6187
 21
101.819
 31
0.0
  0
LINE
  8
0
 62
     0
 10
12.6187
 20
101.819
 30
0.0
 11
11.8181
 21
101.819
 31
0.0
  0
LINE
  8
0
 62
     0
 10
11.8181
 20
101.819
 30
0.0
 11
11.8181
 21
98.7185
 31
0.0
  0
LINE
  8
0
 62
     0
 10
11.8181
 20
98.7185
 30
0.0
 11
12.6187
 21
98.7185
 31
0.0
  0
LINE
  8
0
 62
     0
 10
12.6187
 20
98.7185
 30
0.0
 11
12.6187
 21
92.9199
 31
0.0
  0
LINE
  8
0
 62
     0
 10
12.6187
 20
92.9199
 30
0.0
 11
11.8181
 21
92.9199
 31
0.0
  0
LINE
  8
0
 62
     0
 10
11.8181
 20
92.9199
 30
0.0
 11
11.8181
 21
89.8179
 31
0.0
  0
LINE
  8
0
 62
     0
 10
11.8181
 20
89.8179
 30
0.0
 11
12.6187
 21
89.8179
 31
0.0
  0
LINE
  8
0
 62
     0
 10
12.6187
 20
89.8179
 30
0.0
 11
12.6187
 21
88.8189
 31
0.0
  0
LINE
  8
0
 62
     0
 10
12.6187
 20
88.8189
 30
0.0
 11
26.6182
 21
88.8189
 31
0.0
  0
LINE
  8
0
 62
     0
 10
26.6182
 20
88.8189
 30
0.0
 11
26.6182
 21
89.8179
 31
0.0
  0
LINE
  8
0
 62
     0
 10
26.6182
 20
89.8179
 30
0.0
 11
27.4161
 21
89.8179
 31
0.0
  0
LINE
  8
0
 62
     0
 10
27.4161
 20
89.8179
 30
0.0
 11
27.4161
 21
92.9199
 31
0.0
  0
LINE
  8
0
 62
     0
 10
27.4161
 20
92.9199
 30
0.0
 11
26.6182
 21
92.9199
 31
0.0
  0
LINE
  8
0
 62
     0
 10
26.6182
 20
92.9199
 30
0.0
 11
26.6182
 21
98.7185
 31
0.0
  0
LINE
  8
0
 62
     0
 10
26.6182
 20
98.7185
 30
0.0
 11
27.4161
 21
98.7185
 31
0.0
  0
LINE
  8
0
 62
     0
 10
27.4161
 20
98.7185
 30
0.0
 11
27.4161
 21
101.819
 31
0.0
  0
LINE
  8
0
 62
     0
 10
27.4161
 20
101.819
 30
0.0
 11
26.6182
 21
101.819
 31
0.0
  0
LINE
  8
0
 62
     0
 10
26.6182
 20
101.819
 30
0.0
 11
26.6182
 21
102.818
 31
0.0
  0
LINE
  8
0
 62
     0
 10
26.6182
 20
102.818
 30
0.0
 11
12.6187
 21
102.818
 31
0.0
  0
LINE
  8
0
 62
     0
 10
31.6687
 20
102.818
 30
0.0
 11
31.6687
 21
101.819
 31
0.0
  0
LINE
  8
0
 62
     0
 10
31.6687
 20
101.819
 30
0.0
 11
30.8694
 21
101.819
 31
0.0
  0
LINE
  8
0
 62
     0
 10
30.8694
 20
101.819
 30
0.0
 11
30.8694
 21
98.7185
 31
0.0
  0
LINE
  8
0
 62
     0
 10
30.8694
 20
98.7185
 30
0.0
 11
31.6687
 21
98.7185
 31
0.0
  0
LINE
  8
0
 62
     0
 10
31.6687
 20
98.7185
 30
0.0
 11
31.6687
 21
92.9199
 31
0.0
  0
LINE
  8
0
 62
     0
 10
31.6687
 20
92.9199
 30
0.0
 11
30.8694
 21
92.9199
 31
0.0
  0
LINE
  8
0
 62
     0
 10
30.8694
 20
92.9199
 30
0.0
 11
30.8694
 21
89.8179
 31
0.0
  0
LINE
  8
0
 62
     0
 10
30.8694
 20
89.8179
 30
0.0
 11
31.6687
 21
89.8179
 31
0.0
  0
LINE
  8
0
 62
     0
 10
31.6687
 20
89.8179
 30
0.0
 11
31.6687
 21
88.8189
 31
0.0
  0
LINE
  8
0
 62
     0
 10
31.6687
 20
88.8189
 30
0.0
 11
45.6681
 21
88.8189
 31
0.0
  0
LINE
  8
0
 62
     0
 10
45.6681
 20
88.8189
 30
0.0
 11
45.6681
 21
89.8179
 31
0.0
  0
LINE
  8
0
 62
     0
 10
45.6681
 20
89.8179
 30
0.0
 11
46.4689
 21
89.8179
 31
0.0
  0
LINE
  8
0
 62
     0
 10
46.4689
 20
89.8179
 30
0.0
 11
46.4689
 21
92.9199
 31
0.0
  0
LINE
  8
0
 62
     0
 10
46.4689
 20
92.9199
 30
0.0
 11
45.6681
 21
92.9199
 31
0.0
  0
LINE
  8
0
 62
     0
 10
45.6681
 20
92.9199
 30
0.0
 11
45.6681
 21
98.7185
 31
0.0
  0
LINE
  8
0
 62
     0
 10
45.6681
 20
98.7185
 30
0.0
 11
46.4689
 21
98.7185
 31
0.0
  0
LINE
  8
0
 62
     0
 10
46.4689
 20
98.7185
 30
0.0
 11
46.4689
 21
101.819
 31
0.0
  0
LINE
  8
0
 62
     0
 10
46.4689
 20
101.819
 30
0.0
 11
45.6681
 21
101.819
 31
0.0
  0
LINE
  8
0
 62
     0
 10
45.6681
 20
101.819
 30
0.0
 11
45.6681
 21
102.818
 31
0.0
  0
LINE
  8
0
 62
     0
 10
45.6681
 20
102.818
 30
0.0
 11
31.6687
 21
102.818
 31
0.0
  0
LINE
  8
0
 62
     0
 10
50.7189
 20
102.818
 30
0.0
 11
50.7189
 21
101.819
 31
0.0
  0
LINE
  8
0
 62
     0
 10
50.7189
 20
101.819
 30
0.0
 11
49.9195
 21
101.819
 31
0.0
  0
LINE
  8
0
 62
     0
 10
49.9195
 20
101.819
 30
0.0
 11
49.9195
 21
98.7185
 31
0.0
  0
LINE
  8
0
 62
     0
 10
49.9195
 20
98.7185
 30
0.0
 11
50.7189
 21
98.7185
 31
0.0
  0
LINE
  8
0
 62
     0
 10
50.7189
 20
98.7185
 30
0.0
 11
50.7189
 21
92.9199
 31
0.0
  0
LINE
  8
0
 62
     0
 10
50.7189
 20
92.9199
 30
0.0
 11
49.9195
 21
92.9199
 31
0.0
  0
LINE
  8
0
 62
     0
 10
49.9195
 20
92.9199
 30
0.0
 11
49.9195
 21
89.8179
 31
0.0
  0
LINE
  8
0
 62
     0
 10
49.9195
 20
89.8179
 30
0.0
 11
50.7189
 21
89.8179
 31
0.0
  0
LINE
  8
0
 62
     0
 10
50.7189
 20
89.8179
 30
0.0
 11
50.7189
 21
88.8189
 31
0.0
  0
LINE
  8
0
 62
     0
 10
50.7189
 20
88.8189
 30
0.0
 11
64.7181
 21
88.8189
 31
0.0
  0
LINE
  8
0
 62
     0
 10
64.7181
 20
88.8189
 30
0.0
 11
64.7181
 21
89.8179
 31
0.0
  0
LINE
  8
0
 62
     0
 10
64.7181
 20
89.8179
 30
0.0
 11
65.519
 21
89.8179
 31
0.0
  0
LINE
  8
0
 62
     0
 10
65.519
 20
89.8179
 30
0.0
 11
65.519
 21
92.9199
 31
0.0
  0
LINE
  8
0
 62
     0
 10
65.519
 20
92.9199
 30
0.0
 11
64.7181
 21
92.9199
 31
0.0
  0
LINE
  8
0
 62
     0
 10
64.7181
 20
92.9199
 30
0.0
 11
64.7181
 21
98.7185
 31
0.0
  0
LINE
  8
0
 62
     0
 10
64.7181
 20
98.7185
 30
0.0
 11
65.519
 21
98.7185
 31
0.0
  0
LINE
  8
0
 62
     0
 10
65.519
 20
98.7185
 30
0.0
 11
65.519
 21
101.819
 31
0.0
  0
LINE
  8
0
 62
     0
 10
65.519
 20
101.819
 30
0.0
 11
64.7181
 21
101.819
 31
0.0
  0
LINE
  8
0
 62
     0
 10
64.7181
 20
101.819
 30
0.0
 11
64.7181
 21
102.818
 31
0.0
  0
LINE
  8
0
 62
     0
 10
64.7181
 20
102.818
 30
0.0
 11
50.7189
 21
102.818
 31
0.0
  0
LINE
  8
0
 62
     0
 10
69.7689
 20
102.818
 30
0.0
 11
69.7689
 21
101.819
 31
0.0
  0
LINE
  8
0
 62
     0
 10
69.7689
 20
101.819
 30
0.0
 11
68.9695
 21
101.819
 31
0.0
  0
LINE
  8
0
 62
     0
 10
68.9695
 20
101.819
 30
0.0
 11
68.9695
 21
98.7185
 31
0.0
  0
LINE
  8
0
 62
     0
 10
68.9695
 20
98.7185
 30
0.0
 11
69.7689
 21
98.7185
 31
0.0
  0
LINE
  8
0
 62
     0
 10
69.7689
 20
98.7185
 30
0.0
 11
69.7689
 21
92.9199
 31
0.0
  0
LINE
  8
0
 62
     0
 10
69.7689
 20
92.9199
 30
0.0
 11
68.9695
 21
92.9199
 31
0.0
  0
LINE
  8
0
 62
     0
 10
68.9695
 20
92.9199
 30
0.0
 11
68.9695
 21
89.8179
 31
0.0
  0
LINE
  8
0
 62
     0
 10
68.9695
 20
89.8179
 30
0.0
 11
69.7689
 21
89.8179
 31
0.0
  0
LINE
  8
0
 62
     0
 10
69.7689
 20
89.8179
 30
0.0
 11
69.7689
 21
88.8189
 31
0.0
  0
LINE
  8
0
 62
     0
 10
69.7689
 20
88.8189
 30
0.0
 11
83.7681
 21
88.8189
 31
0.0
  0
LINE
  8
0
 62
     0
 10
83.7681
 20
88.8189
 30
0.0
 11
83.7681
 21
89.8179
 31
0.0
  0
LINE
  8
0
 62
     0
 10
83.7681
 20
89.8179
 30
0.0
 11
84.569
 21
89.8179
 31
0.0
  0
LINE
  8
0
 62
     0
 10
84.569
 20
89.8179
 30
0.0
 11
84.569
 21
92.9199
 31
0.0
  0
LINE
  8
0
 62
     0
 10
84.569
 20
92.9199
 30
0.0
 11
83.7681
 21
92.9199
 31
0.0
  0
LINE
  8
0
 62
     0
 10
83.7681
 20
92.9199
 30
0.0
 11
83.7681
 21
98.7185
 31
0.0
  0
LINE
  8
0
 62
     0
 10
83.7681
 20
98.7185
 30
0.0
 11
84.569
 21
98.7185
 31
0.0
  0
LINE
  8
0
 62
     0
 10
84.569
 20
98.7185
 30
0.0
 11
84.569
 21
101.819
 31
0.0
  0
LINE
  8
0
 62
     0
 10
84.569
 20
101.819
 30
0.0
 11
83.7681
 21
101.819
 31
0.0
  0
LINE
  8
0
 62
     0
 10
83.7681
 20
101.819
 30
0.0
 11
83.7681
 21
102.818
 31
0.0
  0
LINE
  8
0
 62
     0
 10
83.7681
 20
102.818
 30
0.0
 11
69.7689
 21
102.818
 31
0.0
  0
LINE
  8
0
 62
     0
 10
88.8189
 20
102.818
 30
0.0
 11
88.8189
 21
101.819
 31
0.0
  0
LINE
  8
0
 62
     0
 10
88.8189
 20
101.819
 30
0.0
 11
88.0195
 21
101.819
 31
0.0
  0
LINE
  8
0
 62
     0
 10
88.0195
 20
101.819
 30
0.0
 11
88.0195
 21
98.7185
 31
0.0
  0
LINE
  8
0
 62
     0
 10
88.0195
 20
98.7185
 30
0.0
 11
88.8189
 21
98.7185
 31
0.0
  0
LINE
  8
0
 62
     0
 10
88.8189
 20
98.7185
 30
0.0
 11
88.8189
 21
92.9199
 31
0.0
  0
LINE
  8
0
 62
     0
 10
88.8189
 20
92.9199
 30
0.0
 11
88.0195
 21
92.9199
 31
0.0
  0
LINE
  8
0
 62
     0
 10
88.0195
 20
92.9199
 30
0.0
 11
88.0195
 21
89.8179
 31
0.0
  0
LINE
  8
0
 62
     0
 10
88.0195
 20
89.8179
 30
0.0
 11
88.8189
 21
89.8179
 31
0.0
  0
LINE
  8
0
 62
     0
 10
88.8189
 20
89.8179
 30
0.0
 11
88.8189
 21
88.8189
 31
0.0
  0
LINE
  8
0
 62
     0
 10
88.8189
 20
88.8189
 30
0.0
 11
102.818
 21
88.8189
 31
0.0
  0
LINE
  8
0
 62
     0
 10
102.818
 20
88.8189
 30
0.0
 11
102.818
 21
89.8179
 31
0.0
  0
LINE
  8
0
 62
     0
 10
102.818
 20
89.8179
 30
0.0
 11
103.618
 21
89.8179
 31
0.0
  0
LINE
  8
0
 62
     0
 10
103.618
 20
89.8179
 30
0.0
 11
103.618
 21
92.9199
 31
0.0
  0
LINE
  8
0
 62
     0
 10
103.618
 20
92.9199
 30
0.0
 11
102.818
 21
92.9199
 31
0.0
  0
LINE
  8
0
 62
     0
 10
102.818
 20
92.9199
 30
0.0
 11
102.818
 21
98.7185
 31
0.0
  0
LINE
  8
0
 62
     0
 10
102.818
 20
98.7185
 30
0.0
 11
103.618
 21
98.7185
 31
0.0
  0
LINE
  8
0
 62
     0
 10
103.618
 20
98.7185
 30
0.0
 11
103.618
 21
101.819
 31
0.0
  0
LINE
  8
0
 62
     0
 10
103.618
 20
101.819
 30
0.0
 11
102.818
 21
101.819
 31
0.0
  0
LINE
  8
0
 62
     0
 10
102.818
 20
101.819
 30
0.0
 11
102.818
 21
102.818
 31
0.0
  0
LINE
  8
0
 62
     0
 10
102.818
 20
102.818
 30
0.0
 11
88.8189
 21
102.818
 31
0.0
  0
LINE
  8
0
 62
     0
 10
107.867
 20
102.818
 30
0.0
 11
107.867
 21
101.819
 31
0.0
  0
LINE
  8
0
 62
     0
 10
107.867
 20
101.819
 30
0.0
 11
107.069
 21
101.819
 31
0.0
  0
LINE
  8
0
 62
     0
 10
107.069
 20
101.819
 30
0.0
 11
107.069
 21
98.7185
 31
0.0
  0
LINE
  8
0
 62
     0
 10
107.069
 20
98.7185
 30
0.0
 11
107.867
 21
98.7185
 31
0.0
  0
LINE
  8
0
 62
     0
 10
107.867
 20
98.7185
 30
0.0
 11
107.867
 21
92.9199
 31
0.0
  0
LINE
  8
0
 62
     0
 10
107.867
 20
92.9199
 30
0.0
 11
107.069
 21
92.9199
 31
0.0
  0
LINE
  8
0
 62
     0
 10
107.069
 20
92.9199
 30
0.0
 11
107.069
 21
89.8179
 31
0.0
  0
LINE
  8
0
 62
     0
 10
107.069
 20
89.8179
 30
0.0
 11
107.867
 21
89.8179
 31
0.0
  0
LINE
  8
0
 62
     0
 10
107.867
 20
89.8179
 30
0.0
 11
107.867
 21
88.8189
 31
0.0
  0
LINE
  8
0
 62
     0
 10
107.867
 20
88.8189
 30
0.0
 11
121.868
 21
88.8189
 31
0.0
  0
LINE
  8
0
 62
     0
 10
121.868
 20
88.8189
 30
0.0
 11
121.868
 21
89.8179
 31
0.0
  0
LINE
  8
0
 62
     0
 10
121.868
 20
89.8179
 30
0.0
 11
122.668
 21
89.8179
 31
0.0
  0
LINE
  8
0
 62
     0
 10
122.668
 20
89.8179
 30
0.0
 11
122.668
 21
92.9199
 31
0.0
  0
LINE
  8
0
 62
     0
 10
122.668
 20
92.9199
 30
0.0
 11
121.868
 21
92.9199
 31
0.0
  0
LINE
  8
0
 62
     0
 10
121.868
 20
92.9199
 30
0.0
 11
121.868
 21
98.7185
 31
0.0
  0
LINE
  8
0
 62
     0
 10
121.868
 20
98.7185
 30
0.0
 11
122.668
 21
98.7185
 31
0.0
  0
LINE
  8
0
 62
     0
 10
122.668
 20
98.7185
 30
0.0
 11
122.668
 21
101.819
 31
0.0
  0
LINE
  8
0
 62
     0
 10
122.668
 20
101.819
 30
0.0
 11
121.868
 21
101.819
 31
0.0
  0
LINE
  8
0
 62
     0
 10
121.868
 20
101.819
 30
0.0
 11
121.868
 21
102.818
 31
0.0
  0
LINE
  8
0
 62
     0
 10
121.868
 20
102.818
 30
0.0
 11
107.867
 21
102.818
 31
0.0
  0
LINE
  8
0
 62
     0
 10
126.919
 20
102.818
 30
0.0
 11
126.919
 21
101.819
 31
0.0
  0
LINE
  8
0
 62
     0
 10
126.919
 20
101.819
 30
0.0
 11
126.118
 21
101.819
 31
0.0
  0
LINE
  8
0
 62
     0
 10
126.118
 20
101.819
 30
0.0
 11
126.118
 21
98.7185
 31
0.0
  0
LINE
  8
0
 62
     0
 10
126.118
 20
98.7185
 30
0.0
 11
126.919
 21
98.7185
 31
0.0
  0
LINE
  8
0
 62
     0
 10
126.919
 20
98.7185
 30
0.0
 11
126.919
 21
92.9199
 31
0.0
  0
LINE
  8
0
 62
     0
 10
126.919
 20
92.9199
 30
0.0
 11
126.118
 21
92.9199
 31
0.0
  0
LINE
  8
0
 62
     0
 10
126.118
 20
92.9199
 30
0.0
 11
126.118
 21
89.8179
 31
0.0
  0
LINE
  8
0
 62
     0
 10
126.118
 20
89.8179
 30
0.0
 11
126.919
 21
89.8179
 31
0.0
  0
LINE
  8
0
 62
     0
 10
126.919
 20
89.8179
 30
0.0
 11
126.919
 21
88.8189
 31
0.0
  0
LINE
  8
0
 62
     0
 10
126.919
 20
88.8189
 30
0.0
 11
140.918
 21
88.8189
 31
0.0
  0
LINE
  8
0
 62
     0
 10
140.918
 20
88.8189
 30
0.0
 11
140.918
 21
89.8179
 31
0.0
  0
LINE
  8
0
 62
     0
 10
140.918
 20
89.8179
 30
0.0
 11
141.719
 21
89.8179
 31
0.0
  0
LINE
  8
0
 62
     0
 10
141.719
 20
89.8179
 30
0.0
 11
141.719
 21
92.9199
 31
0.0
  0
LINE
  8
0
 62
     0
 10
141.719
 20
92.9199
 30
0.0
 11
140.918
 21
92.9199
 31
0.0
  0
LINE
  8
0
 62
     0
 10
140.918
 20
92.9199
 30
0.0
 11
140.918
 21
98.7185
 31
0.0
  0
LINE
  8
0
 62
     0
 10
140.918
 20
98.7185
 30
0.0
 11
141.719
 21
98.7185
 31
0.0
  0
LINE
  8
0
 62
     0
 10
141.719
 20
98.7185
 30
0.0
 11
141.719
 21
101.819
 31
0.0
  0
LINE
  8
0
 62
     0
 10
141.719
 20
101.819
 30
0.0
 11
140.918
 21
101.819
 31
0.0
  0
LINE
  8
0
 62
     0
 10
140.918
 20
101.819
 30
0.0
 11
140.918
 21
102.818
 31
0.0
  0
LINE
  8
0
 62
     0
 10
140.918
 20
102.818
 30
0.0
 11
126.919
 21
102.818
 31
0.0
  0
LINE
  8
0
 62
     0
 10
145.969
 20
102.818
 30
0.0
 11
145.969
 21
101.819
 31
0.0
  0
LINE
  8
0
 62
     0
 10
145.969
 20
101.819
 30
0.0
 11
145.169
 21
101.819
 31
0.0
  0
LINE
  8
0
 62
     0
 10
145.169
 20
101.819
 30
0.0
 11
145.169
 21
98.7185
 31
0.0
  0
LINE
  8
0
 62
     0
 10
145.169
 20
98.7185
 30
0.0
 11
145.969
 21
98.7185
 31
0.0
  0
LINE
  8
0
 62
     0
 10
145.969
 20
98.7185
 30
0.0
 11
145.969
 21
92.9199
 31
0.0
  0
LINE
  8
0
 62
     0
 10
145.969
 20
92.9199
 30
0.0
 11
145.169
 21
92.9199
 31
0.0
  0
LINE
  8
0
 62
     0
 10
145.169
 20
92.9199
 30
0.0
 11
145.169
 21
89.8179
 31
0.0
  0
LINE
  8
0
 62
     0
 10
145.169
 20
89.8179
 30
0.0
 11
145.969
 21
89.8179
 31
0.0
  0
LINE
  8
0
 62
     0
 10
145.969
 20
89.8179
 30
0.0
 11
145.969
 21
88.8189
 31
0.0
  0
LINE
  8
0
 62
     0
 10
145.969
 20
88.8189
 30
0.0
 11
159.968
 21
88.8189
 31
0.0
  0
LINE
  8
0
 62
     0
 10
159.968
 20
88.8189
 30
0.0
 11
159.968
 21
89.8179
 31
0.0
  0
LINE
  8
0
 62
     0
 10
159.968
 20
89.8179
 30
0.0
 11
160.769
 21
89.8179
 31
0.0
  0
LINE
  8
0
 62
     0
 10
160.769
 20
89.8179
 30
0.0
 11
160.769
 21
92.9199
 31
0.0
  0
LINE
  8
0
 62
     0
 10
160.769
 20
92.9199
 30
0.0
 11
159.968
 21
92.9199
 31
0.0
  0
LINE
  8
0
 62
     0
 10
159.968
 20
92.9199
 30
0.0
 11
159.968
 21
98.7185
 31
0.0
  0
LINE
  8
0
 62
     0
 10
159.968
 20
98.7185
 30
0.0
 11
160.769
 21
98.7185
 31
0.0
  0
LINE
  8
0
 62
     0
 10
160.769
 20
98.7185
 30
0.0
 11
160.769
 21
101.819
 31
0.0
  0
LINE
  8
0
 62
     0
 10
160.769
 20
101.819
 30
0.0
 11
159.968
 21
101.819
 31
0.0
  0
LINE
  8
0
 62
     0
 10
159.968
 20
101.819
 30
0.0
 11
159.968
 21
102.818
 31
0.0
  0
LINE
  8
0
 62
     0
 10
159.968
 20
102.818
 30
0.0
 11
145.969
 21
102.818
 31
0.0
  0
LINE
  8
0
 62
     0
 10
165.019
 20
102.818
 30
0.0
 11
165.019
 21
101.819
 31
0.0
  0
LINE
  8
0
 62
     0
 10
165.019
 20
101.819
 30
0.0
 11
164.219
 21
101.819
 31
0.0
  0
LINE
  8
0
 62
     0
 10
164.219
 20
101.819
 30
0.0
 11
164.219
 21
98.7185
 31
0.0
  0
LINE
  8
0
 62
     0
 10
164.219
 20
98.7185
 30
0.0
 11
165.019
 21
98.7185
 31
0.0
  0
LINE
  8
0
 62
     0
 10
165.019
 20
98.7185
 30
0.0
 11
165.019
 21
92.9199
 31
0.0
  0
LINE
  8
0
 62
     0
 10
165.019
 20
92.9199
 30
0.0
 11
164.219
 21
92.9199
 31
0.0
  0
LINE
  8
0
 62
     0
 10
164.219
 20
92.9199
 30
0.0
 11
164.219
 21
89.8179
 31
0.0
  0
LINE
  8
0
 62
     0
 10
164.219
 20
89.8179
 30
0.0
 11
165.019
 21
89.8179
 31
0.0
  0
LINE
  8
0
 62
     0
 10
165.019
 20
89.8179
 30
0.0
 11
165.019
 21
88.8189
 31
0.0
  0
LINE
  8
0
 62
     0
 10
165.019
 20
88.8189
 30
0.0
 11
179.018
 21
88.8189
 31
0.0
  0
LINE
  8
0
 62
     0
 10
179.018
 20
88.8189
 30
0.0
 11
179.018
 21
89.8179
 31
0.0
  0
LINE
  8
0
 62
     0
 10
179.018
 20
89.8179
 30
0.0
 11
179.819
 21
89.8179
 31
0.0
  0
LINE
  8
0
 62
     0
 10
179.819
 20
89.8179
 30
0.0
 11
179.819
 21
92.9199
 31
0.0
  0
LINE
  8
0
 62
     0
 10
179.819
 20
92.9199
 30
0.0
 11
179.018
 21
92.9199
 31
0.0
  0
LINE
  8
0
 62
     0
 10
179.018
 20
92.9199
 30
0.0
 11
179.018
 21
98.7185
 31
0.0
  0
LINE
  8
0
 62
     0
 10
179.018
 20
98.7185
 30
0.0
 11
179.819
 21
98.7185
 31
0.0
  0
LINE
  8
0
 62
     0
 10
179.819
 20
98.7185
 30
0.0
 11
179.819
 21
101.819
 31
0.0
  0
LINE
  8
0
 62
     0
 10
179.819
 20
101.819
 30
0.0
 11
179.018
 21
101.819
 31
0.0
  0
LINE
  8
0
 62
     0
 10
179.018
 20
101.819
 30
0.0
 11
179.018
 21
102.818
 31
0.0
  0
LINE
  8
0
 62
     0
 10
179.018
 20
102.818
 30
0.0
 11
165.019
 21
102.818
 31
0.0
  0
LINE
  8
0
 62
     0
 10
184.069
 20
102.818
 30
0.0
 11
184.069
 21
101.819
 31
0.0
  0
LINE
  8
0
 62
     0
 10
184.069
 20
101.819
 30
0.0
 11
183.269
 21
101.819
 31
0.0
  0
LINE
  8
0
 62
     0
 10
183.269
 20
101.819
 30
0.0
 11
183.269
 21
98.7185
 31
0.0
  0
LINE
  8
0
 62
     0
 10
183.269
 20
98.7185
 30
0.0
 11
184.069
 21
98.7185
 31
0.0
  0
LINE
  8
0
 62
     0
 10
184.069
 20
98.7185
 30
0.0
 11
184.069
 21
92.9199
 31
0.0
  0
LINE
  8
0
 62
     0
 10
184.069
 20
92.9199
 30
0.0
 11
183.269
 21
92.9199
 31
0.0
  0
LINE
  8
0
 62
     0
 10
183.269
 20
92.9199
 30
0.0
 11
183.269
 21
89.8179
 31
0.0
  0
LINE
  8
0
 62
     0
 10
183.269
 20
89.8179
 30
0.0
 11
184.069
 21
89.8179
 31
0.0
  0
LINE
  8
0
 62
     0
 10
184.069
 20
89.8179
 30
0.0
 11
184.069
 21
88.8189
 31
0.0
  0
LINE
  8
0
 62
     0
 10
184.069
 20
88.8189
 30
0.0
 11
198.068
 21
88.8189
 31
0.0
  0
LINE
  8
0
 62
     0
 10
198.068
 20
88.8189
 30
0.0
 11
198.068
 21
89.8179
 31
0.0
  0
LINE
  8
0
 62
     0
 10
198.068
 20
89.8179
 30
0.0
 11
198.869
 21
89.8179
 31
0.0
  0
LINE
  8
0
 62
     0
 10
198.869
 20
89.8179
 30
0.0
 11
198.869
 21
92.9199
 31
0.0
  0
LINE
  8
0
 62
     0
 10
198.869
 20
92.9199
 30
0.0
 11
198.068
 21
92.9199
 31
0.0
  0
LINE
  8
0
 62
     0
 10
198.068
 20
92.9199
 30
0.0
 11
198.068
 21
98.7185
 31
0.0
  0
LINE
  8
0
 62
     0
 10
198.068
 20
98.7185
 30
0.0
 11
198.869
 21
98.7185
 31
0.0
  0
LINE
  8
0
 62
     0
 10
198.869
 20
98.7185
 30
0.0
 11
198.869
 21
101.819
 31
0.0
  0
LINE
  8
0
 62
     0
 10
198.869
 20
101.819
 30
0.0
 11
198.068
 21
101.819
 31
0.0
  0
LINE
  8
0
 62
     0
 10
198.068
 20
101.819
 30
0.0
 11
198.068
 21
102.818
 31
0.0
  0
LINE
  8
0
 62
     0
 10
198.068
 20
102.818
 30
0.0
 11
184.069
 21
102.818
 31
0.0
  0
LINE
  8
0
 62
     0
 10
203.119
 20
102.818
 30
0.0
 11
203.119
 21
101.819
 31
0.0
  0
LINE
  8
0
 62
     0
 10
203.119
 20
101.819
 30
0.0
 11
202.319
 21
101.819
 31
0.0
  0
LINE
  8
0
 62
     0
 10
202.319
 20
101.819
 30
0.0
 11
202.319
 21
98.7185
 31
0.0
  0
LINE
  8
0
 62
     0
 10
202.319
 20
98.7185
 30
0.0
 11
203.119
 21
98.7185
 31
0.0
  0
LINE
  8
0
 62
     0
 10
203.119
 20
98.7185
 30
0.0
 11
203.119
 21
92.9199
 31
0.0
  0
LINE
  8
0
 62
     0
 10
203.119
 20
92.9199
 30
0.0
 11
202.319
 21
92.9199
 31
0.0
  0
LINE
  8
0
 62
     0
 10
202.319
 20
92.9199
 30
0.0
 11
202.319
 21
89.8179
 31
0.0
  0
LINE
  8
0
 62
     0
 10
202.319
 20
89.8179
 30
0.0
 11
203.119
 21
89.8179
 31
0.0
  0
LINE
  8
0
 62
     0
 10
203.119
 20
89.8179
 30
0.0
 11
203.119
 21
88.8189
 31
0.0
  0
LINE
  8
0
 62
     0
 10
203.119
 20
88.8189
 30
0.0
 11
217.118
 21
88.8189
 31
0.0
  0
LINE
  8
0
 62
     0
 10
217.118
 20
88.8189
 30
0.0
 11
217.118
 21
89.8179
 31
0.0
  0
LINE
  8
0
 62
     0
 10
217.118
 20
89.8179
 30
0.0
 11
217.919
 21
89.8179
 31
0.0
  0
LINE
  8
0
 62
     0
 10
217.919
 20
89.8179
 30
0.0
 11
217.919
 21
92.9199
 31
0.0
  0
LINE
  8
0
 62
     0
 10
217.919
 20
92.9199
 30
0.0
 11
217.118
 21
92.9199
 31
0.0
  0
LINE
  8
0
 62
     0
 10
217.118
 20
92.9199
 30
0.0
 11
217.118
 21
98.7185
 31
0.0
  0
LINE
  8
0
 62
     0
 10
217.118
 20
98.7185
 30
0.0
 11
217.919
 21
98.7185
 31
0.0
  0
LINE
  8
0
 62
     0
 10
217.919
 20
98.7185
 30
0.0
 11
217.919
 21
101.819
 31
0.0
  0
LINE
  8
0
 62
     0
 10
217.919
 20
101.819
 30
0.0
 11
217.118
 21
101.819
 31
0.0
  0
LINE
  8
0
 62
     0
 10
217.118
 20
101.819
 30
0.0
 11
217.118
 21
102.818
 31
0.0
  0
LINE
  8
0
 62
     0
 10
217.118
 20
102.818
 30
0.0
 11
203.119
 21
102.818
 31
0.0
  0
LINE
  8
0
 62
     0
 10
222.169
 20
102.818
 30
0.0
 11
222.169
 21
101.819
 31
0.0
  0
LINE
  8
0
 62
     0
 10
222.169
 20
101.819
 30
0.0
 11
221.369
 21
101.819
 31
0.0
  0
LINE
  8
0
 62
     0
 10
221.369
 20
101.819
 30
0.0
 11
221.369
 21
98.7185
 31
0.0
  0
LINE
  8
0
 62
     0
 10
221.369
 20
98.7185
 30
0.0
 11
222.169
 21
98.7185
 31
0.0
  0
LINE
  8
0
 62
     0
 10
222.169
 20
98.7185
 30
0.0
 11
222.169
 21
92.9199
 31
0.0
  0
LINE
  8
0
 62
     0
 10
222.169
 20
92.9199
 30
0.0
 11
221.369
 21
92.9199
 31
0.0
  0
LINE
  8
0
 62
     0
 10
221.369
 20
92.9199
 30
0.0
 11
221.369
 21
89.8179
 31
0.0
  0
LINE
  8
0
 62
     0
 10
221.369
 20
89.8179
 30
0.0
 11
222.169
 21
89.8179
 31
0.0
  0
LINE
  8
0
 62
     0
 10
222.169
 20
89.8179
 30
0.0
 11
222.169
 21
88.8189
 31
0.0
  0
LINE
  8
0
 62
     0
 10
222.169
 20
88.8189
 30
0.0
 11
236.168
 21
88.8189
 31
0.0
  0
LINE
  8
0
 62
     0
 10
236.168
 20
88.8189
 30
0.0
 11
236.168
 21
89.8179
 31
0.0
  0
LINE
  8
0
 62
     0
 10
236.168
 20
89.8179
 30
0.0
 11
236.969
 21
89.8179
 31
0.0
  0
LINE
  8
0
 62
     0
 10
236.969
 20
89.8179
 30
0.0
 11
236.969
 21
92.9199
 31
0.0
  0
LINE
  8
0
 62
     0
 10
236.969
 20
92.9199
 30
0.0
 11
236.168
 21
92.9199
 31
0.0
  0
LINE
  8
0
 62
     0
 10
236.168
 20
92.9199
 30
0.0
 11
236.168
 21
98.7185
 31
0.0
  0
LINE
  8
0
 62
     0
 10
236.168
 20
98.7185
 30
0.0
 11
236.969
 21
98.7185
 31
0.0
  0
LINE
  8
0
 62
     0
 10
236.969
 20
98.7185
 30
0.0
 11
236.969
 21
101.819
 31
0.0
  0
LINE
  8
0
 62
     0
 10
236.969
 20
101.819
 30
0.0
 11
236.168
 21
101.819
 31
0.0
  0
LINE
  8
0
 62
     0
 10
236.168
 20
101.819
 30
0.0
 11
236.168
 21
102.818
 31
0.0
  0
LINE
  8
0
 62
     0
 10
236.168
 20
102.818
 30
0.0
 11
222.169
 21
102.818
 31
0.0
  0
LINE
  8
0
 62
     0
 10
241.219
 20
102.818
 30
0.0
 11
241.219
 21
101.819
 31
0.0
  0
LINE
  8
0
 62
     0
 10
241.219
 20
101.819
 30
0.0
 11
240.419
 21
101.819
 31
0.0
  0
LINE
  8
0
 62
     0
 10
240.419
 20
101.819
 30
0.0
 11
240.419
 21
98.7185
 31
0.0
  0
LINE
  8
0
 62
     0
 10
240.419
 20
98.7185
 30
0.0
 11
241.219
 21
98.7185
 31
0.0
  0
LINE
  8
0
 62
     0
 10
241.219
 20
98.7185
 30
0.0
 11
241.219
 21
92.9199
 31
0.0
  0
LINE
  8
0
 62
     0
 10
241.219
 20
92.9199
 30
0.0
 11
240.419
 21
92.9199
 31
0.0
  0
LINE
  8
0
 62
     0
 10
240.419
 20
92.9199
 30
0.0
 11
240.419
 21
89.8179
 31
0.0
  0
LINE
  8
0
 62
     0
 10
240.419
 20
89.8179
 30
0.0
 11
241.219
 21
89.8179
 31
0.0
  0
LINE
  8
0
 62
     0
 10
241.219
 20
89.8179
 30
0.0
 11
241.219
 21
88.8189
 31
0.0
  0
LINE
  8
0
 62
     0
 10
241.219
 20
88.8189
 30
0.0
 11
255.218
 21
88.8189
 31
0.0
  0
LINE
  8
0
 62
     0
 10
255.218
 20
88.8189
 30
0.0
 11
255.218
 21
89.8179
 31
0.0
  0
LINE
  8
0
 62
     0
 10
255.218
 20
89.8179
 30
0.0
 11
256.019
 21
89.8179
 31
0.0
  0
LINE
  8
0
 62
     0
 10
256.019
 20
89.8179
 30
0.0
 11
256.019
 21
92.9199
 31
0.0
  0
LINE
  8
0
 62
     0
 10
256.019
 20
92.9199
 30
0.0
 11
255.218
 21
92.9199
 31
0.0
  0
LINE
  8
0
 62
     0
 10
255.218
 20
92.9199
 30
0.0
 11
255.218
 21
98.7185
 31
0.0
  0
LINE
  8
0
 62
     0
 10
255.218
 20
98.7185
 30
0.0
 11
256.019
 21
98.7185
 31
0.0
  0
LINE
  8
0
 62
     0
 10
256.019
 20
98.7185
 30
0.0
 11
256.019
 21
101.819
 31
0.0
  0
LINE
  8
0
 62
     0
 10
256.019
 20
101.819
 30
0.0
 11
255.218
 21
101.819
 31
0.0
  0
LINE
  8
0
 62
     0
 10
255.218
 20
101.819
 30
0.0
 11
255.218
 21
102.818
 31
0.0
  0
LINE
  8
0
 62
     0
 10
255.218
 20
102.818
 30
0.0
 11
241.219
 21
102.818
 31
0.0
  0
LINE
  8
0
 62
     0
 10
303.131
 20
102.818
 30
0.0
 11
303.131
 21
101.819
 31
0.0
  0
LINE
  8
0
 62
     0
 10
303.131
 20
101.819
 30
0.0
 11
302.331
 21
101.819
 31
0.0
  0
LINE
  8
0
 62
     0
 10
302.331
 20
101.819
 30
0.0
 11
302.331
 21
98.7185
 31
0.0
  0
LINE
  8
0
 62
     0
 10
302.331
 20
98.7185
 30
0.0
 11
303.131
 21
98.7185
 31
0.0
  0
LINE
  8
0
 62
     0
 10
303.131
 20
98.7185
 30
0.0
 11
303.131
 21
92.9199
 31
0.0
  0
LINE
  8
0
 62
     0
 10
303.131
 20
92.9199
 30
0.0
 11
302.331
 21
92.9199
 31
0.0
  0
LINE
  8
0
 62
     0
 10
302.331
 20
92.9199
 30
0.0
 11
302.331
 21
89.8179
 31
0.0
  0
LINE
  8
0
 62
     0
 10
302.331
 20
89.8179
 30
0.0
 11
303.131
 21
89.8179
 31
0.0
  0
LINE
  8
0
 62
     0
 10
303.131
 20
89.8179
 30
0.0
 11
303.131
 21
88.8189
 31
0.0
  0
LINE
  8
0
 62
     0
 10
303.131
 20
88.8189
 30
0.0
 11
317.131
 21
88.8189
 31
0.0
  0
LINE
  8
0
 62
     0
 10
317.131
 20
88.8189
 30
0.0
 11
317.131
 21
89.8179
 31
0.0
  0
LINE
  8
0
 62
     0
 10
317.131
 20
89.8179
 30
0.0
 11
317.931
 21
89.8179
 31
0.0
  0
LINE
  8
0
 62
     0
 10
317.931
 20
89.8179
 30
0.0
 11
317.931
 21
92.9199
 31
0.0
  0
LINE
  8
0
 62
     0
 10
317.931
 20
92.9199
 30
0.0
 11
317.131
 21
92.9199
 31
0.0
  0
LINE
  8
0
 62
     0
 10
317.131
 20
92.9199
 30
0.0
 11
317.131
 21
98.7185
 31
0.0
  0
LINE
  8
0
 62
     0
 10
317.131
 20
98.7185
 30
0.0
 11
317.931
 21
98.7185
 31
0.0
  0
LINE
  8
0
 62
     0
 10
317.931
 20
98.7185
 30
0.0
 11
317.931
 21
101.819
 31
0.0
  0
LINE
  8
0
 62
     0
 10
317.931
 20
101.819
 30
0.0
 11
317.131
 21
101.819
 31
0.0
  0
LINE
  8
0
 62
     0
 10
317.131
 20
101.819
 30
0.0
 11
317.131
 21
102.818
 31
0.0
  0
LINE
  8
0
 62
     0
 10
317.131
 20
102.818
 30
0.0
 11
303.131
 21
102.818
 31
0.0
  0
LINE
  8
0
 62
     0
 10
322.181
 20
102.818
 30
0.0
 11
322.181
 21
101.819
 31
0.0
  0
LINE
  8
0
 62
     0
 10
322.181
 20
101.819
 30
0.0
 11
321.381
 21
101.819
 31
0.0
  0
LINE
  8
0
 62
     0
 10
321.381
 20
101.819
 30
0.0
 11
321.381
 21
98.7185
 31
0.0
  0
LINE
  8
0
 62
     0
 10
321.381
 20
98.7185
 30
0.0
 11
322.181
 21
98.7185
 31
0.0
  0
LINE
  8
0
 62
     0
 10
322.181
 20
98.7185
 30
0.0
 11
322.181
 21
92.9199
 31
0.0
  0
LINE
  8
0
 62
     0
 10
322.181
 20
92.9199
 30
0.0
 11
321.381
 21
92.9199
 31
0.0
  0
LINE
  8
0
 62
     0
 10
321.381
 20
92.9199
 30
0.0
 11
321.381
 21
89.8179
 31
0.0
  0
LINE
  8
0
 62
     0
 10
321.381
 20
89.8179
 30
0.0
 11
322.181
 21
89.8179
 31
0.0
  0
LINE
  8
0
 62
     0
 10
322.181
 20
89.8179
 30
0.0
 11
322.181
 21
88.8189
 31
0.0
  0
LINE
  8
0
 62
     0
 10
322.181
 20
88.8189
 30
0.0
 11
336.181
 21
88.8189
 31
0.0
  0
LINE
  8
0
 62
     0
 10
336.181
 20
88.8189
 30
0.0
 11
336.181
 21
89.8179
 31
0.0
  0
LINE
  8
0
 62
     0
 10
336.181
 20
89.8179
 30
0.0
 11
336.981
 21
89.8179
 31
0.0
  0
LINE
  8
0
 62
     0
 10
336.981
 20
89.8179
 30
0.0
 11
336.981
 21
92.9199
 31
0.0
  0
LINE
  8
0
 62
     0
 10
336.981
 20
92.9199
 30
0.0
 11
336.181
 21
92.9199
 31
0.0
  0
LINE
  8
0
 62
     0
 10
336.181
 20
92.9199
 30
0.0
 11
336.181
 21
98.7185
 31
0.0
  0
LINE
  8
0
 62
     0
 10
336.181
 20
98.7185
 30
0.0
 11
336.981
 21
98.7185
 31
0.0
  0
LINE
  8
0
 62
     0
 10
336.981
 20
98.7185
 30
0.0
 11
336.981
 21
101.819
 31
0.0
  0
LINE
  8
0
 62
     0
 10
336.981
 20
101.819
 30
0.0
 11
336.181
 21
101.819
 31
0.0
  0
LINE
  8
0
 62
     0
 10
336.181
 20
101.819
 30
0.0
 11
336.181
 21
102.818
 31
0.0
  0
LINE
  8
0
 62
     0
 10
336.181
 20
102.818
 30
0.0
 11
322.181
 21
102.818
 31
0.0
  0
LINE
  8
0
 62
     0
 10
341.231
 20
102.818
 30
0.0
 11
341.231
 21
101.819
 31
0.0
  0
LINE
  8
0
 62
     0
 10
341.231
 20
101.819
 30
0.0
 11
340.431
 21
101.819
 31
0.0
  0
LINE
  8
0
 62
     0
 10
340.431
 20
101.819
 30
0.0
 11
340.431
 21
98.7185
 31
0.0
  0
LINE
  8
0
 62
     0
 10
340.431
 20
98.7185
 30
0.0
 11
341.231
 21
98.7185
 31
0.0
  0
LINE
  8
0
 62
     0
 10
341.231
 20
98.7185
 30
0.0
 11
341.231
 21
92.9199
 31
0.0
  0
LINE
  8
0
 62
     0
 10
341.231
 20
92.9199
 30
0.0
 11
340.431
 21
92.9199
 31
0.0
  0
LINE
  8
0
 62
     0
 10
340.431
 20
92.9199
 30
0.0
 11
340.431
 21
89.8179
 31
0.0
  0
LINE
  8
0
 62
     0
 10
340.431
 20
89.8179
 30
0.0
 11
341.231
 21
89.8179
 31
0.0
  0
LINE
  8
0
 62
     0
 10
341.231
 20
89.8179
 30
0.0
 11
341.231
 21
88.8189
 31
0.0
  0
LINE
  8
0
 62
     0
 10
341.231
 20
88.8189
 30
0.0
 11
355.23
 21
88.8189
 31
0.0
  0
LINE
  8
0
 62
     0
 10
355.23
 20
88.8189
 30
0.0
 11
355.23
 21
89.8179
 31
0.0
  0
LINE
  8
0
 62
     0
 10
355.23
 20
89.8179
 30
0.0
 11
356.03
 21
89.8179
 31
0.0
  0
LINE
  8
0
 62
     0
 10
356.03
 20
89.8179
 30
0.0
 11
356.03
 21
92.9199
 31
0.0
  0
LINE
  8
0
 62
     0
 10
356.03
 20
92.9199
 30
0.0
 11
355.23
 21
92.9199
 31
0.0
  0
LINE
  8
0
 62
     0
 10
355.23
 20
92.9199
 30
0.0
 11
355.23
 21
98.7185
 31
0.0
  0
LINE
  8
0
 62
     0
 10
355.23
 20
98.7185
 30
0.0
 11
356.03
 21
98.7185
 31
0.0
  0
LINE
  8
0
 62
     0
 10
356.03
 20
98.7185
 30
0.0
 11
356.03
 21
101.819
 31
0.0
  0
LINE
  8
0
 62
     0
 10
356.03
 20
101.819
 30
0.0
 11
355.23
 21
101.819
 31
0.0
  0
LINE
  8
0
 62
     0
 10
355.23
 20
101.819
 30
0.0
 11
355.23
 21
102.818
 31
0.0
  0
LINE
  8
0
 62
     0
 10
355.23
 20
102.818
 30
0.0
 11
341.231
 21
102.818
 31
0.0
  0
LINE
  8
0
 62
     0
 10
362.292
 20
111.77
 30
0.0
 11
361.876
 21
111.558
 31
0.0
  0
LINE
  8
0
 62
     0
 10
361.876
 20
111.558
 30
0.0
 11
361.541
 21
111.226
 31
0.0
  0
LINE
  8
0
 62
     0
 10
361.541
 20
111.226
 30
0.0
 11
361.329
 21
110.807
 31
0.0
  0
LINE
  8
0
 62
     0
 10
361.329
 20
110.807
 30
0.0
 11
361.259
 21
110.344
 31
0.0
  0
LINE
  8
0
 62
     0
 10
361.259
 20
110.344
 30
0.0
 11
361.329
 21
109.881
 31
0.0
  0
LINE
  8
0
 62
     0
 10
361.329
 20
109.881
 30
0.0
 11
361.541
 21
109.462
 31
0.0
  0
LINE
  8
0
 62
     0
 10
361.541
 20
109.462
 30
0.0
 11
361.876
 21
109.13
 31
0.0
  0
LINE
  8
0
 62
     0
 10
361.876
 20
109.13
 30
0.0
 11
362.292
 21
108.919
 31
0.0
  0
LINE
  8
0
 62
     0
 10
362.292
 20
108.919
 30
0.0
 11
362.758
 21
108.844
 31
0.0
  0
LINE
  8
0
 62
     0
 10
362.758
 20
108.844
 30
0.0
 11
363.22
 21
108.919
 31
0.0
  0
LINE
  8
0
 62
     0
 10
363.22
 20
108.919
 30
0.0
 11
363.64
 21
109.13
 31
0.0
  0
LINE
  8
0
 62
     0
 10
363.64
 20
109.13
 30
0.0
 11
363.971
 21
109.462
 31
0.0
  0
LINE
  8
0
 62
     0
 10
363.971
 20
109.462
 30
0.0
 11
364.183
 21
109.881
 31
0.0
  0
LINE
  8
0
 62
     0
 10
364.183
 20
109.881
 30
0.0
 11
364.257
 21
110.344
 31
0.0
  0
LINE
  8
0
 62
     0
 10
364.257
 20
110.344
 30
0.0
 11
364.183
 21
110.807
 31
0.0
  0
LINE
  8
0
 62
     0
 10
364.183
 20
110.807
 30
0.0
 11
363.971
 21
111.226
 31
0.0
  0
LINE
  8
0
 62
     0
 10
363.971
 20
111.226
 30
0.0
 11
363.64
 21
111.558
 31
0.0
  0
LINE
  8
0
 62
     0
 10
363.64
 20
111.558
 30
0.0
 11
363.22
 21
111.77
 31
0.0
  0
LINE
  8
0
 62
     0
 10
363.22
 20
111.77
 30
0.0
 11
362.758
 21
111.843
 31
0.0
  0
LINE
  8
0
 62
     0
 10
362.758
 20
111.843
 30
0.0
 11
362.292
 21
111.77
 31
0.0
  0
LINE
  8
0
 62
     0
 10
4.63021
 20
111.77
 30
0.0
 11
4.21128
 21
111.558
 31
0.0
  0
LINE
  8
0
 62
     0
 10
4.21128
 20
111.558
 30
0.0
 11
3.87918
 21
111.226
 31
0.0
  0
LINE
  8
0
 62
     0
 10
3.87918
 20
111.226
 30
0.0
 11
3.66695
 21
110.807
 31
0.0
  0
LINE
  8
0
 62
     0
 10
3.66695
 20
110.807
 30
0.0
 11
3.59392
 21
110.344
 31
0.0
  0
LINE
  8
0
 62
     0
 10
3.59392
 20
110.344
 30
0.0
 11
3.66695
 21
109.881
 31
0.0
  0
LINE
  8
0
 62
     0
 10
3.66695
 20
109.881
 30
0.0
 11
3.87918
 21
109.462
 31
0.0
  0
LINE
  8
0
 62
     0
 10
3.87918
 20
109.462
 30
0.0
 11
4.21128
 21
109.13
 31
0.0
  0
LINE
  8
0
 62
     0
 10
4.21128
 20
109.13
 30
0.0
 11
4.63021
 21
108.919
 31
0.0
  0
LINE
  8
0
 62
     0
 10
4.63021
 20
108.919
 30
0.0
 11
5.09323
 21
108.844
 31
0.0
  0
LINE
  8
0
 62
     0
 10
5.09323
 20
108.844
 30
0.0
 11
5.55625
 21
108.919
 31
0.0
  0
LINE
  8
0
 62
     0
 10
5.55625
 20
108.919
 30
0.0
 11
5.97517
 21
109.13
 31
0.0
  0
LINE
  8
0
 62
     0
 10
5.97517
 20
109.13
 30
0.0
 11
6.30728
 21
109.462
 31
0.0
  0
LINE
  8
0
 62
     0
 10
6.30728
 20
109.462
 30
0.0
 11
6.51951
 21
109.881
 31
0.0
  0
LINE
  8
0
 62
     0
 10
6.51951
 20
109.881
 30
0.0
 11
6.59391
 21
110.344
 31
0.0
  0
LINE
  8
0
 62
     0
 10
6.59391
 20
110.344
 30
0.0
 11
6.51951
 21
110.807
 31
0.0
  0
LINE
  8
0
 62
     0
 10
6.51951
 20
110.807
 30
0.0
 11
6.30728
 21
111.226
 31
0.0
  0
LINE
  8
0
 62
     0
 10
6.30728
 20
111.226
 30
0.0
 11
5.97517
 21
111.558
 31
0.0
  0
LINE
  8
0
 62
     0
 10
5.97517
 20
111.558
 30
0.0
 11
5.55625
 21
111.77
 31
0.0
  0
LINE
  8
0
 62
     0
 10
5.55625
 20
111.77
 30
0.0
 11
5.09323
 21
111.843
 31
0.0
  0
LINE
  8
0
 62
     0
 10
5.09323
 20
111.843
 30
0.0
 11
4.63021
 21
111.77
 31
0.0
  0
ENDSEC
  0
EOF
